<svg width="300" height="300" viewBox="0 0 300 300" fill="none" xmlns="http://www.w3.org/2000/svg">
<g clip-path="url(#clip0_52_189)">
<path fill-rule="evenodd" clip-rule="evenodd" d="M0 -1C100 -1 200 -1 300 -1C300 99 300 199 300 299C200 299 100 299 0 299C0 199 0 99 0 -1Z" fill="#FEF5E8"/>
<rect x="83" y="78" width="63" height="8" fill="#4C5D4F"/>
<rect x="83" y="255" width="177" height="8.00001" transform="rotate(-90 83 255)" fill="#4C5D4F"/>
<path fill-rule="evenodd" clip-rule="evenodd" d="M82.0187 164.288C81.2167 167.074 81.2254 169.856 82.0456 172.633C84.8484 173.399 87.4117 174.615 89.7354 176.281C88.4106 179.163 87.3395 182.079 86.5235 185.029C87.5612 186.047 88.806 186.567 90.2595 186.588C96.1676 184.798 99.9965 186.835 101.747 192.698C94.4996 197.668 86.8182 198.557 78.7021 195.364C72.2694 192.613 68.9086 187.701 68.6202 180.63C68.3406 177.097 69.0172 173.724 70.6495 170.51C71.7488 167.436 73.4423 164.78 75.7294 162.541C78.2372 161.598 80.3339 162.18 82.0187 164.288Z" fill="#2A3D34"/>
<path fill-rule="evenodd" clip-rule="evenodd" d="M82.0186 164.288C87.1579 163.573 92.3276 163.098 97.5271 162.863C98.4659 163.578 98.9533 164.512 98.9892 165.667C102.621 167.475 106.253 169.283 109.885 171.091C109.762 173.991 109.17 176.814 108.106 179.56C109.102 179.975 110.099 180.391 111.095 180.807C110.462 185.282 110.999 189.6 112.708 193.762C109.141 192.387 105.488 192.032 101.747 192.698C99.9964 186.835 96.1675 184.798 90.2594 186.588C88.8059 186.567 87.5611 186.047 86.5234 185.03C87.3394 182.079 88.4105 179.163 89.7352 176.281C87.4115 174.615 84.8483 173.399 82.0455 172.634C81.2253 169.856 81.2166 167.074 82.0186 164.288Z" fill="#F1BF82"/>
<path fill-rule="evenodd" clip-rule="evenodd" d="M246.697 62.1632C243.956 59.1419 239.473 55.0607 236 53C234.5 57 229.501 60.7742 226.23 64.6273C220.767 70.4817 215.445 76.4646 210.264 82.5746C200.705 90.6885 191.296 98.9788 182.039 107.446C175.979 114.005 170.556 121.051 165.773 128.58C162.353 131.28 159.101 134.163 156.017 137.23C163.692 144.007 169.25 152.165 172.692 161.703C186.44 159.145 194.199 150.882 195.969 136.915C202.263 127.968 208.001 118.679 213.182 109.046C218.736 102.824 224.289 96.6014 229.843 90.3798C235.747 81.1241 241.366 71.7183 246.697 62.1632Z" fill="#CA793A"/>
<path fill-rule="evenodd" clip-rule="evenodd" d="M246.697 62.1633C246.929 61.9239 247.161 61.6838 247.392 61.4444C248.548 55.945 246.476 51.8545 241.176 49.1724C239.093 49.9979 237.347 51.3241 235.938 53.1497C236.5 54.0002 237 54.3168 237.376 54.54C240.849 56.6007 243.956 59.142 246.697 62.1633Z" fill="#F2C394"/>
<path fill-rule="evenodd" clip-rule="evenodd" d="M235.938 53.1492C237.348 51.3237 239.094 49.9974 241.176 49.1719C246.477 51.8541 248.549 55.9445 247.392 61.444C250.973 60.8268 254.617 60.1767 258.322 59.4931C259.706 59.0456 260.397 58.0906 260.395 56.6296C258.12 47.474 255.846 38.3184 253.571 29.1627C251.73 24.3916 248.38 21.3827 243.519 20.1373C241.127 21.5465 239.034 23.2314 237.239 25.1928C237.994 34.6935 237.561 44.0125 235.938 53.1492Z" fill="#24312E"/>
<path fill-rule="evenodd" clip-rule="evenodd" d="M109.17 180.028C110.773 175.125 114.366 168.984 115.804 167.346C116.882 166.119 126.161 161.134 138.339 153.42C145.076 148.266 151.159 142.403 156.587 135.83C159.188 136.608 161.687 137.636 164.085 138.912C170.909 143.747 177.867 148.357 184.957 152.739C184.875 153.24 184.994 153.712 185.315 154.154C171.649 171.356 155.096 184.965 135.655 194.982C127.269 197.775 119.216 197.072 111.494 192.874C109.559 188.813 108.785 184.531 109.17 180.028Z" fill="#293C32"/>
<path fill-rule="evenodd" clip-rule="evenodd" d="M113.684 75.6121C113.873 75.7845 114.061 75.9569 114.25 76.1292C114.423 78.0953 115.228 79.8683 116.664 81.4482C117.284 85.1284 117.363 88.8346 116.9 92.5671C123.75 117.362 130.579 142.114 137.388 166.826C137 168.209 137.152 169.56 137.844 170.877C143.493 175.731 144.102 181.132 139.669 187.081C132.352 192.841 125.801 192.054 120.016 184.72C118.841 181.976 118.348 179.103 118.537 176.1C118.388 170.772 118.671 171.03 117.427 163.664C115.066 139.744 111.364 116.116 106.323 92.778C105.664 90.5144 105.016 88.1911 104.376 85.8089C102.672 82.6373 103.365 79.982 106.456 77.8419C107.671 76.7005 108.885 75.5597 110.1 74.4183C111.524 74.1213 112.718 74.5197 113.684 75.6121Z" fill="#EBBC7C"/>
<rect x="138" y="255" width="177" height="8.00001" transform="rotate(-90 138 255)" fill="#4C5D4F"/>
</g>
<defs>
<clipPath id="clip0_52_189">
<rect width="300" height="300" fill="white"/>
</clipPath>
</defs>
</svg>
