<svg width="300" height="300" viewBox="0 0 300 300" fill="none" xmlns="http://www.w3.org/2000/svg">
<g clip-path="url(#clip0_41_508)">
<path fill-rule="evenodd" clip-rule="evenodd" d="M-0.5 -0.5C99.5 -0.5 199.5 -0.5 299.5 -0.5C299.5 99.5 299.5 199.5 299.5 299.5C199.5 299.5 99.5 299.5 -0.5 299.5C-0.5 199.5 -0.5 99.5 -0.5 -0.5Z" fill="#FDF3E6"/>
<path fill-rule="evenodd" clip-rule="evenodd" d="M160.745 63.1628C160.437 63.1628 160.128 63.1628 159.819 63.1628C158.932 62.7435 158.16 62.1261 157.504 61.3108C157.418 57.2916 157.418 53.2789 157.504 49.273C156.82 48.2783 155.894 47.6609 154.726 47.421C152.857 49.035 150.85 50.1153 148.707 50.6619C147.969 47.1937 147.506 43.6441 147.318 40.0131C144.081 39.3621 140.84 38.7447 137.596 38.1611C135.025 35.3737 135.334 32.7501 138.522 30.2902C148.814 26.1997 158.228 27.5887 166.764 34.4571C169.87 39.2404 170.796 44.4877 169.542 50.1989C167.734 55.3837 164.801 59.7051 160.745 63.1628Z" fill="#29332E"/>
<path fill-rule="evenodd" clip-rule="evenodd" d="M64 64.5C120.498 64.5 177.002 64.5 233.5 64.5C233.5 66.1667 233.5 67.8333 233.5 69.5C177.002 69.5 120.498 69.5 64 69.5C64 67.8333 64 66.1667 64 64.5Z" fill="#4A453B"/>
<path fill-rule="evenodd" clip-rule="evenodd" d="M109.816 65.0144C109.816 66.5578 109.816 68.101 109.816 69.6444C108.687 73.278 107.453 76.8276 106.112 80.2932C107.073 85.409 108.154 90.5019 109.353 95.5721C112.954 89.4513 117.121 83.7411 121.854 78.4413C124.48 76.0482 127.566 74.968 131.114 75.2003C131.544 84.661 129.692 93.6123 125.558 102.054C120.042 109.886 112.787 115.442 103.797 118.722C102.042 118.615 100.499 117.998 99.167 116.87C97.8716 114.219 96.9456 111.441 96.389 108.536C95.69 98.1787 95.8443 87.8388 96.852 77.5153C96.6309 75.075 96.0135 72.7601 95 70.5704C95 68.4098 95 66.2491 95 64.0884C95 63.1625 95 62.2365 95 61.3105C98.1573 61.0494 101.244 60.4321 104.26 59.4585C105.166 59.8999 105.937 60.5172 106.575 61.3105C107.24 60.4302 108.011 60.276 108.89 60.8475C109.705 62.1032 110.014 63.4922 109.816 65.0144Z" fill="#FAC795"/>
<path fill-rule="evenodd" clip-rule="evenodd" d="M204.267 65.0152C204.267 66.5585 204.267 68.1018 204.267 69.6451C202.596 72.0862 201.67 74.8642 201.489 77.979C202.473 87.2233 202.628 96.4832 201.952 105.759C201.792 109.665 200.866 113.369 199.174 116.871C196.045 119.114 192.804 119.269 189.451 117.334C183.444 113.331 178.196 108.546 173.709 102.981C169.656 93.8667 167.496 84.2982 167.227 74.2751C170.517 75.2172 173.604 76.6062 176.487 78.442C181.22 83.7418 185.387 89.4521 188.988 95.5728C190.6 90.7514 191.681 85.8128 192.229 80.757C191.192 77.0286 189.957 73.3247 188.525 69.6451C188.525 68.1018 188.525 66.5585 188.525 65.0152C188.525 64.7066 188.525 64.3978 188.525 64.0892C188.445 63.167 188.755 62.3954 189.451 61.7742C191.169 61.3834 192.867 60.9204 194.544 60.3853C197.344 60.3023 200.277 60.6109 203.341 61.3112C203.093 62.7919 203.402 64.0266 204.267 65.0152Z" fill="#FAC795"/>
<path fill-rule="evenodd" clip-rule="evenodd" d="M141.299 73.3488C146.855 77.0527 152.411 77.0527 157.967 73.3488C161.098 73.3113 164.184 73.62 167.227 74.2747C167.496 84.2978 169.656 93.8664 173.709 102.98C172.302 114.96 171.376 126.998 170.931 139.094C156.329 140.601 141.822 140.292 127.41 138.168C127.36 126.098 126.742 114.06 125.558 102.054C129.692 93.6127 131.544 84.6615 131.114 75.2007C134.24 73.7355 137.634 73.1183 141.299 73.3488Z" fill="#26312C"/>
<path fill-rule="evenodd" clip-rule="evenodd" d="M127.41 138.168C141.822 140.292 156.329 140.601 170.931 139.094C173.973 155.316 175.054 171.676 174.172 188.171C171.702 202.987 169.234 217.803 166.764 232.619C166.41 233.134 165.947 233.442 165.375 233.545C161.609 232.106 157.597 231.489 153.337 231.693C153.492 215.331 153.337 198.972 152.874 182.615C152.522 176.288 151.442 170.116 149.633 164.096C147.555 173.413 146.011 182.827 145.003 192.338C147.72 205.192 148.956 218.002 148.707 230.767C145.008 232 141.304 233.236 137.596 234.471C136.673 234.55 135.902 234.241 135.281 233.545C132.048 220.924 128.962 208.269 126.021 195.579C124.005 176.381 124.468 157.243 127.41 138.168Z" fill="#C36D3A"/>
<path fill-rule="evenodd" clip-rule="evenodd" d="M153.5 244.5C151.713 250.831 150.046 250.498 148.5 243.5C148.768 229.715 147.434 215.881 144.5 202C145.588 191.729 147.255 181.562 149.5 171.5C151.453 178.001 152.62 184.667 153 191.5C153.5 209.164 153.667 226.83 153.5 244.5Z" fill="#FAEEDF"/>
<path fill-rule="evenodd" clip-rule="evenodd" d="M148.707 230.767C150.139 237.247 151.683 237.555 153.337 231.693C157.597 231.489 161.609 232.106 165.375 233.545C168.542 242.523 166.382 250.086 158.893 256.231C155.82 258.551 152.424 259.477 148.707 259.009C147.5 258.265 146.882 257.184 146.855 255.768C148.493 253.126 149.573 250.348 150.096 247.434C145.637 255.037 139.155 258.432 130.651 257.62C130.746 253.683 131.98 249.979 134.355 246.508C135.847 242.59 136.928 238.576 137.595 234.471C141.304 233.235 145.008 232 148.707 230.767Z" fill="#2B332D"/>
<path fill-rule="evenodd" clip-rule="evenodd" d="M137.595 38.1611C140.84 38.7448 144.081 39.3621 147.318 40.0131C147.506 43.6442 147.969 47.1938 148.707 50.662C150.85 50.1154 152.857 49.035 154.726 47.421C155.894 47.6609 156.82 48.2783 157.504 49.273C157.418 53.2789 157.418 57.2916 157.504 61.3109C158.16 62.1262 158.932 62.7436 159.819 63.1628C159.819 63.7802 159.819 64.3975 159.819 65.0148C159.078 66.4425 158.769 67.9859 158.893 69.6448C158.214 70.7633 157.905 71.998 157.967 73.3487C152.411 77.0527 146.855 77.0527 141.299 73.3487C142.318 72.3256 142.936 71.091 143.151 69.6448C140.312 68.3734 137.534 66.83 134.818 65.0148C134.353 61.2282 133.427 57.5242 132.04 53.9029C133.664 48.5348 135.516 43.2875 137.595 38.1611Z" fill="#F8C694"/>
<rect x="226" y="274" width="209" height="8.00001" transform="rotate(-90 226 274)" fill="#4A453B"/>
<rect x="64" y="274" width="209" height="8.00001" transform="rotate(-90 64 274)" fill="#4A453B"/>
</g>
<defs>
<clipPath id="clip0_41_508">
<rect width="300" height="300" fill="white"/>
</clipPath>
</defs>
</svg>
