<svg width="300" height="300" viewBox="0 0 300 300" fill="none" xmlns="http://www.w3.org/2000/svg">
<g clip-path="url(#clip0_41_574)">
<path fill-rule="evenodd" clip-rule="evenodd" d="M-0.5 -0.5C99.5 -0.5 199.5 -0.5 299.5 -0.5C299.5 99.5 299.5 199.5 299.5 299.5C199.5 299.5 99.5 299.5 -0.5 299.5C-0.5 199.5 -0.5 99.5 -0.5 -0.5Z" fill="#FEF5E6"/>
<path fill-rule="evenodd" clip-rule="evenodd" d="M174.5 80.5C167.133 80.3056 164.8 76.8056 167.5 70C166.792 64.6173 163.792 62.284 158.5 63C157.345 65.2146 155.845 67.0479 154 68.5C152.739 68.2409 151.739 67.5742 151 66.5C149.355 63.3785 147.855 60.2118 146.5 57C142.698 58.1421 138.698 58.6421 134.5 58.5C131.76 56.0997 130.927 53.0997 132 49.5C139.145 42.4052 147.811 39.4052 158 40.5C171.142 40.1419 178.642 46.4752 180.5 59.5C180.118 64.2456 179.284 68.9121 178 73.5C177.478 76.2813 176.311 78.6147 174.5 80.5Z" fill="#29342F"/>
<path fill-rule="evenodd" clip-rule="evenodd" d="M178.5 87.5C189.694 90.7096 199.027 96.7096 206.5 105.5C216.428 117.69 223.428 131.356 227.5 146.5C229.179 156.751 229.846 167.084 229.5 177.5C212.607 175.869 196.607 171.202 181.5 163.5C173.772 150.043 167.105 136.043 161.5 121.5C163.288 120.378 165.288 120.211 167.5 121C175.594 128.501 183.427 128.334 191 120.5C194.87 108.738 191.036 100.572 179.5 96C174.757 95.4571 170.09 95.4571 165.5 96C169.178 92.1611 173.512 89.3278 178.5 87.5Z" fill="#28342E"/>
<path fill-rule="evenodd" clip-rule="evenodd" d="M174.5 80.5C175.979 82.723 177.312 85.0564 178.5 87.5C173.512 89.3278 169.178 92.1611 165.5 96C170.09 95.4571 174.757 95.4571 179.5 96C191.036 100.572 194.87 108.738 191 120.5C183.427 128.334 175.594 128.501 167.5 121C165.288 120.211 163.288 120.378 161.5 121.5C135.957 124.857 110.291 126.357 84.5 126C82.5767 126.808 80.5767 127.308 78.5 127.5C73.892 126.348 69.2253 125.515 64.5 125C62.8839 124.385 61.5505 123.385 60.5 122C56.7778 121.762 53.1111 121.262 49.5 120.5C48.1696 118.653 48.503 117.153 50.5 116C87.1232 114.125 123.123 108.292 158.5 98.5C157.974 96.7697 156.974 95.4363 155.5 94.5C144.403 99.4175 138.736 95.7509 138.5 83.5C136.604 82.5344 134.604 82.2011 132.5 82.5C133.167 74.5 133.833 66.5 134.5 58.5C138.698 58.6421 142.698 58.1421 146.5 57C147.855 60.2118 149.355 63.3785 151 66.5C151.739 67.5742 152.739 68.2409 154 68.5C155.845 67.0479 157.345 65.2146 158.5 63C163.792 62.284 166.792 64.6173 167.5 70C164.8 76.8056 167.133 80.3056 174.5 80.5Z" fill="#F9C78F"/>
<path fill-rule="evenodd" clip-rule="evenodd" d="M206.5 105.5C215.267 111.086 223.934 116.919 232.5 123C233.787 124.41 234.954 125.91 236 127.5C244.333 146.989 250.5 166.989 254.5 187.5C252.4 184.896 250.067 182.396 247.5 180C244.044 178.877 241.21 179.71 239 182.5C238.016 187.301 235.85 191.468 232.5 195C236.207 195.936 239.374 197.769 242 200.5C242.357 204.51 242.19 208.51 241.5 212.5C240.222 212.782 239.222 213.449 238.5 214.5C235.589 208.918 232.256 203.585 228.5 198.5C231.084 193.681 232.251 188.348 232 182.5C233.06 177.362 234.56 172.362 236.5 167.5C233.727 160.299 230.727 153.299 227.5 146.5C223.428 131.356 216.428 117.69 206.5 105.5Z" fill="#F8C990"/>
<path fill-rule="evenodd" clip-rule="evenodd" d="M181.5 163.5C196.607 171.202 212.607 175.869 229.5 177.5C229.274 191.697 222.941 202.031 210.5 208.5C210.667 209.167 210.833 209.833 211 210.5C216.457 205.863 222.291 201.863 228.5 198.5C232.256 203.585 235.589 208.918 238.5 214.5C230.697 222.134 222.697 229.634 214.5 237C210.88 240.467 206.88 243.3 202.5 245.5C200.823 243.715 198.989 243.049 197 243.5C196.202 241.741 196.369 240.074 197.5 238.5C198.396 239.506 199.062 239.506 199.5 238.5C198.218 236.821 197.218 234.987 196.5 233C200.849 224.806 205.183 216.306 209.5 207.5C203.824 207.666 198.157 207.499 192.5 207C187.177 205.391 181.844 203.891 176.5 202.5C171.485 199.491 166.152 197.324 160.5 196C162.718 199.605 164.552 203.438 166 207.5C167.942 216.156 169.775 224.823 171.5 233.5C171.5 234.5 171.5 235.5 171.5 236.5C166.625 237.085 161.958 238.085 157.5 239.5C156.041 239.433 154.708 239.766 153.5 240.5C144.757 222.678 136.257 204.678 128 186.5C124.487 179.039 123.82 171.372 126 163.5C129.405 157.13 134.738 154.13 142 154.5C155.522 156.006 168.689 159.006 181.5 163.5Z" fill="#C86E30"/>
<path fill-rule="evenodd" clip-rule="evenodd" d="M227.5 146.5C230.727 153.299 233.727 160.299 236.5 167.5C234.56 172.362 233.06 177.362 232 182.5C232.251 188.348 231.084 193.681 228.5 198.5C222.291 201.863 216.457 205.863 211 210.5C210.833 209.833 210.667 209.167 210.5 208.5C222.941 202.031 229.274 191.697 229.5 177.5C229.846 167.084 229.179 156.751 227.5 146.5Z" fill="#F7F3EC"/>
<path fill-rule="evenodd" clip-rule="evenodd" d="M254.5 187.5C259.9 194.749 264.733 202.416 269 210.5C270.734 214.017 271.401 217.684 271 221.5C268.847 223.444 266.347 223.944 263.5 223C258.403 214.952 251.07 211.452 241.5 212.5C242.19 208.51 242.357 204.51 242 200.5C239.374 197.769 236.207 195.936 232.5 195C235.85 191.468 238.016 187.301 239 182.5C241.21 179.71 244.044 178.877 247.5 180C250.067 182.396 252.4 184.896 254.5 187.5Z" fill="#2A352F"/>
<path fill-rule="evenodd" clip-rule="evenodd" d="M176.5 202.5C181.844 203.891 187.177 205.391 192.5 207C198.157 207.499 203.824 207.666 209.5 207.5C205.183 216.306 200.849 224.806 196.5 233C197.218 234.987 198.218 236.821 199.5 238.5C199.062 239.506 198.396 239.506 197.5 238.5C196.369 240.074 196.202 241.741 197 243.5C198.989 243.049 200.823 243.715 202.5 245.5C197.051 250.12 190.717 251.62 183.5 250C178.564 247.303 175.73 243.136 175 237.5C172.802 225.682 173.302 214.015 176.5 202.5Z" fill="#B6642B"/>
<path fill-rule="evenodd" clip-rule="evenodd" d="M171.5 233.5C172.268 235.715 172.935 238.048 173.5 240.5C167.918 243.396 162.585 243.063 157.5 239.5C161.958 238.085 166.625 237.085 171.5 236.5C171.5 235.5 171.5 234.5 171.5 233.5Z" fill="#F1BF86"/>
<path fill-rule="evenodd" clip-rule="evenodd" d="M157.5 239.5C162.585 243.063 167.918 243.396 173.5 240.5C177.223 246.544 178.223 253.044 176.5 260C168.097 261.138 159.597 261.638 151 261.5C143.167 261.333 135.333 261.167 127.5 261C124.689 257.706 125.022 254.706 128.5 252C138.127 250.851 146.461 247.018 153.5 240.5C154.708 239.766 156.041 239.433 157.5 239.5Z" fill="#28342E"/>
</g>
<defs>
<clipPath id="clip0_41_574">
<rect width="300" height="300" fill="white"/>
</clipPath>
</defs>
</svg>
