<svg width="300" height="300" viewBox="0 0 300 300" fill="none" xmlns="http://www.w3.org/2000/svg">
<g clip-path="url(#clip0_57_2)">
<path fill-rule="evenodd" clip-rule="evenodd" d="M-0.5 -0.5C99.5 -0.5 199.5 -0.5 299.5 -0.5C299.5 99.5 299.5 199.5 299.5 299.5C199.5 299.5 99.5 299.5 -0.5 299.5C-0.5 199.5 -0.5 99.5 -0.5 -0.5Z" fill="#FEF7E8"/>
<path fill-rule="evenodd" clip-rule="evenodd" d="M117.5 41.5C138.5 41.5 159.5 41.5 180.5 41.5C180.989 44.4447 182.489 46.7781 185 48.5C183.136 68.5924 176.969 87.2591 166.5 104.5C164.5 104.5 162.5 104.5 160.5 104.5C160.5 101.167 160.5 97.8333 160.5 94.5C166.212 88.7385 169.546 81.7385 170.5 73.5C168.102 60.6198 160.269 54.6198 147 55.5C140.764 55.2208 135.431 57.2208 131 61.5C130.109 64.4976 130.609 67.1643 132.5 69.5C130.751 76.4161 129.418 83.4161 128.5 90.5C129.822 90.33 130.989 90.6634 132 91.5C132.539 94.5285 133.206 97.5285 134 100.5C136.565 101.47 138.732 102.804 140.5 104.5C137.5 104.5 134.5 104.5 131.5 104.5C121.031 87.2591 114.864 68.5924 113 48.5C115.511 46.7781 117.011 44.4447 117.5 41.5Z" fill="#FCF6E7"/>
<path fill-rule="evenodd" clip-rule="evenodd" d="M139.755 183.088C142.43 185.662 142.984 188.71 141.417 192.23C141.553 195.554 143.215 196.801 146.404 195.97C147.402 195.22 148.095 194.25 148.482 193.061C149.441 194.094 150.55 194.925 151.806 195.554C151.987 197.986 152.403 200.341 153.053 202.619C156.264 203.744 159.588 204.159 163.026 203.865C164.598 205.807 165.014 208.023 164.273 210.514C160.59 214.071 156.158 215.733 150.975 215.501C139.947 216.233 133.437 211.246 131.444 200.541C132.237 193.694 135.008 187.876 139.755 183.088Z" fill="#283C36"/>
<path fill-rule="evenodd" clip-rule="evenodd" d="M163.026 203.866C159.588 204.16 156.264 203.744 153.053 202.619C152.403 200.341 151.987 197.987 151.806 195.555C150.55 194.926 149.441 194.094 148.482 193.061C148.095 194.25 147.402 195.22 146.404 195.97C143.215 196.801 141.553 195.554 141.417 192.23C142.984 188.71 142.43 185.663 139.755 183.088C139.755 180.317 139.755 177.547 139.755 174.777C142.923 168.498 147.91 166.698 154.715 169.374C156.152 170.861 156.707 172.662 156.377 174.777C157.847 176.186 159.648 177.295 161.78 178.101C162.44 180.571 162.994 183.064 163.442 185.581C164.282 186.276 165.252 186.554 166.351 186.412C165.588 192.3 164.48 198.118 163.026 203.866Z" fill="#EEBB7C"/>
<path fill-rule="evenodd" clip-rule="evenodd" d="M99.5 100.085C98.6314 101.699 98.298 103.398 98.5 105.18C90.5 105.18 82.5 105.18 74.5 105.18C74.5 161.954 74.5 218.727 74.5 275.5C72.1667 275.5 69.8333 275.5 67.5 275.5C67.3333 217.514 67.5 159.527 68 101.541C68.5 101.177 69 100.813 69.5 100.449C79.4944 100.086 89.4944 99.9643 99.5 100.085Z" fill="#46544E"/>
<path fill-rule="evenodd" clip-rule="evenodd" d="M163.858 174.776C161.364 174.776 158.871 174.776 156.377 174.776C156.707 172.662 156.152 170.861 154.715 169.374C147.91 166.698 142.923 168.498 139.755 174.776C138.093 174.776 136.431 174.776 134.768 174.776C134.255 166.902 132.315 159.422 128.951 152.336C129.036 141.38 129.591 130.575 130.613 119.923C142.992 118.004 155.459 117.727 168.013 119.092C168.718 130.415 169.549 141.774 170.506 153.167C169.71 153.544 169.017 154.097 168.429 154.83C166.117 161.308 164.592 167.957 163.858 174.776Z" fill="#253933"/>
<path fill-rule="evenodd" clip-rule="evenodd" d="M198.5 100.813C206.833 100.813 215.167 100.813 223.5 100.813C222.488 101.978 222.988 102.949 225 103.725C225.5 160.983 225.667 218.242 225.5 275.5C223.503 218.975 222.836 162.201 223.5 105.181C215.167 105.181 206.833 105.181 198.5 105.181C198.5 103.725 198.5 102.269 198.5 100.813Z" fill="#485650"/>
<path fill-rule="evenodd" clip-rule="evenodd" d="M130.613 119.923C130.198 116.619 129.921 113.295 129.782 109.949C130.815 90.8728 133.308 72.0347 137.262 53.4335C140.889 51.3017 144.491 51.3017 148.066 53.4335C147.706 69.5414 148.261 85.6093 149.729 101.638C150.56 85.5794 150.836 69.5114 150.56 53.4335C154.04 51.6698 157.642 51.3931 161.364 52.6024C163.42 60.5005 164.944 68.5349 165.935 76.7048C166.85 87.2392 167.82 97.7669 168.844 108.287C168.671 111.903 168.393 115.505 168.013 119.092C155.459 117.727 142.992 118.004 130.613 119.923Z" fill="#C5672A"/>
<path fill-rule="evenodd" clip-rule="evenodd" d="M223.5 100.813C225.467 100.639 227.301 100.882 229 101.541C229.5 159.527 229.667 217.514 229.5 275.5C228.167 275.5 226.833 275.5 225.5 275.5C225.667 218.242 225.5 160.983 225 103.725C222.988 102.949 222.488 101.978 223.5 100.813Z" fill="#4A5853"/>
<path fill-rule="evenodd" clip-rule="evenodd" d="M198.5 100.813C198.5 100.571 198.5 100.328 198.5 100.086C209.082 99.8527 219.582 100.095 230 100.813C230.832 159.165 230.666 217.394 229.5 275.5C229.667 217.514 229.5 159.527 229 101.541C227.301 100.882 225.467 100.639 223.5 100.813C215.167 100.813 206.833 100.813 198.5 100.813Z" fill="#32433D"/>
<path fill-rule="evenodd" clip-rule="evenodd" d="M150.56 53.4336C149.352 47.3024 149.491 41.207 150.975 35.149C155.788 30.2396 159.389 31.0707 161.78 37.6424C162.258 42.6474 162.12 47.6341 161.364 52.6025C157.642 51.3932 154.04 51.67 150.56 53.4336Z" fill="#2A3E37"/>
<path fill-rule="evenodd" clip-rule="evenodd" d="M148.066 53.4336C144.491 51.3018 140.889 51.3018 137.262 53.4336C136.616 48.1793 136.477 42.9158 136.846 37.6424C139.34 31.2685 142.941 30.4374 147.651 35.149C149.1 41.1962 149.239 47.2908 148.066 53.4336Z" fill="#293D36"/>
<path fill-rule="evenodd" clip-rule="evenodd" d="M91 100.085C127.136 100.085 163.27 100.085 199.406 100.085C198.979 101.249 199.511 102.219 201 102.996C201 103.724 201 104.452 201 105.18C199.406 105.18 197.812 105.18 196.217 105.18C162.739 105.18 129.261 105.18 95.7826 105.18C94.1884 105.18 92.5942 105.18 91 105.18C91 103.482 91 101.783 91 100.085Z" fill="#414F49"/>
<path fill-rule="evenodd" clip-rule="evenodd" d="M120.372 98.3991C120.377 98.6761 120.382 98.9531 120.386 99.2301C120.42 101.169 120.453 103.108 120.486 105.047C121.317 105.033 122.148 105.018 122.979 105.004C122.615 107.458 121.402 109.419 119.34 110.885C121.176 127.555 125.61 143.879 134.556 158.056C137.488 165.092 139.102 166.783 136.902 173.3C136.193 175.397 132.797 176.818 129.28 175.644C119.826 162.159 115.063 147.586 111.104 130.958C110.1 123.778 110.245 116.59 109.34 109.395C108.685 107.898 107.968 106.525 107.191 105.276C106.988 103.243 107.231 101.299 107.921 99.4447C108.474 98.1698 109.429 97.3221 110.787 96.9016C113.567 96.9274 116.478 97.0158 119.52 97.1669C119.987 97.4769 120.271 97.8876 120.372 98.3991Z" fill="#F3C283"/>
<path fill-rule="evenodd" clip-rule="evenodd" d="M178.628 98.4372C178.623 98.7142 178.618 98.9912 178.614 99.2682C178.58 101.207 178.547 103.146 178.514 105.085C177.683 105.071 176.852 105.057 176.021 105.042C176.385 107.496 177.598 109.457 179.66 110.924C177.824 127.594 173.39 143.917 164.444 158.094C161.512 165.13 159.898 166.821 162.098 173.338C162.807 175.435 166.203 176.856 169.72 175.682C179.174 162.197 183.937 147.625 187.896 130.996C188.9 123.816 188.755 116.628 189.66 109.433C190.315 107.936 191.032 106.563 191.809 105.314C192.012 103.281 191.769 101.337 191.079 99.4827C190.526 98.2079 189.571 97.3602 188.213 96.9397C185.433 96.9655 182.522 97.0539 179.48 97.205C179.013 97.515 178.729 97.9257 178.628 98.4372Z" fill="#F3C283"/>
</g>
<defs>
<clipPath id="clip0_57_2">
<rect width="300" height="300" fill="white"/>
</clipPath>
</defs>
</svg>
