<svg width="300" height="300" viewBox="0 0 300 300" fill="none" xmlns="http://www.w3.org/2000/svg">
<g clip-path="url(#clip0_41_337)">
<path fill-rule="evenodd" clip-rule="evenodd" d="M-0.5 -0.5C99.5 -0.5 199.5 -0.5 299.5 -0.5C299.5 99.5 299.5 199.5 299.5 299.5C199.5 299.5 99.5 299.5 -0.5 299.5C-0.5 199.5 -0.5 99.5 -0.5 -0.5Z" fill="#FEF7E9"/>
<path fill-rule="evenodd" clip-rule="evenodd" d="M160.5 64.5C159.645 63.4693 158.978 62.3027 158.5 61C164.457 50.4722 161.791 46.9723 150.5 50.5001C149.833 50.1668 149.167 49.8334 148.5 49.5001C147.865 45.6332 147.199 41.7999 146.5 38.0001C141.511 37.5008 136.511 37.3342 131.5 37.5001C129.667 35.5044 129.167 33.1711 130 30.5001C132.626 27.7693 135.793 25.9359 139.5 25.0001C148.027 23.4313 156.027 24.7646 163.5 29.0001C165.7 31.2337 167.533 33.7337 169 36.5001C170.569 45.0267 169.235 53.0266 165 60.5C163.629 62.0415 162.129 63.3747 160.5 64.5Z" fill="#2C3D36"/>
<path fill-rule="evenodd" clip-rule="evenodd" d="M131.5 37.5001C136.511 37.3342 141.511 37.5008 146.5 38.0001C147.199 41.7999 147.865 45.6332 148.5 49.5001C149.167 49.8334 149.833 50.1668 150.5 50.5001C161.791 46.9723 164.457 50.4723 158.5 61.0001C158.978 62.3027 159.645 63.4694 160.5 64.5001C159.833 65.5001 159.167 66.5001 158.5 67.5001C148.833 67.5001 139.167 67.5001 129.5 67.5001C129.004 57.3791 129.671 47.3791 131.5 37.5001Z" fill="#F6C993"/>
<path fill-rule="evenodd" clip-rule="evenodd" d="M114.5 67.5C119.5 67.5 124.5 67.5 129.5 67.5C139.167 67.5 148.833 67.5 158.5 67.5C166.833 67.5 175.167 67.5 183.5 67.5C183.5 69.8333 183.5 72.1667 183.5 74.5C175.167 74.5 166.833 74.5 158.5 74.5C151.5 74.5 144.5 74.5 137.5 74.5C129.833 74.5 122.167 74.5 114.5 74.5C114.5 72.1667 114.5 69.8333 114.5 67.5Z" fill="#4F5A54"/>
<path fill-rule="evenodd" clip-rule="evenodd" d="M199.5 67.4999C199.5 69.8332 199.5 72.1666 199.5 74.4999C199.33 76.8483 198.997 79.1816 198.5 81.4999C200.54 91.4475 202.207 101.448 203.5 111.5C203.788 120.712 199.454 124.212 190.5 122C184.071 118.733 178.738 114.233 174.5 108.5C169.72 99.1417 167.387 89.1417 167.5 78.4999C170.258 79.3769 172.924 80.5436 175.5 81.9999C180.274 87.0512 184.44 92.5512 188 98.4999C188.667 92.8332 188.667 87.1666 188 81.4999C185.418 79.7721 183.918 77.4388 183.5 74.4999C183.5 72.1666 183.5 69.8332 183.5 67.4999C184.434 66.4323 184.768 65.0989 184.5 63.4999C188.846 63.3342 193.179 63.5009 197.5 63.9999C198.823 64.8158 199.489 65.9825 199.5 67.4999Z" fill="#F8CA93"/>
<path fill-rule="evenodd" clip-rule="evenodd" d="M114.5 74.5C122.167 74.5 129.833 74.5 137.5 74.5C136.306 75.2719 135.306 76.2719 134.5 77.5C132.035 77.767 129.701 78.4336 127.5 79.5C124.533 79.9886 121.867 81.1552 119.5 83C116.212 87.0768 113.045 91.2435 110 95.5C109.333 90.8333 109.333 86.1667 110 81.5C112.582 79.7722 114.082 77.4389 114.5 74.5Z" fill="#FBF5E8"/>
<path fill-rule="evenodd" clip-rule="evenodd" d="M137.5 74.5C144.5 74.5 151.5 74.5 158.5 74.5C159.29 75.4013 160.29 76.0679 161.5 76.5C157.828 82.3489 152.661 86.0155 146 87.5C140.181 86.5185 136.348 83.1852 134.5 77.5C135.306 76.2719 136.306 75.2719 137.5 74.5Z" fill="#F6CD9A"/>
<path fill-rule="evenodd" clip-rule="evenodd" d="M158.5 74.5C166.833 74.5 175.167 74.5 183.5 74.5C183.918 77.4389 185.418 79.7722 188 81.5C188.667 87.1667 188.667 92.8333 188 98.5C184.44 92.5513 180.274 87.0513 175.5 82C172.924 80.5437 170.258 79.377 167.5 78.5C165.421 78.0293 163.421 77.3627 161.5 76.5C160.29 76.0679 159.29 75.4013 158.5 74.5Z" fill="#FCF5E7"/>
<path fill-rule="evenodd" clip-rule="evenodd" d="M114.5 67.5001C114.5 69.8334 114.5 72.1668 114.5 74.5001C114.082 77.439 112.582 79.7723 110 81.5001C109.333 86.1668 109.333 90.8334 110 95.5001C113.045 91.2436 116.212 87.0769 119.5 83.0001C121.867 81.1553 124.533 79.9887 127.5 79.5001C126.906 89.8021 124.906 99.8021 121.5 109.5C118.029 113.803 114.029 117.636 109.5 121C104.796 123.094 100.296 122.928 96 120.5C94.4372 115.282 94.1038 109.949 95 104.5C96.4995 97.0027 97.9995 89.5027 99.5 82.0001C99.1331 79.2919 98.4665 76.7919 97.5 74.5001C97.5 72.1668 97.5 69.8334 97.5 67.5001C99.6172 64.0319 102.784 62.6986 107 63.5001C109.167 63.6668 111.333 63.8334 113.5 64.0001C114.337 65.0114 114.67 66.178 114.5 67.5001Z" fill="#F7CA93"/>
<path fill-rule="evenodd" clip-rule="evenodd" d="M161.5 76.5C163.421 77.3627 165.421 78.0293 167.5 78.5C167.387 89.1418 169.72 99.1418 174.5 108.5C174.262 121.503 173.928 134.503 173.5 147.5C172.711 147.783 172.044 148.283 171.5 149C156.528 150.475 141.528 150.809 126.5 150C125.099 149.59 123.766 149.09 122.5 148.5C122.072 135.503 121.738 122.503 121.5 109.5C124.906 99.802 126.906 89.802 127.5 79.5C129.701 78.4336 132.035 77.767 134.5 77.5C136.348 83.1852 140.181 86.5185 146 87.5C152.661 86.0155 157.828 82.3489 161.5 76.5Z" fill="#293933"/>
<path fill-rule="evenodd" clip-rule="evenodd" d="M173.5 147.5C173.91 167.203 173.41 186.87 172 206.5C167.225 215.753 162.725 225.086 158.5 234.5C157.148 239.629 153.648 242.296 148 242.5C143.437 241.433 140.271 238.767 138.5 234.5C134.943 227.725 131.11 221.058 127 214.5C125.803 211.911 124.803 209.244 124 206.5C122.592 187.203 122.092 167.87 122.5 148.5C123.766 149.09 125.099 149.59 126.5 150C141.528 150.809 156.528 150.475 171.5 149C172.044 148.283 172.711 147.783 173.5 147.5Z" fill="#BC6D31"/>
<path fill-rule="evenodd" clip-rule="evenodd" d="M230.5 68.5C231.499 137.331 231.833 206.331 231.5 275.5C228.615 275.806 225.948 275.473 223.5 274.5C223.833 274.5 224.167 274.5 224.5 274.5C226.5 274.5 228.5 274.5 230.5 274.5C230.5 205.833 230.5 137.167 230.5 68.5Z" fill="#A2A6A0"/>
<path fill-rule="evenodd" clip-rule="evenodd" d="M74.5 74.5C74.8333 74.5 75.1667 74.5 75.5 74.5C75.5 141.5 75.5 208.5 75.5 275.5C72.6146 275.806 69.9479 275.473 67.5 274.5C69.8333 274.5 72.1667 274.5 74.5 274.5C74.5 207.833 74.5 141.167 74.5 74.5Z" fill="#9CA099"/>
<path fill-rule="evenodd" clip-rule="evenodd" d="M229.5 68.5C229.833 68.5 230.167 68.5 230.5 68.5C230.5 137.167 230.5 205.833 230.5 274.5C228.5 274.5 226.5 274.5 224.5 274.5C224.333 207.833 224.5 141.166 225 74.5C225.5 140.832 225.667 207.166 225.5 273.5C226.833 273.5 228.167 273.5 229.5 273.5C229.5 205.167 229.5 136.833 229.5 68.5Z" fill="#45514B"/>
<path fill-rule="evenodd" clip-rule="evenodd" d="M68.5 68.4999C77.9856 67.5061 87.6522 67.1728 97.5 67.4999C97.5 69.8332 97.5 72.1666 97.5 74.4999C90.1667 74.4999 82.8333 74.4999 75.5 74.4999C75.1667 74.4999 74.8333 74.4999 74.5 74.4999C73.5008 140.665 73.1675 206.998 73.5 273.5C72.1667 273.5 70.8333 273.5 69.5 273.5C69.8325 204.998 69.4992 136.665 68.5 68.4999Z" fill="#515C56"/>
<path fill-rule="evenodd" clip-rule="evenodd" d="M199.5 67.5001C209.681 67.1727 219.681 67.5061 229.5 68.5001C229.5 136.833 229.5 205.167 229.5 273.5C228.167 273.5 226.833 273.5 225.5 273.5C225.667 207.166 225.5 140.832 225 74.5001C224.5 141.166 224.333 207.833 224.5 274.5C224.167 274.5 223.833 274.5 223.5 274.5C223.5 207.833 223.5 141.167 223.5 74.5001C215.5 74.5001 207.5 74.5001 199.5 74.5001C199.5 72.1668 199.5 69.8334 199.5 67.5001Z" fill="#545F59"/>
<path fill-rule="evenodd" clip-rule="evenodd" d="M146.5 174.5C147.496 174.414 148.329 174.748 149 175.5C149.273 184.017 149.773 192.517 150.5 201C150.385 203.732 149.552 206.232 148 208.5C145.991 205.531 145.158 202.198 145.5 198.5C146.225 190.515 146.558 182.515 146.5 174.5Z" fill="#F8EBDC"/>
<path fill-rule="evenodd" clip-rule="evenodd" d="M68.5 68.5C69.4992 136.665 69.8325 204.998 69.5 273.5C70.8333 273.5 72.1667 273.5 73.5 273.5C73.1675 206.998 73.5008 140.665 74.5 74.5C74.5 141.167 74.5 207.833 74.5 274.5C72.1667 274.5 69.8333 274.5 67.5 274.5C67.1675 205.665 67.5008 136.998 68.5 68.5Z" fill="#4D5852"/>
<path fill-rule="evenodd" clip-rule="evenodd" d="M138.5 234.5C140.271 238.767 143.437 241.433 148 242.5C153.648 242.296 157.148 239.629 158.5 234.5C160.461 236.963 162.628 239.297 165 241.5C165.667 243.5 165.667 245.5 165 247.5C162 254.5 159 261.5 156 268.5C153.592 271.62 150.426 272.953 146.5 272.5C146.723 269.034 145.389 268.034 142.5 269.5C140.971 269.471 139.804 268.804 139 267.5C136.233 260.449 134.733 253.116 134.5 245.5C135.006 241.496 136.34 237.829 138.5 234.5Z" fill="#2B3C35"/>
</g>
<defs>
<clipPath id="clip0_41_337">
<rect width="300" height="300" fill="white"/>
</clipPath>
</defs>
</svg>
