<svg width="300" height="300" viewBox="0 0 300 300" fill="none" xmlns="http://www.w3.org/2000/svg">
<g clip-path="url(#clip0_62_351)">
<path fill-rule="evenodd" clip-rule="evenodd" d="M-0.5 -0.5C99.5 -0.5 199.5 -0.5 299.5 -0.5C299.5 99.5 299.5 199.5 299.5 299.5C199.5 299.5 99.5 299.5 -0.5 299.5C-0.5 199.5 -0.5 99.5 -0.5 -0.5Z" fill="#FEF5E6"/>
<path fill-rule="evenodd" clip-rule="evenodd" d="M140.5 73.5C132.5 73.5 124.5 73.5 116.5 73.5C116.452 77.8131 115.285 81.8131 113 85.5C110.168 79.7995 106.502 79.1328 102 83.5C100.944 87.6237 101.778 91.2904 104.5 94.5C104.145 95.5223 103.478 96.189 102.5 96.5C95.8415 88.7813 93.6748 79.7813 96 69.5C100.198 59.6449 107.698 54.6449 118.5 54.5C125.61 54.7772 132.277 56.6105 138.5 60C142.861 64.0305 143.528 68.5305 140.5 73.5Z" fill="#3D4A41"/>
<path fill-rule="evenodd" clip-rule="evenodd" d="M140.5 73.5C142.34 83.3867 141.506 93.0534 138 102.5C135.817 108.548 131.651 111.548 125.5 111.5C124.455 120.373 119.455 123.873 110.5 122C105.053 119.054 101.719 114.554 100.5 108.5C102.279 104.495 102.946 100.495 102.5 96.5C103.478 96.189 104.145 95.5223 104.5 94.5C101.778 91.2904 100.944 87.6237 102 83.5C106.502 79.1328 110.168 79.7995 113 85.5C115.285 81.8131 116.452 77.8131 116.5 73.5C124.5 73.5 132.5 73.5 140.5 73.5Z" fill="#EAB778"/>
<path fill-rule="evenodd" clip-rule="evenodd" d="M80.5 112.5C86.0796 116.664 88.7462 122.331 88.5 129.5C86.7138 140.475 84.3805 151.308 81.5 162C92.1581 161.739 102.825 161.239 113.5 160.5C114.727 157.418 116.227 154.418 118 151.5C119.5 150 121 148.5 122.5 147C126.696 146.535 130.696 147.202 134.5 149C135.705 150.376 137.038 151.542 138.5 152.5C139.042 158.225 142.042 160.725 147.5 160C145.419 155.982 142.753 152.482 139.5 149.5C140.345 138.857 140.679 128.19 140.5 117.5C147.652 119.166 153.152 123.166 157 129.5C162.942 139.107 169.275 148.44 176 157.5C185.868 177.965 179.702 185.798 157.5 181C151.244 179.526 145.244 177.359 139.5 174.5C138.817 174.863 138.15 175.196 137.5 175.5C135.396 173.901 133.396 172.068 131.5 170C133.848 169.654 135.681 168.487 137 166.5C137.89 162.618 137.39 158.952 135.5 155.5C134.252 157.459 132.585 158.959 130.5 160C131.833 160 133.167 160 134.5 160C135.517 161.049 135.684 162.216 135 163.5C133.446 166.102 131.28 167.269 128.5 167C127.788 165.575 127.621 164.075 128 162.5C124.614 165.701 123.281 165.035 124 160.5C126.216 156.973 129.383 154.806 133.5 154C129.227 153.716 125.561 155.216 122.5 158.5C122.167 158 121.833 157.5 121.5 157C124.357 150.523 123.69 150.023 119.5 155.5C120.774 158.367 121.607 161.367 122 164.5C124.897 165.798 127.397 167.631 129.5 170C128.456 171.174 127.456 172.341 126.5 173.5C122.548 174.196 118.548 174.696 114.5 175C102.255 179.307 89.9219 182.807 77.5 185.5C71.8948 186.092 66.5614 185.259 61.5 183C60.4131 180.433 59.4131 177.933 58.5 175.5C57.7554 158.947 59.2554 142.613 63 126.5C66.641 119.019 72.4743 114.353 80.5 112.5Z" fill="#EAB778"/>
<path fill-rule="evenodd" clip-rule="evenodd" d="M100.5 108.5C101.719 114.554 105.053 119.054 110.5 122C119.455 123.873 124.455 120.373 125.5 111.5C131.182 111.946 136.182 113.946 140.5 117.5C140.679 128.19 140.345 138.857 139.5 149.5C138.89 150.391 138.557 151.391 138.5 152.5C137.038 151.542 135.705 150.376 134.5 149C130.696 147.202 126.696 146.535 122.5 147C121 148.5 119.5 150 118 151.5C116.227 154.418 114.727 157.418 113.5 160.5C102.825 161.239 92.1581 161.739 81.5 162C84.3805 151.308 86.7138 140.475 88.5 129.5C88.7462 122.331 86.0796 116.664 80.5 112.5C86.7264 109.616 93.3931 108.283 100.5 108.5Z" fill="#3D4B41"/>
<path fill-rule="evenodd" clip-rule="evenodd" d="M139.5 149.5C142.753 152.482 145.419 155.982 147.5 160C142.042 160.725 139.042 158.225 138.5 152.5C138.557 151.391 138.89 150.391 139.5 149.5Z" fill="#F9F4E8"/>
<path fill-rule="evenodd" clip-rule="evenodd" d="M137.5 175.5C134.43 175.632 131.43 175.299 128.5 174.5C128.158 173.662 127.492 173.328 126.5 173.5C127.456 172.341 128.456 171.174 129.5 170C127.397 167.631 124.897 165.798 122 164.5C121.607 161.367 120.774 158.367 119.5 155.5C123.69 150.023 124.357 150.523 121.5 157C121.833 157.5 122.167 158 122.5 158.5C125.561 155.216 129.227 153.716 133.5 154C129.383 154.806 126.216 156.973 124 160.5C123.281 165.035 124.614 165.701 128 162.5C127.621 164.075 127.788 165.575 128.5 167C131.28 167.269 133.446 166.102 135 163.5C135.684 162.216 135.517 161.049 134.5 160C133.167 160 131.833 160 130.5 160C132.585 158.959 134.252 157.459 135.5 155.5C137.39 158.952 137.89 162.618 137 166.5C135.681 168.487 133.848 169.654 131.5 170C133.396 172.068 135.396 173.901 137.5 175.5Z" fill="#CF9D64"/>
<path fill-rule="evenodd" clip-rule="evenodd" d="M58.5 175.5C59.4131 177.933 60.4131 180.433 61.5 183C66.5614 185.259 71.8948 186.092 77.5 185.5C81.5214 188.522 84.8547 192.189 87.5 196.5C99.5093 199.898 110.509 197.898 120.5 190.5C141.808 197.989 162.808 206.156 183.5 215C200.441 220.814 217.441 226.314 234.5 231.5C234.767 237.978 234.1 244.311 232.5 250.5C226.839 250.093 221.172 249.76 215.5 249.5C198.416 247.717 182.083 243.217 166.5 236C143.356 234.065 120.356 231.065 97.5 227C91.5092 226.501 85.5092 226.334 79.5 226.5C79.5 230.5 79.5 234.5 79.5 238.5C74.112 240.879 68.4454 241.879 62.5 241.5C57.4253 233.022 52.5919 224.355 48 215.5C44.6703 208.68 42.5036 201.514 41.5 194C42.8206 183.846 48.4872 177.679 58.5 175.5Z" fill="#B76723"/>
<path d="M80 226.5C75.6 214.5 75.5 209.833 76 209L81 219L80 226.5Z" fill="#8E511D"/>
<path fill-rule="evenodd" clip-rule="evenodd" d="M126.5 173.5C127.492 173.328 128.158 173.662 128.5 174.5C126.885 180.396 124.219 185.729 120.5 190.5C110.509 197.898 99.5093 199.898 87.5 196.5C84.8547 192.189 81.5214 188.522 77.5 185.5C89.9219 182.807 102.255 179.307 114.5 175C118.548 174.696 122.548 174.196 126.5 173.5Z" fill="#3E4B40"/>
<path fill-rule="evenodd" clip-rule="evenodd" d="M261.5 255.5C259.251 259.252 255.918 260.419 251.5 259C246.251 257.882 241.918 255.382 238.5 251.5C241.905 249.192 243.238 245.859 242.5 241.5C242.916 237.668 241.916 234.335 239.5 231.5C244.123 228.711 247.956 225.045 251 220.5C253.643 213.261 255.976 205.928 258 198.5C259.494 197.253 260.994 197.253 262.5 198.5C265.787 203.474 267.453 208.974 267.5 215C265.453 228.498 263.453 241.998 261.5 255.5Z" fill="#3D4B41"/>
<path fill-rule="evenodd" clip-rule="evenodd" d="M234.5 231.5C236.167 231.5 237.833 231.5 239.5 231.5C241.916 234.335 242.916 237.668 242.5 241.5C243.238 245.859 241.905 249.192 238.5 251.5C236.5 251.167 234.5 250.833 232.5 250.5C234.1 244.311 234.767 237.978 234.5 231.5Z" fill="#E9B677"/>
<path fill-rule="evenodd" clip-rule="evenodd" d="M79.5 238.5C80.9901 242.942 81.9901 247.609 82.5 252.5C82.7852 254.288 82.4519 255.955 81.5 257.5C75.8333 259.557 70.1666 261.223 64.5 262.5C59.6303 262.968 54.9636 262.302 50.5 260.5C49.4471 259.562 48.7804 258.395 48.5 257C53.6957 252.305 58.3624 247.138 62.5 241.5C68.4454 241.879 74.112 240.879 79.5 238.5Z" fill="#3F4C42"/>
<path fill-rule="evenodd" clip-rule="evenodd" d="M215.5 249.5C221.172 249.76 226.839 250.093 232.5 250.5C234.5 250.833 236.5 251.167 238.5 251.5C241.918 255.382 246.251 257.882 251.5 259C255.918 260.419 259.251 259.252 261.5 255.5C263.953 256.217 266.287 257.384 268.5 259C257.403 262.062 246.07 263.728 234.5 264C186.842 265.482 139.176 265.815 91.5 265C82.4108 264.829 73.4108 263.996 64.5 262.5C70.1666 261.223 75.8333 259.557 81.5 257.5C82.4519 255.955 82.7852 254.288 82.5 252.5C126.175 251.244 169.842 251.244 213.5 252.5C217.424 252.299 217.424 251.799 213.5 251C214.416 250.722 215.082 250.222 215.5 249.5Z" fill="#F4EEDC"/>
</g>
<defs>
<clipPath id="clip0_62_351">
<rect width="300" height="300" fill="white"/>
</clipPath>
</defs>
</svg>
