<svg width="300" height="300" viewBox="0 0 300 300" fill="none" xmlns="http://www.w3.org/2000/svg">
<g clip-path="url(#clip0_62_380)">
<path fill-rule="evenodd" clip-rule="evenodd" d="M-0.5 -0.5C99.5 -0.5 199.5 -0.5 299.5 -0.5C299.5 99.5 299.5 199.5 299.5 299.5C199.5 299.5 99.5 299.5 -0.5 299.5C-0.5 199.5 -0.5 99.5 -0.5 -0.5Z" fill="#FEF5E6"/>
<path fill-rule="evenodd" clip-rule="evenodd" d="M130.872 266.143C107.12 266.143 87.3301 266.143 72.0559 266.143C64.5401 265.787 57.1881 267.171 50 270.296C52.6719 272.11 55.473 273.218 58.4022 273.618C78.5235 275.929 98.4788 276.759 118.268 276.11C139.879 275.567 155.831 274.46 177.282 276.11C190.775 270.296 221.997 273.692 236.95 271.957C237.3 271.404 237.65 270.849 238 270.296C234.579 268.563 231.079 267.733 227.497 267.804C195.303 266.262 163.094 265.709 130.872 266.143Z" fill="#EFE3D5"/>
<path fill-rule="evenodd" clip-rule="evenodd" d="M170.5 62.5001C164.894 63.407 159.227 63.7403 153.5 63.5001C152.154 69.0249 149.321 73.6916 145 77.5C141.77 71.1073 137.437 70.1073 132 74.5C130.54 79.6404 131.707 83.9736 135.5 87.5C133.098 91.0352 129.764 93.0352 125.5 93.5C122.071 88.9798 119.405 83.9798 117.5 78.5C116.671 73.5471 116.337 68.5471 116.5 63.5001C120.945 49.3991 130.612 42.0657 145.5 41.5001C153.058 41.3759 160.058 43.2092 166.5 47.0001C172.575 51.1101 173.908 56.2768 170.5 62.5001Z" fill="#364B3F"/>
<path fill-rule="evenodd" clip-rule="evenodd" d="M116.5 63.5C116.337 68.547 116.671 73.547 117.5 78.5C116.191 76.4294 115.525 73.9294 115.5 71C115.503 68.3097 115.836 65.8097 116.5 63.5Z" fill="#CDD0CB"/>
<path fill-rule="evenodd" clip-rule="evenodd" d="M170.5 62.5C171.137 69.7438 172.803 76.7438 175.5 83.5C175.338 87.3262 173.338 88.9928 169.5 88.5C169.791 95.1274 167.791 100.961 163.5 106C158.628 107.388 153.628 107.888 148.5 107.5C148.139 111.911 147.639 116.244 147 120.5C157.443 129.616 168.443 137.949 180 145.5C183.221 144.284 185.888 142.284 188 139.5C191.333 134.833 194.667 130.167 198 125.5C198.667 124.5 198.667 123.5 198 122.5C195.215 118.762 193.382 114.596 192.5 110C192.748 106.918 194.415 105.418 197.5 105.5C197.872 101.957 199.872 99.79 203.5 99C207.956 98.1327 212.289 98.4661 216.5 100C218.768 101.558 219.934 103.724 220 106.5C220.789 112.237 220.456 117.903 219 123.5C213.059 138.714 206.059 153.381 198 167.5C195.677 170.578 192.843 173.078 189.5 175C185.643 175.758 181.977 175.258 178.5 173.5C177.91 161.743 171.744 155.41 160 154.5C155.051 155.114 150.217 156.114 145.5 157.5C140.053 154.56 134.72 151.393 129.5 148C114.563 149.063 107.729 142.23 109 127.5C114.343 116.248 123.176 112.081 135.5 115C138.196 115.765 140.696 116.932 143 118.5C138.325 111.673 132.158 106.34 124.5 102.5C124.704 99.4824 125.037 96.4824 125.5 93.5C129.764 93.0352 133.098 91.0352 135.5 87.5C131.707 83.9736 130.54 79.6403 132 74.5C137.437 70.1073 141.77 71.1073 145 77.5C149.321 73.6915 152.154 69.0248 153.5 63.5C159.227 63.7402 164.894 63.4069 170.5 62.5Z" fill="#EBB76F"/>
<path fill-rule="evenodd" clip-rule="evenodd" d="M178.5 173.5C178.849 179.345 178.016 185.012 176 190.5C170.029 208.076 162.696 225.076 154 241.5C152.275 242.464 150.441 243.131 148.5 243.5C140.892 243.098 133.558 241.432 126.5 238.5C125.893 238.624 125.56 238.957 125.5 239.5C116.323 253.626 103.323 259.126 86.5 256C73.9528 251.453 66.4528 242.619 64 229.5C63.5005 223.509 63.3338 217.509 63.5 211.5C74.1268 209.792 84.4602 206.959 94.5 203C109.211 185.115 126.211 169.948 145.5 157.5C150.217 156.114 155.051 155.114 160 154.5C171.744 155.41 177.91 161.743 178.5 173.5Z" fill="#B76821"/>
<path fill-rule="evenodd" clip-rule="evenodd" d="M124.5 102.5C132.158 106.34 138.325 111.673 143 118.5C140.696 116.932 138.196 115.765 135.5 115C123.176 112.081 114.343 116.248 109 127.5C107.729 142.23 114.563 149.063 129.5 148C134.72 151.393 140.053 154.56 145.5 157.5C126.211 169.948 109.211 185.115 94.5 203C84.4602 206.959 74.1268 209.792 63.5 211.5C63.3005 187.927 69.1339 165.927 81 145.5C89.6451 129.86 100.812 116.36 114.5 105C117.608 103.241 120.941 102.408 124.5 102.5Z" fill="#364B3E"/>
<path fill-rule="evenodd" clip-rule="evenodd" d="M125.5 239.5C125.56 238.957 125.893 238.624 126.5 238.5C133.558 241.432 140.892 243.098 148.5 243.5C148.5 243.833 148.5 244.167 148.5 244.5C144.909 247.806 140.575 249.139 135.5 248.5C131.347 248.957 127.68 247.957 124.5 245.5C124.877 243.742 125.544 242.075 126.5 240.5C126.376 239.893 126.043 239.56 125.5 239.5Z" fill="#EAB670"/>
<path fill-rule="evenodd" clip-rule="evenodd" d="M148.5 244.5C156.761 251.226 166.094 256.06 176.5 259C182.008 261.155 182.675 264.155 178.5 268C176.608 268.973 174.608 269.64 172.5 270C155.075 270.971 137.742 270.638 120.5 269C118.477 265.817 117.977 262.317 119 258.5C120.334 253.846 122.167 249.513 124.5 245.5C127.68 247.957 131.347 248.957 135.5 248.5C140.575 249.139 144.909 247.806 148.5 244.5Z" fill="#364B3F"/>
</g>
<defs>
<clipPath id="clip0_62_380">
<rect width="300" height="300" fill="white"/>
</clipPath>
</defs>
</svg>
