<svg width="300" height="300" viewBox="0 0 300 300" fill="none" xmlns="http://www.w3.org/2000/svg">
<g clip-path="url(#clip0_63_521)">
<path fill-rule="evenodd" clip-rule="evenodd" d="M-0.5 -0.5C99.5 -0.5 199.5 -0.5 299.5 -0.5C299.5 99.5 299.5 199.5 299.5 299.5C199.5 299.5 99.5 299.5 -0.5 299.5C-0.5 199.5 -0.5 99.5 -0.5 -0.5Z" fill="#FEF5E6"/>
<path fill-rule="evenodd" clip-rule="evenodd" d="M127.626 228.052C100.715 228.052 78.2943 228.052 60.9888 228.052C52.4736 227.65 44.144 229.217 36 232.758C39.0272 234.813 42.2008 236.068 45.5195 236.522C68.3165 239.14 90.9254 240.081 113.346 239.345C137.831 238.73 155.905 237.476 180.208 239.345C195.495 232.758 230.869 236.605 247.81 234.64C248.207 234.013 248.603 233.384 249 232.758C245.125 230.795 241.158 229.854 237.101 229.935C200.625 228.188 164.133 227.561 127.626 228.052Z" fill="#EFE3D5"/>
<path fill-rule="evenodd" clip-rule="evenodd" d="M158.5 188C149.436 184.735 160.328 182.543 146.905 182.543C131.417 187.987 116.153 193.923 101.112 200.351C88.7981 204.577 76.4413 208.575 64.0416 212.345C63.8475 217.053 64.3323 221.657 65.4953 226.155C69.6102 225.859 73.7293 225.617 77.8522 225.428C90.2701 224.132 102.142 220.861 113.469 215.616C130.292 214.209 136.887 206.455 153.5 203.5C160.769 194.778 164.436 195.235 158.5 188Z" fill="#9D5B23"/>
<path fill-rule="evenodd" clip-rule="evenodd" d="M160.572 148.323C167.792 151.207 169.77 151.397 178.452 152.231C182.532 152.948 186.011 154.743 188.888 157.614C188.275 165.361 170.682 185.962 166.412 191.073C162.969 195.192 159.016 203.614 148.78 205.458C141 204 145.823 189 136.249 194.711C139.076 187.175 131.469 186.873 133.524 179.056C134.2 173.886 143.983 153.303 145.823 149.828C150.529 148.174 155.445 147.673 160.572 148.323Z" fill="#3D4B41"/>
<path fill-rule="evenodd" clip-rule="evenodd" d="M141.533 217.543C142.616 220.772 143.343 224.164 143.714 227.719C143.921 229.019 143.679 230.231 142.987 231.354C140.5 234.043 141 234.543 138 236.043C134 238.043 128.5 234.043 127 232.043C127 229.543 126.169 223.822 129.176 219.724C133.498 219.999 137.617 219.272 141.533 217.543Z" fill="#3F4C42"/>
<path fill-rule="evenodd" clip-rule="evenodd" d="M196.71 150.758C202.773 152.159 208.903 153.198 215.099 153.876C225.06 154.632 235.021 155.388 244.982 156.143C255.686 155.584 266.413 155.395 277.163 155.577C277.644 156.15 277.835 156.811 277.737 157.561C274.673 158.184 271.608 158.846 268.543 159.545C266.204 161.281 263.714 162.793 261.072 164.08C258.475 164.42 255.889 164.325 253.314 163.797C234.734 166.502 216.057 167.825 197.285 167.765C195.272 167.308 193.165 166.93 190.963 166.631C188.7 167.785 186.305 168.541 183.78 168.899C177.559 167.597 175.069 163.818 176.309 157.561C177.569 153.765 180.155 151.498 184.067 150.758C188.847 149.854 191.897 149.646 196.71 150.758Z" fill="#F8C18B"/>
<path fill-rule="evenodd" clip-rule="evenodd" d="M129.052 148.758C122.989 150.159 116.859 151.198 110.663 151.876C100.702 152.632 90.7411 153.388 80.7805 154.143C70.0763 153.584 59.3491 153.395 48.5994 153.577C48.1184 154.15 47.9271 154.811 48.0248 155.561C51.0895 156.184 54.1541 156.846 57.2194 157.545C59.5577 159.281 62.0477 160.793 64.69 162.08C67.2875 162.42 69.8734 162.325 72.4479 161.797C91.0285 164.502 109.705 165.825 128.477 165.765C130.49 165.308 132.597 164.93 134.799 164.631C137.062 165.785 139.457 166.541 141.982 166.899C148.203 165.597 150.693 161.818 149.453 155.561C148.194 151.765 145.608 149.498 141.695 148.758C136.915 147.854 133.866 147.646 129.052 148.758Z" fill="#F8C18B"/>
<path fill-rule="evenodd" clip-rule="evenodd" d="M126.357 174.543C131 175.543 132.5 174.543 135.5 177.043C138.5 179.543 138.5 181.043 140.167 181.812C144.5 190.543 140.167 196.543 141.621 211.614C141.621 214.521 141.621 217.429 141.621 220.336C137.705 222.065 133.586 222.792 129.264 222.517C125.576 216.354 126.338 207.936 123 201.5C120.58 196.543 114.729 193.452 114 187.99C114.96 180.61 119.079 176.127 126.357 174.543Z" fill="#B76723"/>
<path fill-rule="evenodd" clip-rule="evenodd" d="M103.831 190.164C104.861 186.943 104.244 185.812 106.241 183.857C108.239 181.902 108.948 180.837 112.067 179.25C118.392 176.032 129 173.543 123.45 176.264C121.566 177.187 135.666 182.273 137.754 182.471C138.733 185.364 138.979 188.331 138.49 191.374C133.815 193.568 129.053 195.627 124.205 197.553C120.481 198.93 116.633 199.691 112.66 199.836C107.423 198.652 104.479 195.429 103.831 190.164Z" fill="#B76723"/>
<path fill-rule="evenodd" clip-rule="evenodd" d="M144.205 133.107C149.185 131.825 154.165 130.542 159.146 129.26C159.867 131.937 161.235 134.24 163.249 136.169C164.098 132.166 166.273 131.163 169.776 133.16C171.094 135.558 171.163 137.975 169.983 140.409C170.368 140.989 170.89 141.297 171.549 141.334C174.457 135.461 174.363 129.511 171.267 123.483C167.073 118.021 161.603 116.11 154.855 117.752C150.473 119.064 146.616 121.275 143.285 124.382C141.217 127.591 141.523 130.499 144.205 133.107Z" fill="#3D4A41"/>
<path fill-rule="evenodd" clip-rule="evenodd" d="M144.205 133.107C144.644 139.557 146.713 145.441 150.41 150.76C152.739 154.175 155.813 155.375 159.635 154.359C161.708 159.715 165.382 161.092 170.657 158.491C173.575 155.783 174.712 153.964 174.5 150C172.75 147.792 171.912 143.892 171.549 141.333C170.89 141.296 170.368 140.988 169.983 140.409C171.163 137.974 171.094 135.558 169.776 133.16C166.273 131.163 164.098 132.166 163.248 136.168C161.235 134.24 159.867 131.936 159.146 129.259C154.165 130.542 149.185 131.824 144.205 133.107Z" fill="#F8C18B"/>
<path fill-rule="evenodd" clip-rule="evenodd" d="M66.5982 225.939C63.3449 226.946 59.9364 227.593 56.3736 227.88C55.0694 228.056 53.8638 227.786 52.7573 227.068C51.3594 222.915 50.2455 218.768 49.4144 214.629C49.1575 211.082 49.7212 207.702 51.1069 204.49C51.8065 203.741 52.6659 203.276 53.6844 203.096C57.0073 206.952 60.6823 210.431 64.7086 213.534C64.3317 217.848 64.9615 221.983 66.5982 225.939Z" fill="#3F4C42"/>
<path d="M121.5 199C124.036 190.771 123.67 187.571 123.382 187L120 198.5L121.5 199Z" fill="#8E511D"/>
</g>
<defs>
<clipPath id="clip0_63_521">
<rect width="300" height="300" fill="white"/>
</clipPath>
</defs>
</svg>
