<svg width="300" height="300" viewBox="0 0 300 300" fill="none" xmlns="http://www.w3.org/2000/svg">
<g clip-path="url(#clip0_64_55)">
<path fill-rule="evenodd" clip-rule="evenodd" d="M0 -1C100 -1 200 -1 300 -1C300 99 300 199 300 299C200 299 100 299 0 299C0 199 0 99 0 -1Z" fill="#FEF5E8"/>
<rect x="113" y="72" width="63" height="8" fill="#4C5D4F"/>
<rect x="113" y="249" width="177" height="8.00001" transform="rotate(-90 113 249)" fill="#4C5D4F"/>
<path fill-rule="evenodd" clip-rule="evenodd" d="M69.8378 128.961C67.2889 130.342 65.3117 132.299 63.9066 134.832C65.326 137.367 66.2565 140.047 66.6982 142.872C63.7141 143.948 60.884 145.229 58.2085 146.716C58.2105 148.17 58.713 149.422 59.7168 150.473C65.1359 153.43 66.3689 157.588 63.4161 162.947C54.7903 161.265 48.7704 156.412 45.356 148.386C42.8071 141.871 43.9522 136.031 48.7917 130.867C51.1143 128.19 53.9937 126.307 57.4295 125.218C60.3919 123.846 63.4732 123.191 66.6733 123.251C69.1042 124.378 70.1591 126.281 69.8378 128.961Z" fill="#2A3D34"/>
<path fill-rule="evenodd" clip-rule="evenodd" d="M69.8378 128.961C73.9512 132.123 77.9147 135.476 81.728 139.019C81.8769 140.189 81.5525 141.192 80.7545 142.027C82.0124 145.884 83.2701 149.741 84.5279 153.599C82.374 155.544 79.9454 157.101 77.242 158.269C77.6441 159.27 78.0465 160.273 78.4486 161.274C74.8143 163.961 72.1121 167.372 70.3429 171.508C68.8227 168.001 66.5139 165.148 63.4161 162.947C66.3689 157.588 65.1358 153.43 59.7168 150.473C58.713 149.422 58.2104 148.17 58.2085 146.716C60.884 145.229 63.7141 143.948 66.6982 142.872C66.2565 140.047 65.326 137.367 63.9066 134.832C65.3117 132.299 67.2889 130.342 69.8378 128.961Z" fill="#F1BF82"/>
<path fill-rule="evenodd" clip-rule="evenodd" d="M77.6543 159.355C82.2741 157.06 89.1717 155.316 91.3482 155.193C92.9786 155.1 103.039 158.221 117.078 161.494C125.476 162.684 133.922 162.909 142.415 162.17C143.684 164.571 144.703 167.073 145.474 169.677C146.813 177.933 148.405 186.126 150.252 194.254C149.837 194.547 149.584 194.962 149.494 195.501C127.648 197.82 106.338 195.56 85.5634 188.724C77.6926 184.704 72.5465 178.469 70.1254 170.02C71.6637 165.792 74.1736 162.238 77.6543 159.355Z" fill="#293C32"/>
<path fill-rule="evenodd" clip-rule="evenodd" d="M153.081 72.2892C153.111 72.5574 153.14 72.8258 153.17 73.094C151.937 74.7731 151.338 76.7395 151.375 78.9931C149.301 82.3422 146.779 85.3347 143.81 87.9706C131.955 112.399 120.111 136.78 108.28 161.114C107.008 161.941 106.187 163.117 105.817 164.643C106.911 172.429 103.628 177.134 95.9671 178.759C86.1518 178.225 81.5081 173.034 82.036 163.187C83.0167 160.193 84.6289 157.572 86.8727 155.324C90.4692 150.996 90.5134 151.398 94.6629 144.693C109.467 124.086 123.006 102.777 135.28 80.7638C136.336 78.5106 137.441 76.2169 138.595 73.8829C139.455 70.1807 141.856 68.5591 145.798 69.0178C147.557 68.9601 149.315 68.9025 151.073 68.8448C152.409 69.6017 153.077 70.7499 153.081 72.2892Z" fill="#EBBC7C"/>
<path fill-rule="evenodd" clip-rule="evenodd" d="M217.121 172.789C219 174.127 220.393 175.82 221.299 177.868C218.178 182.993 215.178 183.993 209.678 183.993C210.333 187.072 220.565 188.679 225.178 188.494C234.178 187.494 232.178 187.993 241.678 187.993C246.374 185.968 248.123 184.899 249.178 179.993C247.677 177.657 247.136 174.72 245.107 173.002C235.643 174.127 226.314 174.056 217.121 172.789Z" fill="#101615"/>
<path fill-rule="evenodd" clip-rule="evenodd" d="M208.692 185.358C208.94 185.58 209.189 185.803 209.437 186.025C214.978 186.967 218.985 184.737 221.459 179.336C220.553 177.287 219.16 175.595 217.281 174.257C216.453 174.852 216.156 175.364 215.948 175.748C214.023 179.298 211.605 182.501 208.692 185.358Z" fill="#F2C394"/>
<path fill-rule="evenodd" clip-rule="evenodd" d="M216.943 174.796C218.822 176.134 220.215 177.827 221.12 179.875C218 185 215 186 209.5 186C210.155 189.079 220.386 190.686 225 190.5C234 189.5 232 190 241.5 190C246.196 187.975 247.944 186.906 249 182C247.499 179.664 246.958 176.727 244.928 175.009C235.464 176.134 226.135 176.063 216.943 174.796Z" fill="#24312E"/>
<path fill-rule="evenodd" clip-rule="evenodd" d="M221.633 172.34C219.017 178.503 214.381 181.705 207.725 181.947C195.983 177.622 196.983 177.122 186.483 176.122C175.483 176.122 181.483 176.122 172.483 178.622C165.187 188.776 157.983 192.122 148.983 190.622C143.232 187.146 140.983 181.947 139.483 175.121C139.483 166.404 138 169.5 142 163.5C144.216 161.448 164.483 159.122 168.483 155.77C174.983 153.122 182.5 152 187 152C189.5 152 193.983 153.696 197.983 155.77C203.483 158.622 210.483 162.622 221.633 172.34Z" fill="#AE5815"/>
<path fill-rule="evenodd" clip-rule="evenodd" d="M221.65 176.218C219.035 182.381 214.398 185.584 207.742 185.825C196 181.5 197 181 186.5 180C181.5 180.5 177 181.5 172.5 182.5C165.204 192.654 158 196.001 149 194.501C143.249 191.025 141 185.825 139.5 179C139.5 170.282 138 168.501 142 162.501C144.216 160.449 164.5 163 168.5 159.649C175 157 182 157 186.5 157C189 157 194 157.575 198 159.649C203.5 162.5 210.5 166.5 221.65 176.218Z" fill="#C56820"/>
<rect x="168" y="249" width="177" height="8.00001" transform="rotate(-90 168 249)" fill="#4C5D4F"/>
</g>
<defs>
<clipPath id="clip0_64_55">
<rect width="300" height="300" fill="white"/>
</clipPath>
</defs>
</svg>
