<svg width="300" height="300" viewBox="0 0 300 300" fill="none" xmlns="http://www.w3.org/2000/svg">
<g clip-path="url(#clip0_42_8422)">
<path fill-rule="evenodd" clip-rule="evenodd" d="M-0.5 -0.5C99.5 -0.5 199.5 -0.5 299.5 -0.5C299.5 99.5 299.5 199.5 299.5 299.5C199.5 299.5 99.5 299.5 -0.5 299.5C-0.5 199.5 -0.5 99.5 -0.5 -0.5Z" fill="#FEF7E8"/>
<path fill-rule="evenodd" clip-rule="evenodd" d="M99.5 34.4999C99.9926 36.8055 100.326 39.1389 100.5 41.4999C91.8333 41.4999 83.1667 41.4999 74.5 41.4999C74.8326 119.668 74.4993 197.668 73.5 275.5C73.6667 201.833 73.5 128.166 73 54.4999C72.8029 59.0854 72.3029 63.5854 71.5 67.9999C72.253 80.7598 72.4196 93.9265 72 107.5C71.0853 106.672 70.4186 105.672 70 104.5C69.5 161.499 69.3333 218.499 69.5 275.5C68.1667 236.006 67.5001 196.172 67.5 156C67.6667 116.167 67.8333 76.3332 68 36.4999C68.5 35.9999 69 35.4999 69.5 34.9999C79.4944 34.5001 89.4944 34.3334 99.5 34.4999Z" fill="#48554D"/>
<path fill-rule="evenodd" clip-rule="evenodd" d="M117.5 41.5C138.833 41.5 160.167 41.5 181.5 41.5C182.282 45.0619 183.615 48.3953 185.5 51.5C183.559 60.8116 181.726 70.1449 180 79.5C176.509 88.1615 172.342 96.4948 167.5 104.5C166.311 105.429 164.978 105.762 163.5 105.5C163.167 105.5 162.833 105.5 162.5 105.5C162.264 102.391 162.597 99.3915 163.5 96.5C169.797 90.5735 173.463 83.2401 174.5 74.5C172.76 62.4401 165.76 57.1068 153.5 58.5C146.544 57.4291 140.711 59.4291 136 64.5C135.297 66.9291 135.463 69.2625 136.5 71.5C133.66 80.591 132.826 89.9243 134 99.5C135.318 102.941 137.818 104.275 141.5 103.5C141.5 104.5 141.5 105.5 141.5 106.5C139.167 106.5 136.833 106.5 134.5 106.5C129.773 100.064 125.273 93.3969 121 86.5C117.48 75.5673 114.98 64.4006 113.5 53C114.461 48.9387 115.794 45.1054 117.5 41.5Z" fill="#FDF6E7"/>
<path fill-rule="evenodd" clip-rule="evenodd" d="M198.5 34.5C198.5 36.8333 198.5 39.1667 198.5 41.5C197.467 44.986 196.633 48.6526 196 52.5C195.666 62.5235 194.999 72.5235 194 82.5C187.991 99.6936 182.491 117.027 177.5 134.5C176.5 134.5 175.5 134.5 174.5 134.5C172.983 134.489 171.816 133.823 171 132.5C166.158 124.448 164.658 115.781 166.5 106.5C165.209 106.737 164.209 106.404 163.5 105.5C164.978 105.762 166.311 105.429 167.5 104.5C172.342 96.4948 176.509 88.1615 180 79.5C181.726 70.1449 183.559 60.8116 185.5 51.5C183.615 48.3953 182.282 45.0619 181.5 41.5C182.933 39.4418 183.6 37.1085 183.5 34.5C184.267 33.828 184.934 32.9947 185.5 32C189.5 31.3333 193.5 31.3333 197.5 32C198.252 32.6708 198.586 33.5041 198.5 34.5Z" fill="#F2C585"/>
<path fill-rule="evenodd" clip-rule="evenodd" d="M115.5 34.5C115.4 37.1085 116.067 39.4418 117.5 41.5C115.794 45.1054 114.461 48.9387 113.5 53C114.98 64.4006 117.48 75.5673 121 86.5C125.273 93.3969 129.773 100.064 134.5 106.5C130.903 113.679 127.903 121.012 125.5 128.5C117.952 115.402 111.452 101.735 106 87.5C104.012 72.1454 102.178 56.8121 100.5 41.5C100.326 39.139 99.9926 36.8056 99.5 34.5C99.9528 33.5416 100.619 32.7083 101.5 32C105.5 31.3333 109.5 31.3333 113.5 32C114.066 32.9947 114.733 33.828 115.5 34.5Z" fill="#F2C585"/>
<path fill-rule="evenodd" clip-rule="evenodd" d="M163.5 96.4998C161.769 93.3722 162.602 91.0389 166 89.4998C166.667 87.1665 166.667 84.8331 166 82.4998C165.107 81.9184 164.107 81.585 163 81.4998C160.883 82.1579 159.05 82.9913 157.5 83.9998C156.667 83.1665 155.833 82.3331 155 81.4998C154.502 78.5182 154.335 75.5182 154.5 72.4998C148.409 72.7884 142.409 72.4551 136.5 71.4998C135.463 69.2623 135.297 66.9289 136 64.4998C140.711 59.4289 146.544 57.4289 153.5 58.4998C165.76 57.1066 172.76 62.4399 174.5 74.4998C173.463 83.2399 169.797 90.5733 163.5 96.4998Z" fill="#2A3C31"/>
<path fill-rule="evenodd" clip-rule="evenodd" d="M136.5 71.5C142.409 72.4553 148.409 72.7886 154.5 72.5C154.335 75.5184 154.502 78.5184 155 81.5C155.833 82.3333 156.667 83.1667 157.5 84C159.05 82.9915 160.883 82.1581 163 81.5C164.107 81.5852 165.107 81.9186 166 82.5C166.667 84.8333 166.667 87.1667 166 89.5C162.602 91.0391 161.769 93.3724 163.5 96.5C162.597 99.3915 162.264 102.391 162.5 105.5C158.83 112.354 153.163 115.521 145.5 115C142.156 113.106 140.822 110.273 141.5 106.5C141.5 105.5 141.5 104.5 141.5 103.5C137.818 104.275 135.318 102.941 134 99.5C132.826 89.9243 133.66 80.591 136.5 71.5Z" fill="#F2C585"/>
<path fill-rule="evenodd" clip-rule="evenodd" d="M162.5 105.5C162.833 105.5 163.167 105.5 163.5 105.5C164.209 106.404 165.209 106.737 166.5 106.5C164.658 115.781 166.158 124.448 171 132.5C171.816 133.823 172.983 134.489 174.5 134.5C176.298 137.831 176.964 141.498 176.5 145.5C176.666 155.839 176.5 166.172 176 176.5C175.283 177.044 174.783 177.711 174.5 178.5C171.272 178.701 168.105 178.367 165 177.5C158.406 169.903 150.906 163.403 142.5 158C136.361 155.345 130.861 156.178 126 160.5C125.601 160.272 125.435 159.938 125.5 159.5C125.5 149.167 125.5 138.833 125.5 128.5C127.903 121.012 130.903 113.679 134.5 106.5C136.833 106.5 139.167 106.5 141.5 106.5C140.822 110.273 142.156 113.106 145.5 115C153.163 115.521 158.83 112.354 162.5 105.5Z" fill="#27392E"/>
<path fill-rule="evenodd" clip-rule="evenodd" d="M174.5 134.5C175.5 134.5 176.5 134.5 177.5 134.5C177.815 138.371 177.482 142.038 176.5 145.5C176.964 141.498 176.298 137.831 174.5 134.5Z" fill="#797F73"/>
<path fill-rule="evenodd" clip-rule="evenodd" d="M125.5 159.5C125.435 159.938 125.601 160.272 126 160.5C130.861 156.178 136.361 155.345 142.5 158C150.906 163.403 158.406 169.903 165 177.5C168.105 178.367 171.272 178.701 174.5 178.5C178.299 199.365 169.632 209.365 148.5 208.5C148.5 212.167 148.5 215.833 148.5 219.5C143.43 221.766 138.097 222.766 132.5 222.5C130.369 217.776 128.869 212.776 128 207.5C127.612 210.849 127.779 214.183 128.5 217.5C123.654 220.669 118.321 222.002 112.5 221.5C111.883 221.389 111.383 221.056 111 220.5C105.434 202.192 102.1 183.525 101 164.5C103.676 157.079 108.842 154.246 116.5 156C119.521 157.18 122.521 158.346 125.5 159.5Z" fill="#BE6D2C"/>
<path fill-rule="evenodd" clip-rule="evenodd" d="M198.5 34.4999C208.839 34.3334 219.172 34.5001 229.5 34.9999C230 35.4999 230.5 35.9999 231 36.4999C231.5 116.166 231.667 195.833 231.5 275.5C228.833 275.5 226.167 275.5 223.5 275.5C223.5 197.5 223.5 119.5 223.5 41.4999C215.167 41.4999 206.833 41.4999 198.5 41.4999C198.5 39.1666 198.5 36.8332 198.5 34.4999Z" fill="#525E56"/>
<path fill-rule="evenodd" clip-rule="evenodd" d="M132.5 222.5C132.657 223.873 132.49 225.207 132 226.5C130.259 223.691 129.092 220.691 128.5 217.5C127.779 214.183 127.612 210.849 128 207.5C128.869 212.776 130.369 217.776 132.5 222.5Z" fill="#E7D2BF"/>
<path fill-rule="evenodd" clip-rule="evenodd" d="M128.5 217.5C129.092 220.691 130.259 223.691 132 226.5C132.49 225.207 132.657 223.873 132.5 222.5C138.097 222.766 143.43 221.766 148.5 219.5C149.38 222.262 150.546 224.929 152 227.5C152.667 229.167 152.667 230.833 152 232.5C148.167 237.667 143.667 242.167 138.5 246C134.613 249.03 130.28 250.03 125.5 249C124.919 248.107 124.585 247.107 124.5 246C125.94 241.983 127.44 238.149 129 234.5C124.278 241.766 117.778 246.433 109.5 248.5C104.931 248.902 103.431 246.902 105 242.5C109.207 236.091 111.707 229.091 112.5 221.5C118.321 222.002 123.654 220.669 128.5 217.5Z" fill="#283A2F"/>
<path fill-rule="evenodd" clip-rule="evenodd" d="M73.5 275.5C72.1667 275.5 70.8333 275.5 69.5 275.5C69.3333 218.499 69.5 161.499 70 104.5C70.4186 105.672 71.0853 106.672 72 107.5C72.4196 93.9266 72.253 80.7599 71.5 68C72.3029 63.5855 72.8029 59.0855 73 54.5C73.5 128.166 73.6667 201.833 73.5 275.5Z" fill="#4A574F"/>
<path fill-rule="evenodd" clip-rule="evenodd" d="M96.0154 34.5C131.672 34.5 167.328 34.5 202.985 34.5C203.142 37.1085 202.093 39.4418 199.838 41.5C166.28 41.5 132.72 41.5 99.1615 41.5C96.9073 39.4418 95.8581 37.1085 96.0154 34.5Z" fill="#48554D"/>
</g>
<defs>
<clipPath id="clip0_42_8422">
<rect width="300" height="300" fill="white"/>
</clipPath>
</defs>
</svg>
