<svg width="300" height="300" viewBox="0 0 300 300" fill="none" xmlns="http://www.w3.org/2000/svg">
<g clip-path="url(#clip0_64_85)">
<path fill-rule="evenodd" clip-rule="evenodd" d="M-0.5 -0.5C99.5 -0.5 199.5 -0.5 299.5 -0.5C299.5 99.5 299.5 199.5 299.5 299.5C199.5 299.5 99.5 299.5 -0.5 299.5C-0.5 199.5 -0.5 99.5 -0.5 -0.5Z" fill="#FEF7E8"/>
<path fill-rule="evenodd" clip-rule="evenodd" d="M117.5 41.5C138.5 41.5 159.5 41.5 180.5 41.5C180.989 44.4447 182.489 46.7781 185 48.5C183.136 68.5924 176.969 87.2591 166.5 104.5C164.5 104.5 162.5 104.5 160.5 104.5C160.5 101.167 160.5 97.8333 160.5 94.5C166.212 88.7385 169.546 81.7385 170.5 73.5C168.102 60.6198 160.269 54.6198 147 55.5C140.764 55.2208 135.431 57.2208 131 61.5C130.109 64.4976 130.609 67.1643 132.5 69.5C130.751 76.4161 129.418 83.4161 128.5 90.5C129.822 90.33 130.989 90.6634 132 91.5C132.539 94.5285 133.206 97.5285 134 100.5C136.565 101.47 138.732 102.804 140.5 104.5C137.5 104.5 134.5 104.5 131.5 104.5C121.031 87.2591 114.864 68.5924 113 48.5C115.511 46.7781 117.011 44.4447 117.5 41.5Z" fill="#FCF6E7"/>
<path fill-rule="evenodd" clip-rule="evenodd" d="M134.142 49.7949C136.636 49.7949 139.129 49.7949 141.623 49.7949C149.5 50.5 145.5 51.5 158.245 49.7949C159.907 49.7949 161.569 49.7949 163.232 49.7949C163.745 57.6689 165.685 65.149 169.049 72.2351C168.964 83.1917 168.409 93.9962 167.387 104.649C155.008 106.568 142.541 106.844 129.987 105.48C129.282 94.1566 128.451 82.7978 127.494 71.404C128.29 71.0275 128.983 70.474 129.571 69.7417C131.883 63.2632 133.408 56.6142 134.142 49.7949Z" fill="#253933"/>
<path fill-rule="evenodd" clip-rule="evenodd" d="M167.387 104.648C167.802 107.952 168.079 111.277 168.218 114.622C167.185 133.698 164.692 152.537 160.738 171.138C157.111 173.27 153.509 173.27 149.934 171.138C150.294 155.03 149.739 138.962 148.271 122.933C147.44 138.992 147.164 155.06 147.44 171.138C143.96 172.901 140.358 173.178 136.636 171.969C134.58 164.071 133.056 156.036 132.065 147.867C131.15 137.332 130.18 126.804 129.156 116.284C129.329 112.668 129.607 109.066 129.987 105.48C142.541 106.844 155.008 106.567 167.387 104.648Z" fill="#C5672A"/>
<path fill-rule="evenodd" clip-rule="evenodd" d="M147.44 171.138C148.648 177.269 148.509 183.364 147.025 189.422C142.212 194.332 138.611 193.501 136.22 186.929C135.742 181.924 135.88 176.937 136.636 171.969C140.358 173.178 143.96 172.901 147.44 171.138Z" fill="#2A3E37"/>
<path fill-rule="evenodd" clip-rule="evenodd" d="M149.934 171.138C153.509 173.27 157.111 173.27 160.738 171.138C161.384 176.392 161.523 181.655 161.154 186.929C158.66 193.303 155.059 194.134 150.349 189.422C148.9 183.375 148.761 177.28 149.934 171.138Z" fill="#293D36"/>
<rect x="85" y="117" width="127" height="8" fill="#4C5D4F"/>
<rect x="77" y="281" width="164" height="8.00001" transform="rotate(-90 77 281)" fill="#4C5D4F"/>
<rect x="212" y="281" width="164" height="8.00001" transform="rotate(-90 212 281)" fill="#4C5D4F"/>
<path fill-rule="evenodd" clip-rule="evenodd" d="M177.628 126.112C177.623 125.835 177.618 125.558 177.614 125.281C177.58 123.342 177.547 121.403 177.514 119.464C176.683 119.478 175.852 119.492 175.021 119.507C175.385 117.053 176.598 115.092 178.66 113.625C176.824 96.9553 172.39 80.6321 163.444 66.4547C160.512 59.4191 158.898 57.7282 161.098 51.2108C161.807 49.1142 165.203 47.6929 168.72 48.8667C178.174 62.3517 182.937 76.9243 186.896 93.5527C187.9 100.733 187.755 107.921 188.66 115.116C189.315 116.613 190.032 117.986 190.809 119.235C191.012 121.268 190.769 123.211 190.079 125.066C189.526 126.341 188.571 127.189 187.213 127.609C184.433 127.583 181.522 127.495 178.48 127.344C178.013 127.034 177.729 126.623 177.628 126.112Z" fill="#F3C283"/>
<path fill-rule="evenodd" clip-rule="evenodd" d="M119.372 126.074C119.377 125.797 119.382 125.52 119.386 125.243C119.42 123.304 119.453 121.365 119.486 119.426C120.317 119.44 121.148 119.454 121.979 119.469C121.615 117.014 120.402 115.054 118.34 113.587C120.176 96.9172 124.61 80.594 133.556 66.4166C136.488 59.381 138.102 57.6901 135.902 51.1727C135.193 49.0761 131.797 47.6548 128.28 48.8286C118.826 62.3137 114.063 76.8862 110.104 93.5146C109.1 100.695 109.245 107.883 108.34 115.078C107.685 116.575 106.968 117.948 106.191 119.197C105.988 121.229 106.231 123.173 106.921 125.028C107.474 126.303 108.429 127.151 109.787 127.571C112.567 127.545 115.478 127.457 118.52 127.306C118.987 126.996 119.271 126.585 119.372 126.074Z" fill="#F3C283"/>
<path fill-rule="evenodd" clip-rule="evenodd" d="M156.229 42.3716C153.893 40.1228 153.409 37.4611 154.777 34.3867C154.659 31.4833 153.207 30.3944 150.422 31.1201C149.55 31.7752 148.944 32.6221 148.607 33.6608C147.769 32.7582 146.801 32.0323 145.703 31.483C145.545 29.3589 145.182 27.3022 144.614 25.3128C141.81 24.3302 138.907 23.9672 135.904 24.224C134.531 22.5285 134.168 20.5927 134.815 18.4167C138.031 15.3104 141.902 13.8586 146.429 14.0613C156.061 13.4224 161.747 17.7778 163.488 27.1276C162.795 33.108 160.375 38.1893 156.229 42.3716Z" fill="#283C36"/>
<path fill-rule="evenodd" clip-rule="evenodd" d="M135.904 24.2233C138.907 23.9666 141.81 24.3295 144.614 25.3122C145.182 27.3015 145.545 29.3582 145.703 31.4824C146.801 32.0317 147.769 32.7576 148.607 33.6601C148.945 32.6215 149.55 31.7746 150.422 31.1194C153.207 30.3938 154.659 31.4826 154.777 34.386C153.409 37.4604 153.893 40.1221 156.229 42.371C156.229 44.7906 156.229 47.2106 156.229 49.63C153.462 55.1135 149.106 56.6858 143.163 54.3484C141.908 53.0498 141.423 51.4767 141.711 49.63C140.427 48.3989 138.854 47.4305 136.992 46.7264C136.416 44.5694 135.932 42.3917 135.541 40.1933C134.807 39.586 133.96 39.3439 133 39.4673C133.666 34.3251 134.634 29.2438 135.904 24.2233Z" fill="#EEBB7C"/>
</g>
<defs>
<clipPath id="clip0_64_85">
<rect width="300" height="300" fill="white"/>
</clipPath>
</defs>
</svg>
