<svg width="300" height="300" viewBox="0 0 300 300" fill="none" xmlns="http://www.w3.org/2000/svg">
<g clip-path="url(#clip0_52_237)">
<path fill-rule="evenodd" clip-rule="evenodd" d="M0 -1C100 -1 200 -1 300 -1C300 99 300 199 300 299C200 299 100 299 0 299C0 199 0 99 0 -1Z" fill="#FEF5E8"/>
<rect x="83" y="78" width="63" height="8" fill="#4C5D4F"/>
<rect x="83" y="255" width="177" height="8.00001" transform="rotate(-90 83 255)" fill="#4C5D4F"/>
<path fill-rule="evenodd" clip-rule="evenodd" d="M82.0187 164.288C81.2167 167.075 81.2254 169.856 82.0456 172.634C84.8484 173.4 87.4117 174.615 89.7354 176.281C88.4106 179.164 87.3395 182.08 86.5235 185.03C87.5612 186.048 88.806 186.567 90.2595 186.589C96.1676 184.799 99.9965 186.835 101.747 192.698C94.4996 197.669 86.8182 198.558 78.7021 195.364C72.2694 192.613 68.9086 187.701 68.6202 180.63C68.3406 177.097 69.0172 173.724 70.6495 170.511C71.7488 167.437 73.4423 164.78 75.7294 162.541C78.2372 161.598 80.3339 162.181 82.0187 164.288Z" fill="#2A3D34"/>
<path fill-rule="evenodd" clip-rule="evenodd" d="M82.0186 164.288C87.1579 163.573 92.3276 163.098 97.5271 162.863C98.4659 163.578 98.9533 164.512 98.9892 165.667C102.621 167.475 106.253 169.283 109.885 171.091C109.762 173.991 109.17 176.814 108.106 179.56C109.102 179.975 110.099 180.391 111.095 180.807C110.462 185.282 110.999 189.6 112.708 193.762C109.141 192.387 105.488 192.032 101.747 192.698C99.9964 186.835 96.1675 184.798 90.2594 186.588C88.8059 186.567 87.5611 186.047 86.5234 185.03C87.3394 182.079 88.4105 179.163 89.7352 176.281C87.4115 174.615 84.8483 173.399 82.0455 172.634C81.2253 169.856 81.2166 167.074 82.0186 164.288Z" fill="#F1BF82"/>
<path fill-rule="evenodd" clip-rule="evenodd" d="M246.697 62.1637C243.956 59.1424 239.473 55.0612 236 53.0005C234.5 57.0005 229.501 60.7746 226.23 64.6278C220.767 70.4822 215.445 76.4651 210.264 82.5751C200.705 90.689 191.296 98.9793 182.039 107.446C175.979 114.006 170.556 121.051 165.773 128.581C162.353 131.28 159.101 134.163 156.017 137.231C163.692 144.008 169.25 152.165 172.692 161.704C186.44 159.146 194.199 150.882 195.969 136.916C202.263 127.969 208.001 118.68 213.182 109.046C218.736 102.825 224.289 96.6019 229.843 90.3803C235.747 81.1246 241.366 71.7188 246.697 62.1637Z" fill="#CA793A"/>
<path fill-rule="evenodd" clip-rule="evenodd" d="M246.697 62.1633C246.929 61.9239 247.161 61.6838 247.392 61.4444C248.548 55.945 246.476 51.8545 241.176 49.1724C239.093 49.9979 237.347 51.3241 235.938 53.1497C236.5 54.0002 237 54.3168 237.376 54.54C240.849 56.6007 243.956 59.142 246.697 62.1633Z" fill="#F2C394"/>
<path fill-rule="evenodd" clip-rule="evenodd" d="M185.192 80.0469C185.391 79.78 185.591 79.5124 185.79 79.2455C186.237 73.6436 183.662 69.85 178.062 67.8643C176.102 68.9481 174.539 70.4857 173.374 72.4758C174.039 73.2479 174.575 73.4983 174.977 73.6718C178.684 75.2738 182.089 77.3991 185.192 80.0469Z" fill="#F2C394"/>
<path fill-rule="evenodd" clip-rule="evenodd" d="M235.938 53.1492C237.348 51.3237 239.094 49.9974 241.176 49.1719C246.477 51.8541 248.549 55.9445 247.392 61.444C250.973 60.8268 254.617 60.1767 258.322 59.4931C259.706 59.0456 260.397 58.0906 260.395 56.6296C258.12 47.474 255.846 38.3184 253.571 29.1627C251.73 24.3916 248.38 21.3827 243.519 20.1373C241.127 21.5465 239.034 23.2314 237.239 25.1928C237.994 34.6935 237.561 44.0125 235.938 53.1492Z" fill="#24312E"/>
<path fill-rule="evenodd" clip-rule="evenodd" d="M173.374 72.4754C174.539 70.4853 176.102 68.9477 178.063 67.8639C183.662 69.8497 186.237 73.6432 185.79 79.2451C189.264 78.1772 192.795 77.0688 196.382 75.9192C197.698 75.2992 198.263 74.264 198.075 72.8151C194.653 64.0234 191.232 55.2317 187.81 46.4401C185.377 41.942 181.672 39.3838 176.692 38.7672C174.498 40.4693 172.637 42.4069 171.106 44.5808C173.065 53.9081 173.821 63.2065 173.374 72.4754Z" fill="#24312E"/>
<path fill-rule="evenodd" clip-rule="evenodd" d="M109.17 180.028C110.773 175.125 114.366 168.984 115.804 167.346C116.882 166.119 126.161 161.135 138.339 153.42C145.076 148.267 151.159 142.404 156.587 135.83C159.188 136.609 161.687 137.637 164.085 138.913C170.909 143.748 177.867 148.357 184.957 152.74C184.875 153.241 184.994 153.712 185.315 154.155C171.649 171.356 155.096 184.965 135.655 194.983C127.269 197.775 119.216 197.072 111.494 192.875C109.559 188.813 108.785 184.531 109.17 180.028Z" fill="#293C32"/>
<path fill-rule="evenodd" clip-rule="evenodd" d="M113.684 75.6121C113.873 75.7845 114.061 75.9569 114.25 76.1292C114.423 78.0953 115.228 79.8683 116.664 81.4482C117.284 85.1284 117.363 88.8346 116.9 92.5671C123.75 117.362 130.579 142.114 137.388 166.826C137 168.209 137.152 169.56 137.844 170.877C143.493 175.731 144.102 181.132 139.669 187.081C132.352 192.841 125.801 192.054 120.016 184.72C118.841 181.976 118.348 179.103 118.537 176.1C118.388 170.772 118.671 171.03 117.427 163.664C115.066 139.744 111.364 116.116 106.323 92.778C105.664 90.5144 105.016 88.1911 104.376 85.8089C102.672 82.6373 103.365 79.982 106.456 77.8419C107.671 76.7005 108.885 75.5597 110.1 74.4183C111.524 74.1213 112.718 74.5197 113.684 75.6121Z" fill="#EBBC7C"/>
<path fill-rule="evenodd" clip-rule="evenodd" d="M174.94 67.9502C181.311 70.0092 184.911 74.3433 185.741 80.9521C177.806 89.7435 169.214 97.8054 159.967 105.137C168.249 108.192 176.227 112.031 183.9 116.654C194.661 123.022 198.046 132.071 194.055 143.802C191.103 149.838 186.958 154.86 181.622 158.868C175.814 152.892 170.19 146.728 164.748 140.377C162.734 138.556 160.561 136.951 158.228 135.562C154.856 133.323 151.484 131.085 148.112 128.846C144.432 125.389 140.459 122.103 136.194 118.989C132.683 115.41 130.542 111.073 129.771 105.979C131.535 102.222 133.999 98.9994 137.162 96.3109C149.621 86.6362 162.215 77.1822 174.94 67.9502Z" fill="#C56820"/>
<rect x="138" y="255" width="177" height="8.00001" transform="rotate(-90 138 255)" fill="#4C5D4F"/>
</g>
<defs>
<clipPath id="clip0_52_237">
<rect width="300" height="300" fill="white"/>
</clipPath>
</defs>
</svg>
