<svg width="300" height="300" viewBox="0 0 300 300" fill="none" xmlns="http://www.w3.org/2000/svg">
<g clip-path="url(#clip0_64_2)">
<path fill-rule="evenodd" clip-rule="evenodd" d="M0 -1C100 -1 200 -1 300 -1C300 99 300 199 300 299C200 299 100 299 0 299C0 199 0 99 0 -1Z" fill="#FEF5E8"/>
<rect x="113" y="60" width="63" height="8" fill="#4C5D4F"/>
<rect x="113" y="265" width="197" height="8.00001" transform="rotate(-90 113 265)" fill="#4C5D4F"/>
<path fill-rule="evenodd" clip-rule="evenodd" d="M126.67 101.708C124.38 101.648 122.255 102.207 120.294 103.386C120.265 105.681 119.845 107.882 119.032 109.989C116.565 109.549 114.123 109.309 111.705 109.271C111.133 110.266 110.983 111.321 111.255 112.437C113.797 116.598 113 119.93 108.865 122.433C103.625 117.878 101.421 112.182 102.251 105.342C103.078 99.8776 106.166 96.3328 111.515 94.7084C114.161 93.7932 116.874 93.6409 119.655 94.2509C122.224 94.4811 124.591 95.2486 126.757 96.5527C127.976 98.2829 127.947 100.002 126.67 101.708Z" fill="#2A3D34"/>
<path fill-rule="evenodd" clip-rule="evenodd" d="M126.67 101.709C128.237 105.496 129.626 109.355 130.838 113.283C130.478 114.143 129.861 114.701 128.985 114.958C128.324 118.094 127.662 121.23 127.001 124.366C124.759 124.847 122.483 124.955 120.172 124.687C120.052 125.531 119.932 126.376 119.812 127.22C116.265 127.624 113.07 128.892 110.227 131.025C110.571 128.025 110.116 125.161 108.865 122.433C113 119.931 113.797 116.599 111.255 112.437C110.983 111.321 111.133 110.266 111.705 109.271C114.123 109.309 116.565 109.549 119.032 109.99C119.845 107.882 120.265 105.681 120.294 103.386C122.255 102.207 124.38 101.649 126.67 101.709Z" fill="#F1BF82"/>
<path fill-rule="evenodd" clip-rule="evenodd" d="M237.448 207.345C239.214 204.649 241.224 200.549 242.11 197.485C238.886 195.17 236.966 195.336 231.5 192.184C225.94 189.17 220.309 186.289 214.608 183.541C206.507 177.842 198.3 172.295 189.988 166.897C183.77 163.566 177.307 160.819 170.6 158.657C167.857 156.578 165.007 154.664 162.049 152.915C158.391 160.129 153.258 165.998 146.648 170.523C151.333 180.526 159.192 184.818 170.222 183.399C178.312 186.435 186.554 188.978 194.948 191.027C200.807 194.038 206.668 197.049 212.528 200.06C220.777 202.737 229.084 205.165 237.448 207.345Z" fill="#CA793A"/>
<path fill-rule="evenodd" clip-rule="evenodd" d="M237.448 207.344C237.677 207.473 237.907 207.603 238.136 207.733C242.57 207.525 245.286 205.129 246.284 200.543C245.24 199.115 243.879 198.043 242.204 197.328C241.465 199.392 239.514 204.19 237.448 207.344Z" fill="#F2C394"/>
<path fill-rule="evenodd" clip-rule="evenodd" d="M242.204 197.329C243.879 198.044 245.24 199.116 246.284 200.544C245.286 205.129 242.57 207.526 238.135 207.733C239.318 210.349 240.539 213.005 241.797 215.702C242.414 216.672 243.281 217.011 244.398 216.719C250.947 213.162 257.495 209.605 264.044 206.048C267.326 203.694 268.962 200.535 268.949 196.571C267.397 195.022 265.693 193.756 263.837 192.773C256.723 195.237 249.512 196.756 242.204 197.329Z" fill="#24312E"/>
<path fill-rule="evenodd" clip-rule="evenodd" d="M120.026 125.593C124.093 125.845 129.502 127.373 131.04 128.148C132.192 128.728 137.845 134.833 146.161 142.612C151.439 146.74 157.129 150.227 163.233 153.073C163.154 155.216 162.865 157.331 162.365 159.417C160.023 165.595 157.88 171.83 155.937 178.121C155.537 178.158 155.2 178.342 154.926 178.676C139.061 171.642 125.369 161.687 113.85 148.812C110.05 142.955 108.988 136.658 110.665 129.921C113.386 127.634 116.506 126.192 120.026 125.593Z" fill="#293C32"/>
<path fill-rule="evenodd" clip-rule="evenodd" d="M157.554 60.0823C157.606 60.2748 157.657 60.4675 157.709 60.66C156.996 62.0242 156.779 63.5269 157.059 65.1685C155.919 67.8462 154.412 70.3135 152.539 72.5704C146.615 91.7353 140.695 110.864 134.778 129.957C133.942 130.703 133.474 131.653 133.375 132.809C135.045 138.373 133.174 142.176 127.762 144.219C120.534 144.927 116.563 141.656 115.846 134.407C116.227 132.111 117.111 130.017 118.498 128.124C120.64 124.561 120.718 124.85 122.997 119.489C131.502 102.786 139.004 85.7102 145.503 68.2625C146.022 66.4989 146.573 64.7003 147.155 62.8669C147.368 60.0672 148.94 58.6145 151.87 58.5084C153.148 58.2695 154.425 58.0307 155.703 57.7917C156.762 58.195 157.379 58.9586 157.554 60.0823Z" fill="#E7B570"/>
<path fill-rule="evenodd" clip-rule="evenodd" d="M208.471 167.591C208.703 167.715 208.936 167.839 209.168 167.962C213.596 167.645 216.252 165.182 217.137 160.573C216.057 159.171 214.67 158.134 212.977 157.46C212.454 158.072 212.322 158.521 212.234 158.854C211.424 161.94 210.17 164.852 208.471 167.591Z" fill="#F2C394"/>
<path fill-rule="evenodd" clip-rule="evenodd" d="M212.978 157.461C214.67 158.134 216.057 159.172 217.137 160.574C216.252 165.183 213.597 167.645 209.169 167.963C210.416 170.548 211.702 173.174 213.026 175.839C213.667 176.793 214.543 177.11 215.652 176.791C222.11 173.073 228.569 169.355 235.027 165.637C238.251 163.201 239.807 160.003 239.696 156.041C238.106 154.53 236.371 153.307 234.491 152.37C227.441 155.01 220.269 156.707 212.978 157.461Z" fill="#24312E"/>
<path fill-rule="evenodd" clip-rule="evenodd" d="M216.698 158.146C215.848 163.366 212.892 166.693 207.83 168.128C200.02 162.977 192.702 157.227 185.876 150.878C184.476 157.709 182.427 164.396 179.73 170.939C176.038 180.1 169.374 183.82 159.738 182.099C154.673 180.512 150.258 177.873 146.493 174.183C150.469 168.936 154.613 163.811 158.925 158.806C160.107 157.016 161.102 155.128 161.909 153.141C163.256 150.241 164.603 147.341 165.95 144.442C168.212 141.156 170.306 137.662 172.229 133.961C174.607 130.794 177.739 128.605 181.625 127.397C184.769 128.328 187.579 129.868 190.055 132.018C199.093 140.597 207.974 149.306 216.698 158.146Z" fill="#C56820"/>
<rect x="168" y="265" width="197" height="8.00001" transform="rotate(-90 168 265)" fill="#4C5D4F"/>
</g>
<defs>
<clipPath id="clip0_64_2">
<rect width="300" height="300" fill="white"/>
</clipPath>
</defs>
</svg>
