<svg width="300" height="300" viewBox="0 0 300 300" fill="none" xmlns="http://www.w3.org/2000/svg">
<g clip-path="url(#clip0_58_181)">
<path fill-rule="evenodd" clip-rule="evenodd" d="M0 -1C100 -1 200 -1 300 -1C300 99 300 199 300 299C200 299 100 299 0 299C0 199 0 99 0 -1Z" fill="#FEF5E8"/>
<rect x="113" y="72" width="63" height="8" fill="#4C5D4F"/>
<rect x="113" y="249" width="177" height="8.00001" transform="rotate(-90 113 249)" fill="#4C5D4F"/>
<path fill-rule="evenodd" clip-rule="evenodd" d="M69.8378 128.961C67.2889 130.342 65.3117 132.299 63.9066 134.832C65.326 137.367 66.2565 140.047 66.6982 142.872C63.7141 143.948 60.884 145.229 58.2085 146.716C58.2105 148.17 58.713 149.422 59.7168 150.473C65.1359 153.43 66.3689 157.588 63.4161 162.947C54.7903 161.265 48.7704 156.412 45.356 148.386C42.8071 141.871 43.9522 136.031 48.7917 130.867C51.1143 128.19 53.9937 126.307 57.4295 125.218C60.3919 123.846 63.4732 123.191 66.6733 123.251C69.1042 124.378 70.1591 126.281 69.8378 128.961Z" fill="#2A3D34"/>
<path fill-rule="evenodd" clip-rule="evenodd" d="M69.8378 128.961C73.9512 132.123 77.9147 135.476 81.728 139.019C81.8769 140.189 81.5525 141.192 80.7545 142.027C82.0124 145.884 83.2701 149.741 84.5279 153.599C82.374 155.544 79.9454 157.101 77.242 158.269C77.6441 159.27 78.0465 160.273 78.4486 161.274C74.8143 163.961 72.1121 167.372 70.3429 171.508C68.8227 168.001 66.5139 165.148 63.4161 162.947C66.3689 157.588 65.1358 153.43 59.7168 150.473C58.713 149.422 58.2104 148.17 58.2085 146.716C60.884 145.229 63.7141 143.948 66.6982 142.872C66.2565 140.047 65.326 137.367 63.9066 134.832C65.3117 132.299 67.2889 130.342 69.8378 128.961Z" fill="#F1BF82"/>
<path fill-rule="evenodd" clip-rule="evenodd" d="M255.703 137.813C254.559 133.897 252.266 128.592 250.044 125.219C245.165 126.42 243.747 128.405 236.22 131.076C228.746 133.951 221.344 137.003 214.012 140.231C201.867 143.346 189.779 146.686 177.751 150.25C169.432 153.498 161.474 157.462 153.879 162.141C149.623 163.072 145.437 164.243 141.322 165.651C145.26 175.104 146.69 184.87 145.612 194.953C159.094 198.666 169.686 194.629 177.387 182.844C186.961 177.552 196.183 171.709 205.057 165.312C212.773 162.147 220.489 158.98 228.204 155.815C237.562 150.074 246.729 144.073 255.703 137.813Z" fill="#AF6C37"/>
<path fill-rule="evenodd" clip-rule="evenodd" d="M235.412 106.005C233.182 102.588 229.45 98.1751 226.347 95.5911C222.025 98.1541 221.242 100.464 214.812 105.201C208.492 110.118 202.291 115.184 196.209 120.398C185.487 126.898 174.885 133.596 164.405 140.492C157.384 146.011 150.916 152.11 145.002 158.788C141.198 160.913 137.531 163.245 134 165.786C140.507 173.692 144.705 182.626 146.595 192.589C160.575 192.237 169.543 185.304 173.499 171.794C181.129 163.955 188.264 155.69 194.904 146.998C201.372 141.733 207.839 136.466 214.307 131.201C221.601 122.996 228.636 114.597 235.412 106.005Z" fill="#CA793A"/>
<path fill-rule="evenodd" clip-rule="evenodd" d="M255.704 137.813C256.016 137.699 256.33 137.585 256.643 137.471C260.089 133.031 260.015 128.446 256.421 123.716C254.187 123.547 252.037 123.976 249.971 125.001C251.352 127.409 254.365 133.231 255.704 137.813Z" fill="#F2C394"/>
<path fill-rule="evenodd" clip-rule="evenodd" d="M235.412 106.005C235.678 105.805 235.946 105.605 236.212 105.405C238.223 100.157 236.825 95.7907 232.015 92.304C229.828 92.7898 227.894 93.8232 226.214 95.4029C228.233 97.3072 232.804 102.007 235.412 106.005Z" fill="#F2C394"/>
<path fill-rule="evenodd" clip-rule="evenodd" d="M249.971 125.003C252.037 123.977 254.187 123.548 256.421 123.717C260.014 128.448 260.088 133.032 256.643 137.472C260.133 138.483 263.694 139.492 267.324 140.498C268.765 140.701 269.804 140.145 270.442 138.83C272.401 129.602 274.36 120.374 276.32 111.145C276.751 106.05 275.055 101.878 271.228 98.6323C268.461 98.853 265.842 99.4528 263.369 100.431C259.893 109.306 255.427 117.496 249.971 125.003Z" fill="#24312E"/>
<path fill-rule="evenodd" clip-rule="evenodd" d="M226.214 95.4035C227.894 93.8238 229.828 92.7903 232.015 92.3046C236.825 95.7913 238.224 100.158 236.212 105.405C239.846 105.362 243.546 105.297 247.312 105.207C248.75 104.985 249.583 104.151 249.813 102.708C249.014 93.3078 248.216 83.9076 247.418 74.5075C246.355 69.5053 243.523 66.0043 238.92 64.0059C236.335 65.019 234.002 66.3517 231.919 68.0045C231.163 77.5052 229.262 86.6384 226.214 95.4035Z" fill="#24312E"/>
<path fill-rule="evenodd" clip-rule="evenodd" d="M77.6543 159.355C82.2741 157.06 89.1717 155.316 91.3482 155.193C92.9786 155.1 103.039 158.221 117.078 161.494C125.476 162.684 133.922 162.909 142.415 162.17C143.684 164.571 144.703 167.073 145.474 169.677C146.813 177.933 148.405 186.126 150.252 194.254C149.837 194.547 149.584 194.962 149.494 195.501C127.648 197.82 106.338 195.56 85.5634 188.724C77.6926 184.704 72.5465 178.469 70.1254 170.02C71.6637 165.792 74.1736 162.238 77.6543 159.355Z" fill="#293C32"/>
<path fill-rule="evenodd" clip-rule="evenodd" d="M153.081 72.2892C153.111 72.5574 153.14 72.8258 153.17 73.094C151.937 74.7731 151.338 76.7395 151.375 78.9931C149.301 82.3422 146.779 85.3347 143.81 87.9706C131.955 112.399 120.111 136.78 108.28 161.114C107.008 161.941 106.187 163.117 105.817 164.643C106.911 172.429 103.628 177.134 95.9671 178.759C86.1518 178.225 81.5081 173.034 82.036 163.187C83.0167 160.193 84.6289 157.572 86.8727 155.324C90.4692 150.996 90.5134 151.398 94.6629 144.693C109.467 124.086 123.006 102.777 135.28 80.7638C136.336 78.5106 137.441 76.2169 138.595 73.8829C139.455 70.1807 141.856 68.5591 145.798 69.0178C147.557 68.9601 149.315 68.9025 151.073 68.8448C152.409 69.6017 153.077 70.7499 153.081 72.2892Z" fill="#EBBC7C"/>
<rect x="168" y="249" width="177" height="8.00001" transform="rotate(-90 168 249)" fill="#4C5D4F"/>
</g>
<defs>
<clipPath id="clip0_58_181">
<rect width="300" height="300" fill="white"/>
</clipPath>
</defs>
</svg>
