<svg width="300" height="300" viewBox="0 0 300 300" fill="none" xmlns="http://www.w3.org/2000/svg">
<g clip-path="url(#clip0_41_312)">
<path fill-rule="evenodd" clip-rule="evenodd" d="M-0.5 -0.5C99.5 -0.5 199.5 -0.5 299.5 -0.5C299.5 99.5 299.5 199.5 299.5 299.5C199.5 299.5 99.5 299.5 -0.5 299.5C-0.5 199.5 -0.5 99.5 -0.5 -0.5Z" fill="#FEF4E6"/>
<path fill-rule="evenodd" clip-rule="evenodd" d="M207.5 83.5C204.337 82.6785 201.67 81.0119 199.5 78.5C202.128 74.9651 202.128 71.4651 199.5 68C195.909 67.5498 193.409 69.0498 192 72.5C190.667 71.1667 189.333 69.8333 188 68.5C187.326 65.0779 186.16 61.9112 184.5 59C180.179 58.501 175.846 58.3343 171.5 58.5C167.906 51.8385 169.906 47.3385 177.5 45C184.699 42.8053 192.032 42.1386 199.5 43C209.553 45.3848 214.887 51.7181 215.5 62C215.182 70.149 212.516 77.3156 207.5 83.5Z" fill="#2A342D"/>
<path fill-rule="evenodd" clip-rule="evenodd" d="M171.5 58.5C175.846 58.3343 180.179 58.501 184.5 59C186.16 61.9112 187.326 65.0779 188 68.5C189.333 69.8333 190.667 71.1667 192 72.5C193.409 69.0498 195.909 67.5498 199.5 68C202.128 71.4651 202.128 74.9651 199.5 78.5C201.67 81.0119 204.337 82.6785 207.5 83.5C207.584 86.3274 208.25 88.994 209.5 91.5C204.631 92.6012 200.298 94.7678 196.5 98C214.415 96.6426 221.582 104.809 218 122.5C211.491 130.325 204.658 130.492 197.5 123C194.633 122.199 191.966 122.366 189.5 123.5C163.709 124.975 138.209 122.975 113 117.5C108.52 118.432 104.02 118.599 99.5 118C95.9164 116.927 92.2498 116.26 88.5 116C86.6652 115.072 86.3318 113.906 87.5 112.5C83.1099 111.324 79.1099 109.49 75.5 107C75.6448 106.228 75.9781 105.561 76.5 105C80.1667 104.833 83.8333 104.667 87.5 104.5C96.7304 104.913 105.897 105.913 115 107.5C130.793 105.991 146.627 105.157 162.5 105C171.995 104.459 181.328 102.959 190.5 100.5C190.849 97.5371 189.849 95.2038 187.5 93.5C182.305 96.7719 177.805 96.1053 174 91.5C173.548 88.1228 172.882 84.7895 172 81.5C169.824 81.0116 167.991 80.0116 166.5 78.5C170.05 72.3018 171.716 65.6352 171.5 58.5Z" fill="#F9C490"/>
<path fill-rule="evenodd" clip-rule="evenodd" d="M209.5 91.5C215.166 92.9688 220 95.9688 224 100.5C239.633 122.518 245.8 146.851 242.5 173.5C227.875 172.947 213.875 169.947 200.5 164.5C195.819 151.121 192.153 137.455 189.5 123.5C191.966 122.366 194.633 122.199 197.5 123C204.658 130.492 211.491 130.325 218 122.5C221.582 104.809 214.415 96.6426 196.5 98C200.298 94.7678 204.631 92.6012 209.5 91.5Z" fill="#29332B"/>
<path fill-rule="evenodd" clip-rule="evenodd" d="M200.5 164.5C213.875 169.947 227.875 172.947 242.5 173.5C243.104 184.737 239.104 193.737 230.5 200.5C218.167 200.5 205.833 200.5 193.5 200.5C186.854 198.493 180.187 196.16 173.5 193.5C176.798 205.94 180.298 218.607 184 231.5C184.64 233.265 184.473 234.932 183.5 236.5C178.645 237.544 173.978 238.877 169.5 240.5C168.167 240.5 166.833 240.5 165.5 240.5C158.575 226.982 151.908 213.316 145.5 199.5C141.923 192.042 139.256 184.375 137.5 176.5C137.502 167.657 141.835 162.157 150.5 160C157.167 159.333 163.833 159.333 170.5 160C180.563 161.184 190.563 162.684 200.5 164.5Z" fill="#CC6D2E"/>
<path fill-rule="evenodd" clip-rule="evenodd" d="M137.5 176.5C139.256 184.375 141.923 192.042 145.5 199.5C126.274 206.932 106.441 212.265 86 215.5C84.699 215.361 83.8656 214.695 83.5 213.5C81.5528 208.371 80.5528 203.038 80.5 197.5C80.6107 196.883 80.944 196.383 81.5 196C100.378 189.986 119.045 183.486 137.5 176.5Z" fill="#C36529"/>
<path fill-rule="evenodd" clip-rule="evenodd" d="M76.5 198.5C71.6249 203.603 71.2916 208.936 75.5 214.5C75.5 215.833 75.5 217.167 75.5 218.5C70.7932 219.624 66.1266 220.957 61.5 222.5C60.5581 222.392 59.7247 222.059 59 221.5C53.9438 207.508 50.4438 193.175 48.5 178.5C46.8405 172.009 49.1738 169.175 55.5 170C58.5251 175.882 61.6917 181.715 65 187.5C67.894 190.361 71.0607 192.861 74.5 195C75.8228 195.816 76.4894 196.983 76.5 198.5Z" fill="#29332C"/>
<path fill-rule="evenodd" clip-rule="evenodd" d="M193.5 200.5C191.856 200.286 190.356 200.62 189 201.5C188.831 215.339 188.331 229.006 187.5 242.5C186.833 241.167 185.833 240.167 184.5 239.5C183.596 238.791 183.263 237.791 183.5 236.5C184.473 234.932 184.64 233.265 184 231.5C180.298 218.607 176.798 205.94 173.5 193.5C180.187 196.16 186.854 198.493 193.5 200.5Z" fill="#FAF1E4"/>
<path fill-rule="evenodd" clip-rule="evenodd" d="M193.5 200.5C205.833 200.5 218.167 200.5 230.5 200.5C241.748 200.179 252.915 200.513 264 201.5C264.667 220.833 264.667 240.167 264 259.5C238.833 260.829 213.667 260.829 188.5 259.5C188.786 253.741 188.452 248.075 187.5 242.5C188.331 229.006 188.831 215.339 189 201.5C190.356 200.62 191.856 200.286 193.5 200.5Z" fill="#464037"/>
<path fill-rule="evenodd" clip-rule="evenodd" d="M80.5 197.5C80.5528 203.038 81.5528 208.371 83.5 213.5C80.8333 213.833 78.1667 214.167 75.5 214.5C71.2916 208.936 71.6249 203.603 76.5 198.5C77.9587 198.567 79.2921 198.234 80.5 197.5Z" fill="#F4BE89"/>
<path fill-rule="evenodd" clip-rule="evenodd" d="M183.5 236.5C183.263 237.791 183.596 238.791 184.5 239.5C182.944 241.988 180.611 242.988 177.5 242.5C174.591 242.615 171.925 241.949 169.5 240.5C173.978 238.877 178.645 237.544 183.5 236.5Z" fill="#F2C18D"/>
<path fill-rule="evenodd" clip-rule="evenodd" d="M184.5 239.5C185.833 240.167 186.833 241.167 187.5 242.5C188.452 248.075 188.786 253.741 188.5 259.5C174.281 261.487 159.948 261.987 145.5 261C138.931 259.711 137.931 256.711 142.5 252C148.991 250.126 155.325 247.793 161.5 245C163.041 243.629 164.375 242.129 165.5 240.5C166.833 240.5 168.167 240.5 169.5 240.5C171.925 241.949 174.591 242.615 177.5 242.5C180.611 242.988 182.944 241.988 184.5 239.5Z" fill="#2A342D"/>
</g>
<defs>
<clipPath id="clip0_41_312">
<rect width="300" height="300" fill="white"/>
</clipPath>
</defs>
</svg>
