<svg width="300" height="300" viewBox="0 0 300 300" fill="none" xmlns="http://www.w3.org/2000/svg">
<g clip-path="url(#clip0_61_90)">
<path fill-rule="evenodd" clip-rule="evenodd" d="M-0.5 -0.5C99.5 -0.5 199.5 -0.5 299.5 -0.5C299.5 99.5 299.5 199.5 299.5 299.5C199.5 299.5 99.5 299.5 -0.5 299.5C-0.5 199.5 -0.5 99.5 -0.5 -0.5Z" fill="#FEF5E6"/>
<path fill-rule="evenodd" clip-rule="evenodd" d="M129.905 271.159C103.5 271.159 81.5 271.159 64.5195 271.159C56.1642 270.764 47.991 272.302 40 275.776C42.9704 277.792 46.0844 279.024 49.3408 279.469C71.7096 282.038 93.894 282.961 115.894 282.239C139.918 281.635 163.854 282.252 187.701 284.086C189.726 282.703 191.866 281.779 194.123 281.316C212.054 280.928 229.957 279.696 247.832 277.622C248.222 277.007 248.611 276.391 249 275.776C245.197 273.85 241.305 272.926 237.324 273.006C201.533 271.292 165.727 270.677 129.905 271.159Z" fill="#EFE3D5"/>
<path fill-rule="evenodd" clip-rule="evenodd" d="M154.5 53.5005C149.518 54.0539 144.518 54.3872 139.5 54.5005C138.642 60.0497 136.309 64.883 132.5 69.0005C129.331 68.0829 126.331 66.5829 123.5 64.5005C118.312 65.8698 116.479 69.2032 118 74.5005C118.785 76.2865 119.951 77.7865 121.5 79.0005C119.205 83.1346 115.871 85.9679 111.5 87.5005C104.221 77.277 101.388 65.9436 103 53.5005C106.335 44.1664 112.835 38.3331 122.5 36.0005C134.501 33.6612 145.001 36.4945 154 44.5005C155.663 47.5608 155.83 50.5608 154.5 53.5005Z" fill="#2B372F"/>
<path fill-rule="evenodd" clip-rule="evenodd" d="M154.5 53.5C154.54 59.87 156.04 65.87 159 71.5C160.539 75.7633 159.206 78.4299 155 79.5C154.129 83.984 152.796 88.3173 151 92.5C147.418 96.972 142.918 98.3053 137.5 96.5C136.123 98.2895 135.123 100.289 134.5 102.5C145.051 104.971 155.718 106.804 166.5 108C183.833 109.333 201.167 110.667 218.5 112C237.127 111.013 255.794 110.68 274.5 111C275.337 112.011 275.67 113.178 275.5 114.5C270.167 115.6 264.834 116.767 259.5 118C255.431 121.063 251.098 123.73 246.5 126C241.98 126.599 237.48 126.432 233 125.5C200.667 130.273 168.167 132.606 135.5 132.5C131.998 131.694 128.331 131.027 124.5 130.5C120.561 132.535 116.394 133.869 112 134.5C101.174 132.203 96.8408 125.537 99 114.5C101.191 107.805 105.691 103.805 112.5 102.5C116.5 101.733 119 101 122.5 100.5C117.986 98.5732 113.32 97.2398 108.5 96.5C110.259 93.8152 111.259 90.8152 111.5 87.5C115.871 85.9674 119.205 83.1341 121.5 79C119.951 77.786 118.785 76.286 118 74.5C116.479 69.2027 118.312 65.8693 123.5 64.5C126.331 66.5824 129.331 68.0824 132.5 69C136.309 64.8825 138.642 60.0492 139.5 54.5C144.518 54.3867 149.518 54.0534 154.5 53.5Z" fill="#F8C18B"/>
<path fill-rule="evenodd" clip-rule="evenodd" d="M108.5 96.5C113.32 97.2398 117.986 98.5732 122.5 100.5C119.167 101.167 115.833 101.833 112.5 102.5C105.691 103.805 101.191 107.805 99 114.5C96.8408 125.537 101.174 132.203 112 134.5C116.394 133.869 120.561 132.535 124.5 130.5C128.331 131.027 131.998 131.694 135.5 132.5C132.498 147.174 125.831 159.841 115.5 170.5C103.213 173.763 91.2126 177.929 79.5 183C70.1815 183.832 60.8482 184.332 51.5 184.5C62.3962 157.371 75.8962 131.704 92 107.5C96.3139 101.935 101.814 98.2683 108.5 96.5Z" fill="#2A372F"/>
<path fill-rule="evenodd" clip-rule="evenodd" d="M134.5 249.5C126.691 249.867 119.024 249.201 111.5 247.5C115.862 233.906 120.696 220.572 126 207.5C111.25 220.039 94.2502 227.706 75 230.5C57.4033 228.569 48.5699 218.735 48.5 201C48.1602 195.235 49.1602 189.735 51.5 184.5C60.8482 184.332 70.1815 183.832 79.5 183C91.2126 177.929 103.213 173.763 115.5 170.5C127.129 166.968 138.962 164.301 151 162.5C169.605 165.365 175.605 175.698 169 193.5C158.92 211.995 148.587 230.329 138 248.5C136.989 249.337 135.822 249.67 134.5 249.5Z" fill="#CE7738"/>
<path fill-rule="evenodd" clip-rule="evenodd" d="M111.5 247.5C119.024 249.201 126.691 249.867 134.5 249.5C133.89 250.391 133.557 251.391 133.5 252.5C125.258 255.959 116.925 256.293 108.5 253.5C110.25 251.941 111.25 249.941 111.5 247.5Z" fill="#EBBD7D"/>
<path fill-rule="evenodd" clip-rule="evenodd" d="M133.5 252.5C141.964 260.231 151.964 265.064 163.5 267C166.462 270.488 165.795 273.155 161.5 275C154.292 276.884 146.959 277.717 139.5 277.5C127.833 277.014 116.166 276.514 104.5 276C104 275.5 103.5 275 103 274.5C101.704 266.574 103.537 259.574 108.5 253.5C116.925 256.293 125.258 255.959 133.5 252.5Z" fill="#3E473D"/>
</g>
<defs>
<clipPath id="clip0_61_90">
<rect width="300" height="300" fill="white"/>
</clipPath>
</defs>
</svg>
