<svg width="300" height="300" viewBox="0 0 300 300" fill="none" xmlns="http://www.w3.org/2000/svg">
<g clip-path="url(#clip0_64_120)">
<path fill-rule="evenodd" clip-rule="evenodd" d="M-0.5 -0.5C99.5 -0.5 199.5 -0.5 299.5 -0.5C299.5 99.5 299.5 199.5 299.5 299.5C199.5 299.5 99.5 299.5 -0.5 299.5C-0.5 199.5 -0.5 99.5 -0.5 -0.5Z" fill="#FEF7E8"/>
<path fill-rule="evenodd" clip-rule="evenodd" d="M117.5 41.5C138.5 41.5 159.5 41.5 180.5 41.5C180.989 44.4447 182.489 46.7781 185 48.5C183.136 68.5924 176.969 87.2591 166.5 104.5C164.5 104.5 162.5 104.5 160.5 104.5C160.5 101.167 160.5 97.8333 160.5 94.5C166.212 88.7385 169.546 81.7385 170.5 73.5C168.102 60.6198 160.269 54.6198 147 55.5C140.764 55.2208 135.431 57.2208 131 61.5C130.109 64.4976 130.609 67.1643 132.5 69.5C130.751 76.4161 129.418 83.4161 128.5 90.5C129.822 90.33 130.989 90.6634 132 91.5C132.539 94.5285 133.206 97.5285 134 100.5C136.565 101.47 138.732 102.804 140.5 104.5C137.5 104.5 134.5 104.5 131.5 104.5C121.031 87.2591 114.864 68.5924 113 48.5C115.511 46.7781 117.011 44.4447 117.5 41.5Z" fill="#FCF6E7"/>
<path fill-rule="evenodd" clip-rule="evenodd" d="M131 86.5C133.493 86.5 139.129 85.7949 141.622 85.7949C149.5 86.5 145.5 87.5 158.245 85.7949C159.907 85.7949 165.725 86.5 167.387 86.5C170 92.5 169.049 98 169.049 108.235C168.964 119.192 168.409 129.996 167.387 140.649C155.008 142.568 142.541 142.844 129.987 141.48C129.282 130.157 128 119 128 107.5C129.006 93.596 125.858 92.2051 131 86.5Z" fill="#253933"/>
<path fill-rule="evenodd" clip-rule="evenodd" d="M167.387 140.648C167.802 143.952 168.079 147.277 168.218 150.622C167.185 169.698 164.692 188.537 160.738 207.138C157.111 209.27 153.509 209.27 149.934 207.138C150.294 191.03 149.739 174.962 148.271 158.933C147.44 174.992 147.164 191.06 147.44 207.138C143.96 208.901 140.358 209.178 136.636 207.969C134.58 200.071 133.056 192.036 132.065 183.867C131.15 173.332 130.18 162.804 129.156 152.284C129.329 148.668 129.607 145.066 129.987 141.48C142.541 142.844 155.008 142.567 167.387 140.648Z" fill="#C5672A"/>
<path fill-rule="evenodd" clip-rule="evenodd" d="M147.44 207.137C148.648 213.268 148.509 219.363 147.025 225.421C142.212 230.331 138.611 229.5 136.22 222.928C135.742 217.923 135.88 212.936 136.636 207.968C140.358 209.177 143.96 208.9 147.44 207.137Z" fill="#2A3E37"/>
<path fill-rule="evenodd" clip-rule="evenodd" d="M149.934 207.137C153.509 209.269 157.111 209.269 160.738 207.137C161.384 212.391 161.523 217.655 161.154 222.928C158.66 229.302 155.059 230.133 150.349 225.421C148.9 219.374 148.761 213.28 149.934 207.137Z" fill="#293D36"/>
<rect x="85" y="117" width="127" height="8" fill="#4C5D4F"/>
<rect x="77" y="275" width="158" height="8.00001" transform="rotate(-90 77 275)" fill="#4C5D4F"/>
<rect x="212" y="275" width="158" height="8.00001" transform="rotate(-90 212 275)" fill="#4C5D4F"/>
<path fill-rule="evenodd" clip-rule="evenodd" d="M156.229 78.3716C153.893 76.1228 153.409 73.4611 154.777 70.3867C154.659 67.4833 153.207 66.3944 150.422 67.1201C149.55 67.7752 148.944 68.6221 148.607 69.6608C147.769 68.7582 146.801 68.0323 145.703 67.483C145.545 65.3589 145.182 63.3022 144.614 61.3128C141.81 60.3302 138.907 59.9672 135.904 60.224C134.531 58.5285 134.168 56.5927 134.815 54.4167C138.031 51.3104 141.902 49.8586 146.429 50.0613C156.061 49.4224 161.747 53.7778 163.488 63.1276C162.795 69.108 160.375 74.1893 156.229 78.3716Z" fill="#283C36"/>
<path fill-rule="evenodd" clip-rule="evenodd" d="M135.904 60.2243C138.907 59.9676 141.81 60.3305 144.614 61.3132C145.182 63.3025 145.545 65.3592 145.703 67.4834C146.801 68.0327 147.769 68.7586 148.607 69.6611C148.945 68.6225 149.55 67.7755 150.422 67.1204C153.207 66.3947 154.659 67.4836 154.777 70.387C153.409 73.4614 153.893 76.1231 156.229 78.372C156.229 80.7916 156.229 83.2116 156.229 85.631C153.462 91.1145 149.106 92.6868 143.163 90.3494C141.908 89.0507 141.423 87.4777 141.711 85.631C140.427 84.3999 138.854 83.4315 136.992 82.7274C136.416 80.5704 135.932 78.3926 135.541 76.1942C134.807 75.5869 133.96 75.3449 133 75.4683C133.666 70.3261 134.634 65.2447 135.904 60.2243Z" fill="#EEBB7C"/>
<path fill-rule="evenodd" clip-rule="evenodd" d="M125 98.9996C120.72 98.5712 116.282 98.066 112.099 96.8895C111.809 97.8877 111.823 98.852 112.14 99.7819C111.892 104.417 112.094 109.077 112.746 113.762C114.875 115.095 116.938 116.54 118.933 118.099C119.537 123.051 117.449 126.211 112.668 127.581C110.092 126.028 107.976 123.993 106.32 121.476C104.385 114.489 102.268 107.553 99.9681 100.668C98.7139 95.598 99.3959 90.8576 102.014 86.4468C105.232 84.4846 108.781 83.4929 112.659 83.4719C119.766 83.4116 122.02 83.549 129 84.999C133.982 87.1028 136.827 87.2042 136 93.1002C134 96.1 128.706 98.9996 125 98.9996Z" fill="#F0BD7E"/>
<path fill-rule="evenodd" clip-rule="evenodd" d="M171.734 99.0016C176.014 98.5731 180.451 98.068 184.634 96.8915C184.924 97.8896 184.911 98.8539 184.594 99.7839C184.842 104.419 184.64 109.079 183.988 113.764C181.859 115.097 179.796 116.542 177.801 118.101C177.197 123.053 179.285 126.213 184.066 127.583C186.642 126.03 188.758 123.995 190.414 121.478C192.349 114.491 194.466 107.555 196.766 100.67C198.02 95.6 197.338 90.8595 194.72 86.4488C191.502 84.4865 187.953 83.4948 184.075 83.4739C176.968 83.4135 174.714 83.5509 167.734 85.001C162.752 87.1047 159.907 87.2061 160.734 93.1022C162.734 96.102 168.028 99.0016 171.734 99.0016Z" fill="#F0BD7E"/>
</g>
<defs>
<clipPath id="clip0_64_120">
<rect width="300" height="300" fill="white"/>
</clipPath>
</defs>
</svg>
