<svg width="300" height="300" viewBox="0 0 300 300" fill="none" xmlns="http://www.w3.org/2000/svg">
<g clip-path="url(#clip0_63_586)">
<path fill-rule="evenodd" clip-rule="evenodd" d="M0 -1C100 -1 200 -1 300 -1C300 99 300 199 300 299C200 299 100 299 0 299C0 199 0 99 0 -1Z" fill="#FEF5E8"/>
<rect x="100" y="72" width="63" height="8" fill="#4C5D4F"/>
<rect x="100" y="249" width="177" height="8.00001" transform="rotate(-90 100 249)" fill="#4C5D4F"/>
<path fill-rule="evenodd" clip-rule="evenodd" d="M56.8378 128.961C54.2889 130.342 52.3117 132.299 50.9066 134.832C52.326 137.367 53.2565 140.047 53.6982 142.872C50.7141 143.948 47.884 145.229 45.2085 146.716C45.2105 148.17 45.713 149.422 46.7168 150.473C52.1359 153.43 53.3689 157.588 50.4161 162.947C41.7903 161.265 35.7704 156.412 32.356 148.386C29.8071 141.871 30.9522 136.031 35.7917 130.867C38.1143 128.19 40.9937 126.307 44.4295 125.218C47.3919 123.846 50.4732 123.191 53.6733 123.251C56.1042 124.378 57.1591 126.281 56.8378 128.961Z" fill="#2A3D34"/>
<path fill-rule="evenodd" clip-rule="evenodd" d="M56.8378 128.961C60.9512 132.123 64.9147 135.476 68.728 139.019C68.8769 140.189 68.5525 141.192 67.7545 142.027C69.0124 145.884 70.2701 149.741 71.5279 153.599C69.374 155.544 66.9454 157.101 64.242 158.269C64.6441 159.27 65.0465 160.273 65.4486 161.274C61.8143 163.961 59.1121 167.372 57.3429 171.508C55.8227 168.001 53.5139 165.148 50.4161 162.947C53.3689 157.588 52.1358 153.43 46.7168 150.473C45.713 149.422 45.2104 148.17 45.2085 146.716C47.884 145.229 50.7141 143.948 53.6982 142.872C53.2565 140.047 52.326 137.367 50.9066 134.832C52.3117 132.299 54.2889 130.342 56.8378 128.961Z" fill="#F1BF82"/>
<path fill-rule="evenodd" clip-rule="evenodd" d="M245.794 188.371C246.576 184.367 246.974 178.601 246.549 174.585C241.663 173.412 239.492 174.524 231.579 173.441C223.62 172.563 215.643 171.876 207.647 171.377C195.427 168.568 183.156 165.985 170.834 163.628C161.953 162.694 153.063 162.562 144.168 163.231C139.959 162.104 133.803 163.138 129.5 162.5C128.658 172.705 127.345 180.122 121.758 188.584C132.03 198.073 143.293 199.35 155.545 192.416C166.48 192.111 177.356 191.154 188.176 189.547C196.483 190.277 204.792 191.007 213.1 191.737C224.049 190.934 234.948 189.812 245.794 188.371Z" fill="#AF6C37"/>
<path fill-rule="evenodd" clip-rule="evenodd" d="M244.91 161.776C244.701 157.702 243.694 152.01 242.31 148.216C237.285 148.258 235.448 149.862 227.507 150.724C219.572 151.796 211.665 153.058 203.786 154.506C191.25 154.734 178.718 155.193 166.192 155.885C157.348 157.125 148.69 159.145 140.22 161.944C135.864 161.868 131.521 162.041 127.192 162.462C128.841 172.568 127.978 182.401 124.603 191.963C136.864 198.688 148.101 197.204 158.314 187.515C168.851 184.575 179.174 181.018 189.284 176.843C197.522 175.544 205.761 174.244 213.998 172.944C224.429 169.519 234.733 165.796 244.91 161.776Z" fill="#CA793A"/>
<path fill-rule="evenodd" clip-rule="evenodd" d="M245.795 188.372C246.125 188.415 246.456 188.457 246.786 188.5C251.886 186.138 253.925 182.031 252.905 176.178C250.998 175.003 248.891 174.397 246.585 174.359C246.706 177.131 246.71 183.687 245.795 188.372Z" fill="#F2C394"/>
<path fill-rule="evenodd" clip-rule="evenodd" d="M244.911 161.774C245.241 161.736 245.573 161.697 245.904 161.658C250.281 158.134 251.267 153.656 248.863 148.223C246.728 147.544 244.537 147.465 242.29 147.985C243.078 150.647 244.666 157.007 244.911 161.774Z" fill="#F2C394"/>
<path fill-rule="evenodd" clip-rule="evenodd" d="M246.584 174.359C248.89 174.397 250.997 175.003 252.904 176.179C253.924 182.031 251.885 186.138 246.786 188.5C249.422 191.001 252.122 193.532 254.885 196.093C256.072 196.935 257.25 196.918 258.42 196.042C264.398 188.744 270.376 181.445 276.353 174.147C279.076 169.818 279.485 165.334 277.576 160.693C275.016 159.619 272.414 158.949 269.768 158.683C262.606 164.97 254.878 170.196 246.584 174.359Z" fill="#24312E"/>
<path fill-rule="evenodd" clip-rule="evenodd" d="M242.29 147.987C244.537 147.466 246.728 147.545 248.862 148.225C251.267 153.657 250.281 158.135 245.904 161.66C249.066 163.449 252.297 165.253 255.598 167.07C256.953 167.6 258.092 167.298 259.016 166.166C263.053 157.639 267.089 149.113 271.125 140.586C272.721 135.727 272.033 131.277 269.06 127.235C266.316 126.811 263.629 126.79 260.998 127.172C255.567 135.004 249.331 141.943 242.29 147.987Z" fill="#24312E"/>
<path fill-rule="evenodd" clip-rule="evenodd" d="M64.6543 159.355C69.2741 157.06 76.1717 155.316 78.3482 155.193C79.9786 155.1 90.0392 158.221 104.078 161.494C112.476 162.684 120.922 162.909 129.415 162.17C130.684 164.571 131.703 167.073 132.474 169.677C133.813 177.933 135.405 186.126 137.252 194.254C136.837 194.547 136.584 194.962 136.494 195.501C114.648 197.82 93.3376 195.56 72.5634 188.724C64.6926 184.704 59.5465 178.469 57.1254 170.02C58.6637 165.792 61.1736 162.238 64.6543 159.355Z" fill="#293C32"/>
<path fill-rule="evenodd" clip-rule="evenodd" d="M140.081 72.2892C140.111 72.5574 140.14 72.8258 140.17 73.094C138.937 74.7731 138.338 76.7395 138.375 78.9931C136.301 82.3422 133.779 85.3347 130.81 87.9706C118.955 112.399 107.111 136.78 95.2801 161.114C94.0083 161.941 93.1871 163.117 92.8175 164.643C93.9111 172.429 90.6281 177.134 82.9671 178.759C73.1518 178.225 68.5081 173.034 69.036 163.187C70.0167 160.193 71.6289 157.572 73.8727 155.324C77.4692 150.996 77.5134 151.398 81.6629 144.693C96.4667 124.086 110.006 102.777 122.28 80.7638C123.336 78.5106 124.441 76.2169 125.595 73.8829C126.455 70.1807 128.856 68.5591 132.798 69.0178C134.557 68.9601 136.315 68.9025 138.073 68.8448C139.409 69.6017 140.077 70.7499 140.081 72.2892Z" fill="#EBBC7C"/>
<rect x="155" y="249" width="177" height="8.00001" transform="rotate(-90 155 249)" fill="#4C5D4F"/>
</g>
<defs>
<clipPath id="clip0_63_586">
<rect width="300" height="300" fill="white"/>
</clipPath>
</defs>
</svg>
