<svg width="300" height="300" viewBox="0 0 300 300" fill="none" xmlns="http://www.w3.org/2000/svg">
<g clip-path="url(#clip0_57_123)">
<path fill-rule="evenodd" clip-rule="evenodd" d="M-0.5 -0.5C99.5 -0.5 199.5 -0.5 299.5 -0.5C299.5 99.5 299.5 199.5 299.5 299.5C199.5 299.5 99.5 299.5 -0.5 299.5C-0.5 199.5 -0.5 99.5 -0.5 -0.5Z" fill="#FDF3E6"/>
<path fill-rule="evenodd" clip-rule="evenodd" d="M160.954 44.1628C160.646 44.1628 160.336 44.1628 160.028 44.1628C159.141 43.7435 158.369 43.1261 157.713 42.3108C157.627 38.2916 157.627 34.2789 157.713 30.273C157.029 29.2783 156.103 28.6609 154.935 28.421C153.066 30.035 151.059 31.1153 148.916 31.6619C148.178 28.1937 147.715 24.6441 147.527 21.0131C144.29 20.3621 141.049 19.7447 137.804 19.1611C135.234 16.3737 135.543 13.7501 138.73 11.2902C149.023 7.19972 158.437 8.5887 166.973 15.4571C170.079 20.2404 171.005 25.4877 169.751 31.1989C167.943 36.3837 165.01 40.7051 160.954 44.1628Z" fill="#29332E"/>
<path fill-rule="evenodd" clip-rule="evenodd" d="M64 71C120.498 71 177.002 71 233.5 71C233.5 72.615 233.5 74.2299 233.5 75.8449C177.002 75.8449 120.498 75.8449 64 75.8449C64 74.2299 64 72.615 64 71Z" fill="#4A453B"/>
<path fill-rule="evenodd" clip-rule="evenodd" d="M109.816 73.0142C109.816 74.5575 109.816 76.1008 109.816 77.6441C108.5 81.5 109.341 81.5344 108 85C110.5 88 111.332 85.052 112.5 78.5701C115 71.5 119 66 124.169 59.7191C126.795 57.326 129.881 56.2458 133.429 56.4781C133.859 65.9388 132.007 74.8901 127.873 83.3318C122.356 91.1638 118 93.5 109.816 97C108 97.5 105 97.5 103.5 96.5C101.5 94.5 99.5944 92.6342 98.704 89.8137C97.5 86 97.8 86.5 97 84.5C96 82 95.5 81 95 78.5701C95 76.4095 95 74.2488 95 72.0882C95 71.1622 95 70.2362 95 69.3102C98.1573 69.0492 101.244 68.4318 104.26 67.4582C105.166 67.8997 105.937 68.5169 106.575 69.3102C107.24 68.43 108.011 68.2757 108.89 68.8472C109.705 70.103 110.014 71.4919 109.816 73.0142Z" fill="#FAC795"/>
<path fill-rule="evenodd" clip-rule="evenodd" d="M190.674 73.0142C190.674 74.5575 190.674 76.1008 190.674 77.6441C191.99 81.5 191.149 81.5344 192.49 85C189.99 88 189.157 85.0521 187.99 78.5701C185.49 71.5 181.49 66 176.321 59.7191C173.695 57.3261 170.547 55.268 167 55.5004C166.569 64.9611 168.482 74.8901 172.617 83.3318C178.133 91.1638 182.49 93.5 190.674 97C192.49 97.5 195.49 97.5 196.99 96.5C198.99 94.5 200.895 92.6342 201.786 89.8137C202.99 86 202.69 86.5 203.49 84.5C204.49 82 204.99 81 205.49 78.5701C205.49 76.4095 205.49 74.2488 205.49 72.0882C205.49 71.1622 205.49 70.2362 205.49 69.3102C202.332 69.0492 199.246 68.4319 196.23 67.4583C195.324 67.8997 194.553 68.5169 193.915 69.3102C193.25 68.43 192.478 68.2757 191.6 68.8472C190.785 70.103 190.476 71.492 190.674 73.0142Z" fill="#FAC795"/>
<path fill-rule="evenodd" clip-rule="evenodd" d="M141.508 54.3488C147.064 58.0527 152.62 58.0527 158.176 54.3488C161.307 54.3113 164.393 54.62 167.436 55.2747C167.705 65.2978 169.865 74.8664 173.918 83.9804C172.511 95.9599 171.585 107.998 171.14 120.094C156.538 121.601 142.031 121.292 127.618 119.168C127.568 107.098 126.951 95.0599 125.766 83.0544C129.901 74.6127 131.753 65.6615 131.322 56.2007C134.449 54.7355 137.843 54.1183 141.508 54.3488Z" fill="#26312C"/>
<path fill-rule="evenodd" clip-rule="evenodd" d="M127.619 119.168C142.031 121.292 156.538 121.601 171.14 120.094C174.182 136.316 175.262 152.676 174.381 169.171C171.911 183.987 169.443 198.803 166.973 213.619C166.618 214.134 166.155 214.442 165.584 214.545C161.818 213.106 157.806 212.489 153.546 212.693C153.701 196.331 153.546 179.972 153.083 163.615C152.731 157.288 151.651 151.116 149.842 145.096C147.763 154.413 146.22 163.827 145.212 173.338C147.929 186.192 149.164 199.002 148.916 211.767C145.217 213 141.513 214.236 137.804 215.471C136.882 215.55 136.111 215.241 135.489 214.545C132.257 201.924 129.17 189.269 126.23 176.579C124.214 157.381 124.677 138.243 127.619 119.168Z" fill="#C36D3A"/>
<path fill-rule="evenodd" clip-rule="evenodd" d="M153.5 244.5C151.713 250.831 150.046 250.498 148.5 243.5C148.768 229.715 147.434 215.881 144.5 202C145.588 191.729 147.255 181.562 149.5 171.5C151.453 178.001 152.62 184.667 153 191.5C153.5 209.164 153.667 226.83 153.5 244.5Z" fill="#FAEEDF"/>
<path fill-rule="evenodd" clip-rule="evenodd" d="M148.916 211.767C150.348 218.247 151.891 218.555 153.546 212.693C157.806 212.489 161.818 213.106 165.584 214.545C168.751 223.523 166.591 231.086 159.102 237.231C156.029 239.551 152.633 240.477 148.916 240.009C147.709 239.265 147.091 238.184 147.064 236.768C148.701 234.126 149.782 231.348 150.305 228.434C145.846 236.037 139.364 239.432 130.859 238.62C130.955 234.683 132.189 230.979 134.563 227.508C136.056 223.59 137.137 219.576 137.804 215.471C141.513 214.235 145.217 213 148.916 211.767Z" fill="#2B332D"/>
<path fill-rule="evenodd" clip-rule="evenodd" d="M137.804 19.1611C141.049 19.7448 144.29 20.3621 147.527 21.0131C147.715 24.6442 148.178 28.1938 148.916 31.662C151.059 31.1154 153.066 30.035 154.935 28.421C156.103 28.6609 157.029 29.2783 157.713 30.273C157.627 34.2789 157.627 38.2916 157.713 42.3109C158.369 43.1262 159.141 43.7436 160.028 44.1628C160.028 44.7802 160.028 45.3975 160.028 46.0148C159.286 47.4425 158.978 48.9859 159.102 50.6448C158.422 51.7633 158.114 52.998 158.176 54.3487C152.62 58.0527 147.064 58.0527 141.508 54.3487C142.527 53.3256 143.145 52.091 143.36 50.6448C140.521 49.3734 137.743 47.83 135.026 46.0148C134.562 42.2282 133.636 38.5242 132.248 34.9029C133.873 29.5348 135.725 24.2875 137.804 19.1611Z" fill="#F8C694"/>
<rect x="226" y="274" width="203" height="8.00001" transform="rotate(-90 226 274)" fill="#4A453B"/>
<rect x="64" y="274" width="203" height="8.00001" transform="rotate(-90 64 274)" fill="#4A453B"/>
</g>
<defs>
<clipPath id="clip0_57_123">
<rect width="300" height="300" fill="white"/>
</clipPath>
</defs>
</svg>
