<svg width="300" height="300" viewBox="0 0 300 300" fill="none" xmlns="http://www.w3.org/2000/svg">
<g clip-path="url(#clip0_41_399)">
<path fill-rule="evenodd" clip-rule="evenodd" d="M-0.5 -0.5C99.5 -0.5 199.5 -0.5 299.5 -0.5C299.5 99.5 299.5 199.5 299.5 299.5C199.5 299.5 99.5 299.5 -0.5 299.5C-0.5 199.5 -0.5 99.5 -0.5 -0.5Z" fill="#FBF1E4"/>
<path fill-rule="evenodd" clip-rule="evenodd" d="M54.5 57.5C54.7678 59.099 54.4345 60.4324 53.5 61.5C53.0983 57.7644 51.0983 55.7644 47.5 55.5C47.5 43.1667 47.5 30.8333 47.5 18.5C49.8333 18.5 52.1667 18.5 54.5 18.5C54.5 31.5 54.5 44.5 54.5 57.5Z" fill="#394844"/>
<path fill-rule="evenodd" clip-rule="evenodd" d="M47.5 55.5C51.0983 55.7644 53.0983 57.7644 53.5 61.5C53.5 62.1667 53.5 62.8333 53.5 63.5C52.6993 65.0418 52.366 66.7085 52.5 68.5C51.596 69.209 51.2627 70.209 51.5 71.5C50.0413 71.5674 48.7079 71.2341 47.5 70.5C47.1667 70.5 46.8333 70.5 46.5 70.5C44.1194 66.0499 43.9527 61.3832 46 56.5C46.3826 55.944 46.8826 55.6107 47.5 55.5Z" fill="#F3BF88"/>
<path fill-rule="evenodd" clip-rule="evenodd" d="M54.5 57.5C54.8333 57.5 55.1667 57.5 55.5 57.5C55.5 63.8333 55.5 70.1667 55.5 76.5C55.1667 76.5 54.8333 76.5 54.5 76.5C54.8182 71.9677 54.4849 67.6344 53.5 63.5C53.5 62.8333 53.5 62.1667 53.5 61.5C54.4345 60.4324 54.7678 59.099 54.5 57.5Z" fill="#AD946F"/>
<path fill-rule="evenodd" clip-rule="evenodd" d="M52.5 68.5C53.6347 90.8028 53.8014 113.136 53 135.5C51.6439 134.62 50.1439 134.286 48.5 134.5C48.5 113.833 48.5 93.1667 48.5 72.5C49.791 72.7373 50.791 72.404 51.5 71.5C51.2627 70.209 51.596 69.209 52.5 68.5Z" fill="#3C4C47"/>
<path fill-rule="evenodd" clip-rule="evenodd" d="M54.5 76.5C54.8333 76.5 55.1667 76.5 55.5 76.5C57.0174 76.5106 58.1841 77.1772 59 78.5C62.9133 86.6665 67.58 94.3332 73 101.5C74.4879 107.44 75.6546 113.44 76.5 119.5C74.757 124.327 74.0903 129.327 74.5 134.5C73.701 137.43 73.3677 140.43 73.5 143.5C70.3915 143.264 67.3915 143.597 64.5 144.5C62.2126 141.223 59.2126 138.556 55.5 136.5C54.5004 116.511 54.167 96.5111 54.5 76.5Z" fill="#F7EEE1"/>
<path fill-rule="evenodd" clip-rule="evenodd" d="M55.5 57.5C60.6714 59.8457 63.8381 63.8457 65 69.5C71.0417 75.8729 76.7084 82.5396 82 89.5C87.2886 101.365 90.9553 113.698 93 126.5C93.6979 127.691 94.5313 128.691 95.5 129.5C88.4587 131.01 81.4587 132.677 74.5 134.5C74.0903 129.327 74.757 124.327 76.5 119.5C75.6546 113.44 74.4879 107.44 73 101.5C67.58 94.3332 62.9133 86.6665 59 78.5C58.1841 77.1772 57.0174 76.5106 55.5 76.5C55.5 70.1667 55.5 63.8333 55.5 57.5Z" fill="#F7C18A"/>
<path fill-rule="evenodd" clip-rule="evenodd" d="M46.5 70.5C46.8333 70.5 47.1667 70.5 47.5 70.5C48.1555 92.1928 47.4888 113.526 45.5 134.5C46.4882 113.242 46.8215 91.9088 46.5 70.5Z" fill="#C4C3BC"/>
<path fill-rule="evenodd" clip-rule="evenodd" d="M95.5 129.5C104.237 130.016 112.904 131.182 121.5 133C127.491 133.499 133.491 133.666 139.5 133.5C140.952 137.665 141.619 141.999 141.5 146.5C141.004 155.973 139.671 165.306 137.5 174.5C124.174 173.778 111.008 174.778 98 177.5C97.0979 177.257 96.2646 176.923 95.5 176.5C93.2004 173.676 90.2004 171.843 86.5 171C82.5138 170.501 78.5138 170.334 74.5 170.5C74.302 166.908 73.302 163.574 71.5 160.5C79.9441 159.289 82.4441 154.622 79 146.5C77.7365 144.393 75.9032 143.393 73.5 143.5C73.3677 140.43 73.701 137.43 74.5 134.5C81.4587 132.677 88.4587 131.01 95.5 129.5Z" fill="#233230"/>
<path fill-rule="evenodd" clip-rule="evenodd" d="M53.5 63.5C54.4849 67.6344 54.8182 71.9677 54.5 76.5C54.167 96.5111 54.5004 116.511 55.5 136.5C59.2126 138.556 62.2126 141.223 64.5 144.5C64.1344 145.695 63.301 146.361 62 146.5C55.4338 142.637 52.7671 144.304 54 151.5C52.874 152.944 51.374 153.61 49.5 153.5C47.7759 153.096 46.1092 152.929 44.5 153C43.5767 155.86 42.5767 158.693 41.5 161.5C36.0326 162.896 33.1993 160.563 33 154.5C31.3895 146.32 33.8895 139.82 40.5 135C42.1341 134.506 43.8008 134.34 45.5 134.5C47.4888 113.526 48.1555 92.1928 47.5 70.5C48.7079 71.2341 50.0413 71.5674 51.5 71.5C50.791 72.404 49.791 72.7373 48.5 72.5C48.5 93.1667 48.5 113.833 48.5 134.5C50.1439 134.286 51.6439 134.62 53 135.5C53.8014 113.136 53.6347 90.8028 52.5 68.5C52.366 66.7085 52.6993 65.0418 53.5 63.5Z" fill="#253533"/>
<path fill-rule="evenodd" clip-rule="evenodd" d="M139.5 133.5C160.141 132.788 180.474 134.955 200.5 140C219.15 141.024 237.484 143.857 255.5 148.5C255.041 151.877 254.374 155.211 253.5 158.5C249.859 159.981 246.025 160.648 242 160.5C222.851 159.089 203.685 158.089 184.5 157.5C181.36 156.359 178.027 156.192 174.5 157C177.478 157.696 180.478 158.196 183.5 158.5C206.994 162.461 230.661 164.128 254.5 163.5C255.512 167.87 255.512 172.203 254.5 176.5C253.527 176.987 252.527 177.487 251.5 178C218.167 178.667 184.833 178.667 151.5 178C146.678 177.335 142.012 176.168 137.5 174.5C139.671 165.306 141.004 155.973 141.5 146.5C141.619 141.999 140.952 137.665 139.5 133.5Z" fill="#C07135"/>
<path fill-rule="evenodd" clip-rule="evenodd" d="M73.5 143.5C75.9032 143.393 77.7365 144.393 79 146.5C82.4441 154.622 79.9441 159.289 71.5 160.5C70.1266 160.343 68.7932 160.51 67.5 161C66.0836 163.835 64.417 166.502 62.5 169C60.1152 169.556 57.7819 169.39 55.5 168.5C55.5 167.833 55.1667 167.5 54.5 167.5C52.139 167.326 49.8056 166.993 47.5 166.5C45.1331 165.311 43.1331 163.644 41.5 161.5C42.5767 158.693 43.5767 155.86 44.5 153C46.1092 152.929 47.7759 153.096 49.5 153.5C51.374 153.61 52.874 152.944 54 151.5C52.7671 144.304 55.4338 142.637 62 146.5C63.301 146.361 64.1344 145.695 64.5 144.5C67.3915 143.597 70.3915 143.264 73.5 143.5Z" fill="#F5C18A"/>
<path fill-rule="evenodd" clip-rule="evenodd" d="M253.5 158.5C254.374 155.211 255.041 151.877 255.5 148.5C261.502 147.323 267.502 146.49 273.5 146C277.124 148.161 278.291 151.328 277 155.5C274.439 159.75 270.606 161.583 265.5 161C262.167 161.667 258.833 161.667 255.5 161C254.619 160.292 253.953 159.458 253.5 158.5Z" fill="#253431"/>
<path fill-rule="evenodd" clip-rule="evenodd" d="M184.5 157.5C183.833 157.5 183.5 157.833 183.5 158.5C180.478 158.196 177.478 157.696 174.5 157C178.027 156.192 181.36 156.359 184.5 157.5Z" fill="#D3A382"/>
<path fill-rule="evenodd" clip-rule="evenodd" d="M71.5 160.5C73.302 163.574 74.302 166.908 74.5 170.5C75.0608 190.754 68.7274 208.754 55.5 224.5C55.5 205.833 55.5 187.167 55.5 168.5C57.7819 169.39 60.1152 169.556 62.5 169C64.417 166.502 66.0836 163.835 67.5 161C68.7932 160.51 70.1266 160.343 71.5 160.5Z" fill="#FBF1E4"/>
<path fill-rule="evenodd" clip-rule="evenodd" d="M254.5 163.5C260.577 163.196 266.577 163.696 272.5 165C275.683 166.018 277.016 168.185 276.5 171.5C275.366 178.246 271.366 180.746 264.5 179C261.28 177.648 257.947 176.814 254.5 176.5C255.512 172.203 255.512 167.87 254.5 163.5Z" fill="#233230"/>
<path fill-rule="evenodd" clip-rule="evenodd" d="M47.5 166.5C49.8056 166.993 52.139 167.326 54.5 167.5C54.5 167.833 54.5 168.167 54.5 168.5C53.5028 188.66 53.1695 208.993 53.5 229.5C51.6208 228.659 49.6208 228.325 47.5 228.5C47.5 207.833 47.5 187.167 47.5 166.5Z" fill="#3A4A45"/>
<path fill-rule="evenodd" clip-rule="evenodd" d="M74.5 170.5C78.5138 170.334 82.5138 170.501 86.5 171C90.2004 171.843 93.2004 173.676 95.5 176.5C93.6386 178.111 92.1386 180.111 91 182.5C87.5597 192.715 83.5597 202.715 79 212.5C73 220.5 67 228.5 61 236.5C59.2962 238.373 57.4628 240.04 55.5 241.5C55.5 235.833 55.5 230.167 55.5 224.5C68.7274 208.754 75.0608 190.754 74.5 170.5Z" fill="#F7C18A"/>
<path fill-rule="evenodd" clip-rule="evenodd" d="M54.5 168.5C54.5 204.167 54.5 239.833 54.5 275.5C53.5 275.5 52.5 275.5 51.5 275.5C53.4565 261.411 54.1232 247.077 53.5 232.5C53.5 231.5 53.5 230.5 53.5 229.5C53.1695 208.993 53.5028 188.66 54.5 168.5Z" fill="#233433"/>
<path fill-rule="evenodd" clip-rule="evenodd" d="M47.5 228.5C49.6208 228.325 51.6208 228.659 53.5 229.5C53.5 230.5 53.5 231.5 53.5 232.5C52.6805 235.305 52.1805 238.305 52 241.5C50.6703 242.582 49.1703 243.249 47.5 243.5C46.5041 243.586 45.6708 243.252 45 242.5C44.3333 238.5 44.3333 234.5 45 230.5C45.7083 229.619 46.5416 228.953 47.5 228.5Z" fill="#F6C18A"/>
<path fill-rule="evenodd" clip-rule="evenodd" d="M53.5 232.5C54.1232 247.077 53.4565 261.411 51.5 275.5C50.1667 275.5 48.8333 275.5 47.5 275.5C47.5 264.833 47.5 254.167 47.5 243.5C49.1703 243.249 50.6703 242.582 52 241.5C52.1805 238.305 52.6805 235.305 53.5 232.5Z" fill="#3A4A45"/>
<path fill-rule="evenodd" clip-rule="evenodd" d="M54.5 167.5C55.1667 167.5 55.5 167.833 55.5 168.5C55.5 187.167 55.5 205.833 55.5 224.5C55.5 230.167 55.5 235.833 55.5 241.5C55.5 251.833 55.5 262.167 55.5 272.5C118.501 272.333 181.501 272.5 244.5 273C246.301 273.317 246.634 273.984 245.5 275C180.674 276.722 116.008 276.889 51.5 275.5C52.5 275.5 53.5 275.5 54.5 275.5C54.5 239.833 54.5 204.167 54.5 168.5C54.5 168.167 54.5 167.833 54.5 167.5Z" fill="#E9DECD"/>
</g>
<defs>
<clipPath id="clip0_41_399">
<rect width="300" height="300" fill="white"/>
</clipPath>
</defs>
</svg>
