<svg width="300" height="300" viewBox="0 0 300 300" fill="none" xmlns="http://www.w3.org/2000/svg">
<g clip-path="url(#clip0_57_39)">
<path fill-rule="evenodd" clip-rule="evenodd" d="M0 -1C100 -1 200 -1 300 -1C300 99 300 199 300 299C200 299 100 299 0 299C0 199 0 99 0 -1Z" fill="#FEF5E8"/>
<rect x="113" y="72" width="63" height="8" fill="#4C5D4F"/>
<rect x="113" y="249" width="177" height="8.00001" transform="rotate(-90 113 249)" fill="#4C5D4F"/>
<path fill-rule="evenodd" clip-rule="evenodd" d="M69.8378 128.961C67.2889 130.342 65.3117 132.299 63.9066 134.832C65.326 137.367 66.2565 140.047 66.6982 142.872C63.7141 143.948 60.884 145.229 58.2085 146.716C58.2105 148.17 58.713 149.422 59.7168 150.473C65.1359 153.43 66.3689 157.588 63.4161 162.947C54.7903 161.265 48.7704 156.412 45.356 148.386C42.8071 141.871 43.9522 136.031 48.7917 130.867C51.1143 128.19 53.9937 126.307 57.4295 125.218C60.3919 123.846 63.4732 123.191 66.6733 123.251C69.1042 124.378 70.1591 126.281 69.8378 128.961Z" fill="#2A3D34"/>
<path fill-rule="evenodd" clip-rule="evenodd" d="M69.8378 128.961C73.9512 132.123 77.9147 135.476 81.728 139.019C81.8769 140.189 81.5525 141.192 80.7545 142.027C82.0124 145.884 83.2701 149.741 84.5279 153.599C82.374 155.544 79.9454 157.101 77.242 158.269C77.6441 159.27 78.0465 160.273 78.4486 161.274C74.8143 163.961 72.1121 167.372 70.3429 171.508C68.8227 168.001 66.5139 165.148 63.4161 162.947C66.3689 157.588 65.1358 153.43 59.7168 150.473C58.713 149.422 58.2104 148.17 58.2085 146.716C60.884 145.229 63.7141 143.948 66.6982 142.872C66.2565 140.047 65.326 137.367 63.9066 134.832C65.3117 132.299 67.2889 130.342 69.8378 128.961Z" fill="#F1BF82"/>
<path fill-rule="evenodd" clip-rule="evenodd" d="M258.122 174.761C258.354 170.688 257.966 164.921 257 161C252 160.5 250 161.896 242.013 161.896C234.009 162.106 226.012 162.507 218.022 163.098C205.534 161.972 193.026 161.077 180.498 160.413C171.572 160.692 162.747 161.767 154.025 163.636C149.702 163.09 145.366 162.794 141.017 162.745C141.567 172.97 139.648 182.653 135.261 191.795C146.725 199.803 158.057 199.54 169.255 191.009C180.048 189.223 190.694 186.8 201.195 183.74C209.525 183.337 217.856 182.933 226.186 182.53C236.925 180.249 247.571 177.659 258.122 174.761Z" fill="#CA793A"/>
<path fill-rule="evenodd" clip-rule="evenodd" d="M258.122 174.761C258.455 174.758 258.789 174.756 259.122 174.753C263.854 171.721 265.317 167.375 263.512 161.715C261.464 160.81 259.294 160.495 257.004 160.77C257.5 163.5 258.393 169.995 258.122 174.761Z" fill="#F2C394"/>
<path fill-rule="evenodd" clip-rule="evenodd" d="M257.004 160.77C259.294 160.495 261.464 160.809 263.512 161.715C265.317 167.375 263.853 171.721 259.122 174.753C262.073 176.873 265.091 179.015 268.176 181.177C269.466 181.85 270.631 181.673 271.672 180.647C276.604 172.606 281.537 164.564 286.469 156.522C288.58 151.864 288.376 147.366 285.856 143.027C283.174 142.309 280.505 141.999 277.848 142.094C271.604 149.295 264.656 155.52 257.004 160.77Z" fill="#24312E"/>
<path fill-rule="evenodd" clip-rule="evenodd" d="M77.6543 159.355C82.2741 157.06 89.1717 155.316 91.3482 155.193C92.9786 155.1 103.039 158.221 117.078 161.494C125.476 162.684 133.922 162.909 142.415 162.17C143.684 164.571 144.703 167.073 145.474 169.677C146.813 177.933 148.405 186.126 150.252 194.254C149.837 194.547 149.584 194.962 149.494 195.501C127.648 197.82 106.338 195.56 85.5634 188.724C77.6926 184.704 72.5465 178.469 70.1254 170.02C71.6637 165.792 74.1736 162.238 77.6543 159.355Z" fill="#293C32"/>
<path fill-rule="evenodd" clip-rule="evenodd" d="M153.081 72.2892C153.111 72.5574 153.14 72.8258 153.17 73.094C151.937 74.7731 151.338 76.7395 151.375 78.9931C149.301 82.3422 146.779 85.3347 143.81 87.9706C131.955 112.399 120.111 136.78 108.28 161.114C107.008 161.941 106.187 163.117 105.817 164.643C106.911 172.429 103.628 177.134 95.9671 178.759C86.1518 178.225 81.5081 173.034 82.036 163.187C83.0167 160.193 84.6289 157.572 86.8727 155.324C90.4692 150.996 90.5134 151.398 94.6629 144.693C109.467 124.086 123.006 102.777 135.28 80.7638C136.336 78.5106 137.441 76.2169 138.595 73.8829C139.455 70.1807 141.856 68.5591 145.798 69.0178C147.557 68.9601 149.315 68.9025 151.073 68.8448C152.409 69.6017 153.077 70.7499 153.081 72.2892Z" fill="#EBBC7C"/>
<path fill-rule="evenodd" clip-rule="evenodd" d="M201.207 149.487C201.54 149.476 201.873 149.465 202.206 149.454C206.861 146.306 208.217 141.925 206.272 136.312C204.202 135.457 202.025 135.196 199.743 135.528C199.555 136.53 199.694 137.105 199.809 137.527C200.872 141.423 201.338 145.41 201.207 149.487Z" fill="#F2C394"/>
<path fill-rule="evenodd" clip-rule="evenodd" d="M199.743 135.528C202.025 135.196 204.202 135.457 206.273 136.312C208.217 141.925 206.862 146.306 202.206 149.454C205.209 151.5 208.279 153.566 211.417 155.652C212.723 156.293 213.884 156.087 214.899 155.036C219.63 146.874 224.362 138.713 229.094 130.551C231.089 125.842 230.774 121.35 228.146 117.075C225.447 116.424 222.772 116.18 220.118 116.341C214.054 123.694 207.263 130.09 199.743 135.528Z" fill="#24312E"/>
<path fill-rule="evenodd" clip-rule="evenodd" d="M204.256 133.926C206.625 140.188 205.487 145.707 200.843 150.481C189.021 149.77 177.359 148.092 165.859 145.445C168.643 153.823 170.625 162.451 171.804 171.332C173.548 183.713 168.592 192.006 156.936 196.213C150.378 197.675 143.867 197.573 137.405 195.907C138.447 187.639 139.751 179.397 141.315 171.182C141.48 168.471 141.377 165.772 141.006 163.082C140.649 159.05 140.293 155.018 139.937 150.986C140.34 145.953 140.426 140.798 140.196 135.523C140.8 130.545 142.851 126.165 146.349 122.383C150.385 121.416 154.441 121.328 158.516 122.12C173.852 125.814 189.099 129.749 204.256 133.926Z" fill="#C56820"/>
<rect x="168" y="249" width="177" height="8.00001" transform="rotate(-90 168 249)" fill="#4C5D4F"/>
</g>
<defs>
<clipPath id="clip0_57_39">
<rect width="300" height="300" fill="white"/>
</clipPath>
</defs>
</svg>
