<svg width="300" height="300" viewBox="0 0 300 300" fill="none" xmlns="http://www.w3.org/2000/svg">
<g clip-path="url(#clip0_41_485)">
<path fill-rule="evenodd" clip-rule="evenodd" d="M-0.5 -0.5C99.5 -0.5 199.5 -0.5 299.5 -0.5C299.5 99.5 299.5 199.5 299.5 299.5C199.5 299.5 99.5 299.5 -0.5 299.5C-0.5 199.5 -0.5 99.5 -0.5 -0.5Z" fill="#FBF1E3"/>
<path fill-rule="evenodd" clip-rule="evenodd" d="M57.5 127.5C54.6085 134.058 50.6085 134.891 45.5 130C39.7724 129.552 38.4391 131.719 41.5 136.5C36.9522 138.078 32.7855 137.411 29 134.5C26.7287 136.707 25.2287 139.374 24.5 142.5C21.0992 143.655 18.9325 142.322 18 138.5C17.5176 127.312 22.3509 119.145 32.5 114C43.7285 113.047 52.0618 117.547 57.5 127.5Z" fill="#24322F"/>
<path fill-rule="evenodd" clip-rule="evenodd" d="M132.5 122.5C136.964 131.605 138.964 141.271 138.5 151.5C137.596 152.209 137.263 153.209 137.5 154.5C130.146 154.479 122.813 154.813 115.5 155.5C110.906 149.731 106.073 144.064 101 138.5C99.7502 124.462 92.5835 119.962 79.5 125C73.3554 131.324 72.8554 138.157 78 145.5C81.0919 148.422 84.5919 150.755 88.5 152.5C89.8569 154.186 91.1902 155.852 92.5 157.5C91.791 158.404 90.791 158.737 89.5 158.5C81.3361 156.991 74.3361 153.324 68.5 147.5C67.1828 141.562 66.1828 135.562 65.5 129.5C74.3401 119.829 85.3401 115.996 98.5 118C104.203 119.176 109.87 120.509 115.5 122C121.157 122.499 126.824 122.666 132.5 122.5Z" fill="#24322E"/>
<path fill-rule="evenodd" clip-rule="evenodd" d="M255.5 138.5C255.766 142.571 255.433 148.571 254.5 152.5C249 151 245 151.5 239.5 151.5C231.494 151.357 223.494 151.023 215.5 150.5C203.022 151.731 190.522 152.731 178 153.5C169.072 153.296 160.238 152.296 151.5 150.5C147.182 151.082 142.849 151.415 138.5 151.5C138.964 141.271 136.964 131.605 132.5 122.5C143.896 114.396 155.23 114.563 166.5 123C177.307 124.695 187.973 127.028 198.5 130C206.833 130.333 215.167 130.667 223.5 131C234.258 133.19 244.925 135.69 255.5 138.5Z" fill="#CA793A"/>
<path fill-rule="evenodd" clip-rule="evenodd" d="M57.5 127.5C59.8028 130.003 62.4695 130.67 65.5 129.5C66.1828 135.562 67.1828 141.562 68.5 147.5C64.4862 147.334 60.4862 147.501 56.5 148C54.9633 150.28 53.7967 152.78 53 155.5C52.044 156.894 50.7106 157.561 49 157.5C45.9912 156.997 43.1578 155.997 40.5 154.5C38.802 155.681 37.1353 155.681 35.5 154.5C31.9963 150.271 28.3296 146.271 24.5 142.5C25.2287 139.374 26.7287 136.707 29 134.5C32.7855 137.411 36.9522 138.078 41.5 136.5C38.4391 131.719 39.7724 129.552 45.5 130C50.6085 134.891 54.6085 134.058 57.5 127.5Z" fill="#F7C798"/>
<path fill-rule="evenodd" clip-rule="evenodd" d="M115.5 155.5C123.697 169.275 128.031 184.275 128.5 200.5C127.514 202.426 126.514 204.426 125.5 206.5C117.167 206.5 108.833 206.5 100.5 206.5C99.4019 205.603 99.4019 204.77 100.5 204C98.9419 203.79 97.6085 203.29 96.5 202.5C99.5184 202.665 102.518 202.498 105.5 202C109.826 200.669 114.16 199.502 118.5 198.5C118.662 196.473 118.495 194.473 118 192.5C114.59 184.681 110.923 177.014 107 169.5C101.66 165.983 96.8271 161.983 92.5 157.5C91.1902 155.852 89.8569 154.186 88.5 152.5C84.5919 150.755 81.0919 148.422 78 145.5C72.8554 138.157 73.3554 131.324 79.5 125C92.5835 119.962 99.7502 124.462 101 138.5C106.073 144.064 110.906 149.731 115.5 155.5Z" fill="#F8C694"/>
<path fill-rule="evenodd" clip-rule="evenodd" d="M255.5 138.5C255.833 138.5 256.167 138.5 256.5 138.5C261.257 141.492 262.757 145.825 261 151.5C258.959 152.423 256.792 152.756 254.5 152.5C255.5 143.5 255.5 145 255.5 138.5Z" fill="#F2C394"/>
<path fill-rule="evenodd" clip-rule="evenodd" d="M254.5 152.5C256.792 152.756 258.959 152.423 261 151.5C262.757 145.825 261.257 141.492 256.5 138.5C259.433 136.355 262.433 134.188 265.5 132C266.784 131.316 267.951 131.483 269 132.5C274 140.5 279 148.5 284 156.5C286.15 161.14 285.984 165.64 283.5 170C280.824 170.74 278.158 171.073 275.5 171C269.196 163.852 262.196 157.685 254.5 152.5Z" fill="#24312E"/>
<path fill-rule="evenodd" clip-rule="evenodd" d="M92.5 157.5C96.8271 161.983 101.66 165.983 107 169.5C110.923 177.014 114.59 184.681 118 192.5C118.495 194.473 118.662 196.473 118.5 198.5C114.16 199.502 109.826 200.669 105.5 202C102.518 202.498 99.5184 202.665 96.5 202.5C95.8333 202.5 95.5 202.167 95.5 201.5C101.755 199.415 107.755 196.748 113.5 193.5C107.7 180.203 99.7001 168.537 89.5 158.5C90.791 158.737 91.791 158.404 92.5 157.5Z" fill="#E1A971"/>
<path fill-rule="evenodd" clip-rule="evenodd" d="M95.5 201.5C95.5 202.167 95.8333 202.5 96.5 202.5C97.6085 203.29 98.9419 203.79 100.5 204C99.4019 204.77 99.4019 205.603 100.5 206.5C79.1492 206.718 57.8159 206.218 36.5 205C35.1854 203.605 35.5188 202.605 37.5 202C56.8305 201.5 76.1638 201.333 95.5 201.5Z" fill="#F3E5D3"/>
<path fill-rule="evenodd" clip-rule="evenodd" d="M128.5 200.5C178.333 201.4 228.333 202.067 278.5 202.5C278.5 203.5 278.5 204.5 278.5 205.5C227.503 206.147 176.503 206.48 125.5 206.5C126.514 204.426 127.514 202.426 128.5 200.5Z" fill="#F3E5D2"/>
</g>
<defs>
<clipPath id="clip0_41_485">
<rect width="300" height="300" fill="white"/>
</clipPath>
</defs>
</svg>
