<svg width="300" height="300" viewBox="0 0 300 300" fill="none" xmlns="http://www.w3.org/2000/svg">
<g clip-path="url(#clip0_42_8453)">
<path fill-rule="evenodd" clip-rule="evenodd" d="M-0.5 -0.5C99.5 -0.5 199.5 -0.5 299.5 -0.5C299.5 99.5 299.5 199.5 299.5 299.5C199.5 299.5 99.5 299.5 -0.5 299.5C-0.5 199.5 -0.5 99.5 -0.5 -0.5Z" fill="#FEF7E8"/>
<path fill-rule="evenodd" clip-rule="evenodd" d="M114.5 34.5C137.167 34.5 159.833 34.5 182.5 34.5C182.232 36.099 182.566 37.4324 183.5 38.5C183.5 39.5 183.5 40.5 183.5 41.5C182.5 41.5 181.5 41.5 180.5 41.5C159.5 41.5 138.5 41.5 117.5 41.5C116.5 41.5 115.5 41.5 114.5 41.5C114.5 39.1667 114.5 36.8333 114.5 34.5Z" fill="#414F49"/>
<path fill-rule="evenodd" clip-rule="evenodd" d="M117.5 41.5C138.5 41.5 159.5 41.5 180.5 41.5C180.989 44.4447 182.489 46.7781 185 48.5C183.136 68.5924 176.969 87.2591 166.5 104.5C164.5 104.5 162.5 104.5 160.5 104.5C160.5 101.167 160.5 97.8333 160.5 94.5C166.212 88.7385 169.546 81.7385 170.5 73.5C168.102 60.6198 160.269 54.6198 147 55.5C140.764 55.2208 135.431 57.2208 131 61.5C130.109 64.4976 130.609 67.1643 132.5 69.5C130.751 76.4161 129.418 83.4161 128.5 90.5C129.822 90.33 130.989 90.6634 132 91.5C132.539 94.5285 133.206 97.5285 134 100.5C136.565 101.47 138.732 102.804 140.5 104.5C137.5 104.5 134.5 104.5 131.5 104.5C121.031 87.2591 114.864 68.5924 113 48.5C115.511 46.7781 117.011 44.4447 117.5 41.5Z" fill="#FCF6E7"/>
<path fill-rule="evenodd" clip-rule="evenodd" d="M118.792 32.8424C118.792 33.1494 118.792 33.4566 118.792 33.7636C118.792 35.913 118.792 38.0626 118.792 40.212C119.713 40.212 120.634 40.212 121.555 40.212C121.105 42.9247 119.723 45.0742 117.41 46.6604C119.127 65.1696 124.808 82.3654 134.452 98.2477C133.638 105.806 131.948 113.176 129.386 120.357C128.733 121.168 127.965 121.782 127.083 122.199C119.177 105.083 113.189 87.2728 109.119 68.7693C108.143 60.7927 107.222 52.8089 106.356 44.818C105.658 43.1464 104.891 41.6111 104.053 40.212C103.867 37.9554 104.174 35.8059 104.974 33.7636C105.61 32.3614 106.685 31.4402 108.198 31C111.279 31.0816 114.503 31.2351 117.871 31.4606C118.383 31.8131 118.69 32.2737 118.792 32.8424Z" fill="#F3C283"/>
<path fill-rule="evenodd" clip-rule="evenodd" d="M161.167 89.0354C158.203 86.1815 157.588 82.8038 159.325 78.9022C159.175 75.2177 157.332 73.8359 153.797 74.7568C152.691 75.5882 151.923 76.6629 151.494 77.981C150.431 76.8357 149.203 75.9145 147.81 75.2174C147.609 72.5218 147.148 69.9117 146.428 67.3872C142.869 66.1402 139.184 65.6796 135.373 66.0054C133.631 63.8537 133.171 61.3972 133.992 58.6358C138.074 54.6938 142.986 52.8514 148.731 53.1086C160.954 52.2977 168.17 57.8249 170.379 69.6902C169.5 77.2795 166.429 83.7279 161.167 89.0354Z" fill="#283C36"/>
<path fill-rule="evenodd" clip-rule="evenodd" d="M196.173 33.7636C196.173 34.0706 196.173 34.3778 196.173 34.6848C196.173 36.5272 196.173 38.3696 196.173 40.212C193.929 69.4638 186.252 97.0999 173.143 123.12C169.414 115.266 167.264 106.975 166.694 98.2477C176.338 82.3654 182.019 65.1696 183.737 46.6604C181.423 45.0742 180.042 42.9247 179.591 40.212C180.512 40.212 181.434 40.212 182.355 40.212C182.355 39.2908 182.355 38.3696 182.355 37.4484C182.355 35.913 182.355 34.3778 182.355 32.8424C182.457 32.2737 182.764 31.8131 183.276 31.4606C186.753 31.2601 190.132 31.1066 193.409 31C194.657 31.634 195.579 32.5552 196.173 33.7636Z" fill="#F4C486"/>
<path fill-rule="evenodd" clip-rule="evenodd" d="M135.373 66.0055C139.184 65.6797 142.869 66.1403 146.428 67.3873C147.148 69.9119 147.609 72.5219 147.81 75.2176C149.203 75.9146 150.431 76.8358 151.494 77.9812C151.923 76.6631 152.691 75.5883 153.797 74.757C157.332 73.836 159.175 75.2178 159.325 78.9024C157.588 82.8039 158.203 86.1817 161.167 89.0356C161.167 92.1062 161.167 95.1772 161.167 98.2476C157.655 105.206 152.128 107.202 144.585 104.235C142.993 102.587 142.378 100.591 142.743 98.2476C141.114 96.6852 139.118 95.4564 136.755 94.5628C136.024 91.8254 135.409 89.0618 134.913 86.272C133.982 85.5013 132.906 85.1942 131.689 85.3508C132.534 78.8251 133.762 72.3767 135.373 66.0055Z" fill="#EEBB7C"/>
<path fill-rule="evenodd" clip-rule="evenodd" d="M99.5 34.4999C98.6314 36.7169 98.298 39.0503 98.5 41.4999C90.5 41.4999 82.5 41.4999 74.5 41.4999C74.5 119.5 74.5 197.5 74.5 275.5C72.1667 275.5 69.8333 275.5 67.5 275.5C67.3333 195.833 67.5 116.166 68 36.4999C68.5 35.9999 69 35.4999 69.5 34.9999C79.4944 34.5001 89.4944 34.3334 99.5 34.4999Z" fill="#46544E"/>
<path fill-rule="evenodd" clip-rule="evenodd" d="M134.452 98.2476C137.216 98.2476 139.979 98.2476 142.743 98.2476C142.378 100.591 142.993 102.587 144.585 104.235C152.128 107.202 157.655 105.206 161.167 98.2476C163.009 98.2476 164.852 98.2476 166.694 98.2476C167.264 106.975 169.414 115.266 173.143 123.12C173.048 135.264 172.433 147.24 171.3 159.047C157.579 161.174 143.761 161.481 129.846 159.968C129.065 147.418 128.144 134.828 127.083 122.199C127.965 121.781 128.733 121.168 129.386 120.356C131.948 113.176 133.638 105.806 134.452 98.2476Z" fill="#253933"/>
<path fill-rule="evenodd" clip-rule="evenodd" d="M198.5 35.5C206.833 35.5 215.167 35.5 223.5 35.5C222.488 37.1002 222.988 38.4335 225 39.5C225.5 118.166 225.667 196.833 225.5 275.5C223.503 197.84 222.836 119.84 223.5 41.5C215.167 41.5 206.833 41.5 198.5 41.5C198.5 39.5 198.5 37.5 198.5 35.5Z" fill="#485650"/>
<path fill-rule="evenodd" clip-rule="evenodd" d="M171.3 159.047C171.76 162.709 172.067 166.393 172.222 170.101C171.076 191.246 168.313 212.126 163.931 232.743C159.911 235.106 155.918 235.106 151.955 232.743C152.354 214.889 151.74 197.08 150.113 179.313C149.191 197.113 148.885 214.922 149.191 232.743C145.333 234.698 141.342 235.005 137.216 233.664C134.937 224.91 133.248 216.005 132.149 206.949C131.135 195.273 130.06 183.604 128.925 171.944C129.118 167.936 129.425 163.943 129.846 159.968C143.761 161.481 157.579 161.174 171.3 159.047Z" fill="#C5672A"/>
<path fill-rule="evenodd" clip-rule="evenodd" d="M223.5 35.4999C225.467 35.2605 227.301 35.5938 229 36.4999C229.5 116.166 229.667 195.833 229.5 275.5C228.167 275.5 226.833 275.5 225.5 275.5C225.667 196.833 225.5 118.166 225 39.4999C222.988 38.4334 222.488 37.1001 223.5 35.4999Z" fill="#4A5853"/>
<path fill-rule="evenodd" clip-rule="evenodd" d="M198.5 35.4998C198.5 35.1665 198.5 34.8331 198.5 34.4998C209.082 34.1799 219.582 34.5132 230 35.4998C230.832 115.668 230.666 195.668 229.5 275.5C229.667 195.833 229.5 116.166 229 36.4998C227.301 35.5937 225.467 35.2604 223.5 35.4998C215.167 35.4998 206.833 35.4998 198.5 35.4998Z" fill="#32433D"/>
<path fill-rule="evenodd" clip-rule="evenodd" d="M149.192 232.743C150.53 239.539 150.376 246.295 148.731 253.01C143.396 258.451 139.405 257.53 136.755 250.246C136.226 244.699 136.379 239.171 137.216 233.664C141.342 235.005 145.334 234.698 149.192 232.743Z" fill="#2A3E37"/>
<path fill-rule="evenodd" clip-rule="evenodd" d="M151.955 232.743C155.918 235.106 159.911 235.106 163.931 232.743C164.646 238.567 164.8 244.401 164.391 250.246C161.628 257.311 157.636 258.232 152.416 253.01C150.809 246.307 150.655 239.552 151.955 232.743Z" fill="#293D36"/>
<path fill-rule="evenodd" clip-rule="evenodd" d="M91 34.5C127.136 34.5 163.27 34.5 199.406 34.5C198.979 36.099 199.511 37.4324 201 38.5C201 39.5 201 40.5 201 41.5C199.406 41.5 197.812 41.5 196.217 41.5C162.739 41.5 129.261 41.5 95.7826 41.5C94.1884 41.5 92.5942 41.5 91 41.5C91 39.1667 91 36.8333 91 34.5Z" fill="#414F49"/>
</g>
<defs>
<clipPath id="clip0_42_8453">
<rect width="300" height="300" fill="white"/>
</clipPath>
</defs>
</svg>
