<svg width="300" height="300" viewBox="0 0 300 300" fill="none" xmlns="http://www.w3.org/2000/svg">
<g clip-path="url(#clip0_51_129)">
<path fill-rule="evenodd" clip-rule="evenodd" d="M0 -1C100 -1 200 -1 300 -1C300 99 300 199 300 299C200 299 100 299 0 299C0 199 0 99 0 -1Z" fill="#FEF5E8"/>
<path fill-rule="evenodd" clip-rule="evenodd" d="M88.7334 121.324C85.8625 122.88 83.6355 125.084 82.0529 127.937C83.6516 130.792 84.6997 133.811 85.1972 136.992C81.8361 138.205 78.6485 139.648 75.635 141.323C75.6372 142.96 76.2032 144.37 77.3338 145.554C83.4375 148.884 84.8262 153.567 81.5005 159.604C71.785 157.709 65.0046 152.243 61.1589 143.204C58.288 135.865 59.5778 129.287 65.0286 123.471C67.6447 120.456 70.8878 118.336 74.7575 117.108C78.0942 115.563 81.5648 114.825 85.1691 114.894C87.907 116.163 89.0952 118.306 88.7334 121.324Z" fill="#2A3D34"/>
<path fill-rule="evenodd" clip-rule="evenodd" d="M88.7333 121.324C93.3664 124.886 97.8306 128.663 102.126 132.653C102.293 133.971 101.928 135.1 101.029 136.041C102.446 140.385 103.862 144.73 105.279 149.074C102.853 151.266 100.118 153.02 97.0729 154.334C97.5258 155.462 97.979 156.591 98.4319 157.719C94.3384 160.745 91.295 164.587 89.3023 169.246C87.59 165.296 84.9895 162.082 81.5004 159.604C84.8262 153.567 83.4374 148.884 77.3338 145.554C76.2032 144.37 75.6372 142.96 75.635 141.322C78.6484 139.648 81.836 138.205 85.1971 136.992C84.6996 133.811 83.6516 130.792 82.0529 127.937C83.6355 125.084 85.8625 122.88 88.7333 121.324Z" fill="#F1BF82"/>
<path fill-rule="evenodd" clip-rule="evenodd" d="M231.499 131.811C234.951 125.149 234.378 118.827 229.782 112.848C233.378 108.531 235.15 103.561 235.097 97.9389C236.165 94.8893 238.141 94.0963 241.021 95.5607C243.171 99.2836 244.756 103.232 245.778 107.408C246.384 113.434 246.843 119.474 247.155 125.526C247.292 128.028 246.759 130.371 245.556 132.555C240.868 133.127 236.182 132.878 231.499 131.811Z" fill="#273B32"/>
<path fill-rule="evenodd" clip-rule="evenodd" d="M229.782 112.847C234.378 118.827 234.95 125.149 231.499 131.811C218.52 134.899 205.399 136.892 192.136 137.788C197.869 145.913 202.819 154.571 206.986 163.763C212.904 176.544 210.264 187.103 199.067 195.439C192.472 199.154 185.419 201.166 177.907 201.477C176.336 192.222 175.054 182.91 174.062 173.541C173.356 170.565 172.365 167.688 171.087 164.909C169.389 160.678 167.69 156.446 165.991 152.215C164.784 146.656 163.197 141.069 161.228 135.456C160.257 129.892 161.04 124.5 163.579 119.282C167.616 116.923 171.96 115.506 176.612 115.032C194.353 114.013 212.077 113.285 229.782 112.847Z" fill="#C56820"/>
<rect x="122" y="71" width="77" height="8" fill="#4C5D4F"/>
<rect x="122" y="248" width="177" height="8.00001" transform="rotate(-90 122 248)" fill="#4C5D4F"/>
<rect x="191" y="249" width="177" height="8.00001" transform="rotate(-90 191 249)" fill="#4C5D4F"/>
<path fill-rule="evenodd" clip-rule="evenodd" d="M98.4319 157.719C103.77 155.426 111.635 153.892 114.091 153.889C115.93 153.887 127.051 158.022 142.636 162.574C152.006 164.434 161.49 165.212 171.087 164.909C172.365 167.688 173.356 170.565 174.062 173.541C175.054 182.91 176.336 192.222 177.908 201.477C177.423 201.781 177.113 202.232 176.978 202.833C152.266 204.083 128.44 200.219 105.502 191.24C96.9002 186.229 91.5002 178.898 89.3023 169.246C91.295 164.587 94.3384 160.745 98.4319 157.719Z" fill="#293C32"/>
<path fill-rule="evenodd" clip-rule="evenodd" d="M172.362 73.2063C172.39 73.4693 172.419 73.7324 172.448 73.9954C171.239 75.642 170.652 77.5702 170.689 79.7801C168.655 83.0643 166.182 85.9988 163.27 88.5835C151.644 112.538 140.031 136.446 128.429 160.308C127.182 161.119 126.377 162.272 126.014 163.769C127.087 171.404 123.867 176.018 116.355 177.611C106.73 177.087 102.176 171.997 102.694 162.341C103.656 159.405 105.237 156.835 107.437 154.631C110.964 150.387 111.007 150.781 115.076 144.205C129.593 123.999 142.869 103.103 154.905 81.5165C155.941 79.307 157.025 77.0577 158.156 74.769C159 71.1387 161.354 69.5485 165.219 69.9984C166.944 69.9418 168.668 69.8852 170.393 69.8286C171.702 70.5708 172.358 71.6968 172.362 73.2063Z" fill="#EBBC7C"/>
</g>
<defs>
<clipPath id="clip0_51_129">
<rect width="300" height="300" fill="white"/>
</clipPath>
</defs>
</svg>
