<svg width="300" height="300" viewBox="0 0 300 300" fill="none" xmlns="http://www.w3.org/2000/svg">
<g clip-path="url(#clip0_57_151)">
<path fill-rule="evenodd" clip-rule="evenodd" d="M2 0C102 0 202 0 302 0C302 100 302 200 302 300C202 300 102 300 2 300C2 200 2 100 2 0Z" fill="#FDF3E6"/>
<path fill-rule="evenodd" clip-rule="evenodd" d="M160.954 44.1628C160.646 44.1628 160.336 44.1628 160.028 44.1628C159.141 43.7435 158.369 43.1261 157.713 42.3108C157.627 38.2916 157.627 34.2789 157.713 30.273C157.029 29.2783 156.103 28.6609 154.935 28.421C153.066 30.035 151.059 31.1153 148.916 31.6619C148.178 28.1937 147.715 24.6441 147.527 21.0131C144.29 20.3621 141.049 19.7447 137.804 19.1611C135.234 16.3737 135.543 13.7501 138.73 11.2902C149.023 7.19972 158.437 8.5887 166.973 15.4571C170.079 20.2404 171.005 25.4877 169.751 31.1989C167.943 36.3837 165.01 40.7051 160.954 44.1628Z" fill="#29332E"/>
<path fill-rule="evenodd" clip-rule="evenodd" d="M64 89C120.498 89 177.002 89 233.5 89C233.5 91.1226 233.5 93.245 233.5 95.3675C177.002 95.3675 120.498 95.3675 64 95.3675C64 93.245 64 91.1226 64 89Z" fill="#4A453B"/>
<path fill-rule="evenodd" clip-rule="evenodd" d="M182.885 88.5559C182.885 90.0993 183.2 91.6859 183.2 93.5C183.2 95.3141 183.2 95 182.2 97C187.056 101.524 185.684 100 191.2 101.958C191.656 102.12 192.194 102.059 194.7 99.5C196.7 97.4582 197.2 96.5418 197.7 94.1119C197.7 91.9513 197.7 89.7906 197.7 87.6299C197.7 86.704 197.7 85.778 197.7 84.852C194.543 84.5909 191.457 83.9736 188.441 83C187.535 83.4414 186.764 84.0587 186.126 84.852C185.461 83.9717 184.689 83.8175 183.811 84.389C182.996 85.6447 182.686 87.0337 182.885 88.5559Z" fill="#EDB279"/>
<path fill-rule="evenodd" clip-rule="evenodd" d="M116.816 89.0735C116.816 90.6169 116.5 92.2035 116.5 94.0176C116.5 95.8317 116.5 95.5176 117.5 97.5176C112.644 102.042 114.016 100.518 108.5 102.476C108.044 102.638 107.507 102.577 105 100.018C103 97.9758 102.5 97.0593 102 94.6294C102 92.4688 102 90.3081 102 88.1475C102 87.2215 102 86.2955 102 85.3696C105.157 85.1085 108.244 84.4912 111.26 83.5176C112.165 83.959 112.937 84.5763 113.575 85.3696C114.24 84.4893 115.011 84.335 115.89 84.9066C116.705 86.1623 117.014 87.5513 116.816 89.0735Z" fill="#EDB279"/>
<path fill-rule="evenodd" clip-rule="evenodd" d="M187.989 78.5701C185.489 71.5 181.489 66 176.321 59.7191C173.695 57.3261 170.547 55.268 167 55.5004C166.569 64.9611 168.482 74.8901 172.617 83.3318C178.133 91.1638 180.816 99 189 102.5C190.816 103 196 102.5 195.5 97C189.184 79.0701 191.5 87 187.989 78.5701Z" fill="#FAC795"/>
<path fill-rule="evenodd" clip-rule="evenodd" d="M111.711 79.0877C114.211 72.0176 118.211 66.5176 123.38 60.2367C126.006 57.8436 129.153 55.7856 132.7 56.0179C133.131 65.4787 131.218 75.4077 127.084 83.8494C121.567 91.6814 118.885 99.5176 110.7 103.018C108.885 103.518 103.7 103.018 104.2 97.5176C110.516 79.5877 108.2 87.5176 111.711 79.0877Z" fill="#FAC795"/>
<path fill-rule="evenodd" clip-rule="evenodd" d="M141.508 54.3488C147.064 58.0527 152.62 58.0527 158.176 54.3488C161.307 54.3113 164.393 54.62 167.436 55.2747C167.705 65.2978 169.865 74.8664 173.918 83.9804C172.511 95.9599 171.585 107.998 171.14 120.094C156.538 121.601 142.031 121.292 127.618 119.168C127.568 107.098 126.951 95.0599 125.766 83.0544C129.901 74.6127 131.753 65.6615 131.322 56.2007C134.449 54.7355 137.843 54.1183 141.508 54.3488Z" fill="#26312C"/>
<path fill-rule="evenodd" clip-rule="evenodd" d="M127.619 119.168C142.031 121.292 156.538 121.601 171.14 120.094C174.182 136.316 175.262 152.676 174.381 169.171C171.911 183.987 169.443 198.803 166.973 213.619C166.618 214.134 166.155 214.442 165.584 214.545C161.818 213.106 157.806 212.489 153.546 212.693C153.701 196.331 153.546 179.972 153.083 163.615C152.731 157.288 151.651 151.116 149.842 145.096C147.763 154.413 146.22 163.827 145.212 173.338C147.929 186.192 149.164 199.002 148.916 211.767C145.217 213 141.513 214.236 137.804 215.471C136.882 215.55 136.111 215.241 135.489 214.545C132.257 201.924 129.17 189.269 126.23 176.579C124.214 157.381 124.677 138.243 127.619 119.168Z" fill="#C36D3A"/>
<path fill-rule="evenodd" clip-rule="evenodd" d="M153.5 244.5C151.713 250.831 150.046 250.498 148.5 243.5C148.768 229.715 147.434 215.881 144.5 202C145.588 191.729 147.255 181.562 149.5 171.5C151.453 178.001 152.62 184.667 153 191.5C153.5 209.164 153.667 226.83 153.5 244.5Z" fill="#FAEEDF"/>
<path fill-rule="evenodd" clip-rule="evenodd" d="M148.916 211.767C150.348 218.247 151.891 218.555 153.546 212.693C157.806 212.489 161.818 213.106 165.584 214.545C168.751 223.523 166.591 231.086 159.102 237.231C156.029 239.551 152.633 240.477 148.916 240.009C147.709 239.265 147.091 238.184 147.064 236.768C148.701 234.126 149.782 231.348 150.305 228.434C145.846 236.037 139.364 239.432 130.859 238.62C130.955 234.683 132.189 230.979 134.563 227.508C136.056 223.59 137.137 219.576 137.804 215.471C141.513 214.235 145.217 213 148.916 211.767Z" fill="#2B332D"/>
<path fill-rule="evenodd" clip-rule="evenodd" d="M137.804 19.1611C141.049 19.7448 144.29 20.3621 147.527 21.0131C147.715 24.6442 148.178 28.1938 148.916 31.662C151.059 31.1154 153.066 30.035 154.935 28.421C156.103 28.6609 157.029 29.2783 157.713 30.273C157.627 34.2789 157.627 38.2916 157.713 42.3109C158.369 43.1262 159.141 43.7436 160.028 44.1628C160.028 44.7802 160.028 45.3975 160.028 46.0148C159.286 47.4425 158.978 48.9859 159.102 50.6448C158.422 51.7633 158.114 52.998 158.176 54.3487C152.62 58.0527 147.064 58.0527 141.508 54.3487C142.527 53.3256 143.145 52.091 143.36 50.6448C140.521 49.3734 137.743 47.83 135.026 46.0148C134.562 42.2282 133.636 38.5242 132.248 34.9029C133.873 29.5348 135.725 24.2875 137.804 19.1611Z" fill="#F8C694"/>
<rect x="226" y="274" width="183" height="8.00001" transform="rotate(-90 226 274)" fill="#4A453B"/>
<rect x="64" y="274" width="183" height="8.00001" transform="rotate(-90 64 274)" fill="#4A453B"/>
</g>
<defs>
<clipPath id="clip0_57_151">
<rect width="300" height="300" fill="white"/>
</clipPath>
</defs>
</svg>
