<svg width="300" height="300" viewBox="0 0 300 300" fill="none" xmlns="http://www.w3.org/2000/svg">
<g clip-path="url(#clip0_51_100)">
<path fill-rule="evenodd" clip-rule="evenodd" d="M-11 -1C89 -1 189 -1 289 -1C289 99 289 199 289 299C189 299 89 299 -11 299C-11 199 -11 99 -11 -1Z" fill="#FEF5E8"/>
<rect x="122" y="71" width="77" height="8" fill="#4C5D4F"/>
<rect x="122" y="248" width="177" height="8.00001" transform="rotate(-90 122 248)" fill="#4C5D4F"/>
<path fill-rule="evenodd" clip-rule="evenodd" d="M76.536 124.729C73.6815 126.277 71.4672 128.468 69.8935 131.304C71.4831 134.144 72.5252 137.145 73.0199 140.309C69.6779 141.514 66.5084 142.949 63.5121 144.614C63.5143 146.242 64.0771 147.644 65.2012 148.821C71.2702 152.133 72.6511 156.789 69.3442 162.791C59.684 160.908 52.9421 155.473 49.1183 146.485C46.2637 139.188 47.5461 132.647 52.966 126.864C55.5671 123.866 58.7918 121.758 62.6396 120.537C65.9573 119.001 69.4082 118.268 72.992 118.335C75.7144 119.597 76.8958 121.729 76.536 124.729Z" fill="#2A3D34"/>
<path fill-rule="evenodd" clip-rule="evenodd" d="M76.5359 124.729C81.1427 128.271 85.5815 132.026 89.852 135.993C90.0189 137.304 89.6555 138.427 88.7619 139.362C90.1705 143.682 91.5791 148.002 92.9878 152.322C90.5755 154.501 87.8557 156.245 84.8281 157.552C85.2785 158.674 85.7291 159.796 86.1794 160.918C82.1092 163.927 79.083 167.747 77.1017 172.379C75.3991 168.452 72.8134 165.256 69.3441 162.791C72.651 156.789 71.2701 152.133 65.2011 148.821C64.077 147.644 63.5142 146.242 63.512 144.614C66.5084 142.949 69.6778 141.514 73.0198 140.308C72.5252 137.145 71.4831 134.143 69.8934 131.304C71.4671 128.468 73.6814 126.277 76.5359 124.729Z" fill="#F1BF82"/>
<path fill-rule="evenodd" clip-rule="evenodd" d="M86.1795 160.918C91.4872 158.637 99.308 157.113 101.749 157.109C103.578 157.107 114.635 161.218 130.132 165.745C139.449 167.594 148.879 168.368 158.422 168.066C159.693 170.829 160.678 173.69 161.38 176.65C162.366 185.965 163.641 195.224 165.203 204.427C164.722 204.729 164.414 205.178 164.279 205.775C139.707 207.018 116.017 203.176 93.2095 194.248C84.6565 189.266 79.2871 181.976 77.1017 172.379C79.0831 167.747 82.1092 163.927 86.1795 160.918Z" fill="#293C32"/>
<path fill-rule="evenodd" clip-rule="evenodd" d="M156.646 173.498C153.771 183.665 150.951 195.238 148.995 205.615C164.238 210.737 175.301 204.631 181.376 189.899C183.887 177.89 186.019 165.817 187.772 153.681C202.32 147.906 216.24 140.84 229.531 132.482C229.404 130.959 229.385 129.436 229.475 127.914C228.195 122.756 225.467 118.56 221.29 115.327C205.261 121.246 189.143 127.01 172.937 132.62C165.888 145.596 160.458 159.222 156.646 173.498Z" fill="#C46D33"/>
<path fill-rule="evenodd" clip-rule="evenodd" d="M223.261 114.721C228.636 115.05 232.268 117.799 234.158 122.968C234.242 124.041 234.109 125.07 233.759 126.058C237.307 125.932 240.593 124.922 243.615 123.028C245.963 121.992 247.203 120.173 247.331 117.57C247.214 115.898 246.652 114.363 245.646 112.964C240.975 106.796 236.668 100.389 232.724 93.7424C229.844 90.1615 226.32 87.4693 222.15 85.6659C219.897 85.5491 218.62 86.6605 218.321 89.0008C223.228 97.0365 224.875 105.61 223.261 114.721Z" fill="#2D3732"/>
<path fill-rule="evenodd" clip-rule="evenodd" d="M221.29 115.327C225.468 118.56 228.196 122.756 229.475 127.914C231.16 127.916 232.588 127.297 233.759 126.057C234.11 125.07 234.243 124.04 234.158 122.968C232.268 117.798 228.637 115.049 223.262 114.721C222.604 114.923 221.948 115.125 221.29 115.327Z" fill="#F1C18D"/>
<path fill-rule="evenodd" clip-rule="evenodd" d="M162.605 72.3622C162.635 72.635 162.665 72.9078 162.695 73.1806C161.441 74.8883 160.832 76.888 160.87 79.1799C158.761 82.5859 156.196 85.6291 153.177 88.3098C141.12 113.153 129.075 137.948 117.043 162.695C115.75 163.536 114.915 164.732 114.539 166.284C115.651 174.202 112.312 178.987 104.521 180.64C94.5392 180.096 89.8167 174.817 90.3536 164.803C91.3509 161.758 92.9905 159.093 95.2724 156.807C98.9299 152.405 98.9749 152.814 103.195 145.995C118.25 125.039 132.019 103.368 144.501 80.9807C145.575 78.6892 146.699 76.3565 147.873 73.9829C148.748 70.2179 151.189 68.5687 155.198 69.0353C156.987 68.9766 158.774 68.9179 160.563 68.8592C161.921 69.629 162.601 70.7967 162.605 72.3622Z" fill="#EBBC7C"/>
<rect x="191" y="249" width="177" height="8.00001" transform="rotate(-90 191 249)" fill="#4C5D4F"/>
</g>
<defs>
<clipPath id="clip0_51_100">
<rect width="300" height="300" fill="white"/>
</clipPath>
</defs>
</svg>
