<svg width="300" height="300" viewBox="0 0 300 300" fill="none" xmlns="http://www.w3.org/2000/svg">
<g clip-path="url(#clip0_62_397)">
<path fill-rule="evenodd" clip-rule="evenodd" d="M-0.5 -0.5C99.5 -0.5 199.5 -0.5 299.5 -0.5C299.5 99.5 299.5 199.5 299.5 299.5C199.5 299.5 99.5 299.5 -0.5 299.5C-0.5 199.5 -0.5 99.5 -0.5 -0.5Z" fill="#FEF5E6"/>
<path fill-rule="evenodd" clip-rule="evenodd" d="M207.5 53.4998C203.154 53.3341 198.821 53.5008 194.5 53.9998C193.87 57.2711 192.87 60.4377 191.5 63.4998C189.877 59.9422 187.21 58.7755 183.5 59.9998C179.607 63.5875 179.607 67.2542 183.5 70.9998C181.297 73.372 178.963 75.5387 176.5 77.4998C169.196 68.4205 167.696 58.4205 172 47.4998C180.103 38.0338 189.936 35.8671 201.5 40.9998C205.222 42.0995 208.056 44.2661 210 47.4998C210.966 50.3395 210.133 52.3395 207.5 53.4998Z" fill="#414C41"/>
<path fill-rule="evenodd" clip-rule="evenodd" d="M207.5 53.5004C208.639 59.53 210.639 65.3634 213.5 71.0004C212.793 73.5404 211.127 74.7071 208.5 74.5004C208.426 79.6534 206.76 84.1534 203.5 88.0004C200.518 88.4984 197.518 88.665 194.5 88.5004C193.841 91.4556 193.508 94.4556 193.5 97.5004C191.119 98.8307 188.786 98.664 186.5 97.0004C182.924 92.9188 178.924 89.4188 174.5 86.5004C176.126 83.7547 176.793 80.7547 176.5 77.5004C178.963 75.5393 181.297 73.3726 183.5 71.0004C179.607 67.2548 179.607 63.5881 183.5 60.0004C187.21 58.7761 189.877 59.9428 191.5 63.5004C192.87 60.4383 193.87 57.2717 194.5 54.0004C198.821 53.5014 203.154 53.3347 207.5 53.5004Z" fill="#F1BD7F"/>
<path fill-rule="evenodd" clip-rule="evenodd" d="M170.5 87.5C175.476 88.7899 178.143 91.7899 178.5 96.5C174.312 94.331 169.978 93.9977 165.5 95.5C165.389 94.8826 165.056 94.3826 164.5 94C165.833 92.6667 167.167 91.3333 168.5 90C168.272 89.6012 167.938 89.4346 167.5 89.5C168.29 88.5987 169.29 87.9321 170.5 87.5Z" fill="#526152"/>
<path fill-rule="evenodd" clip-rule="evenodd" d="M178.5 96.5003C183.612 101.644 186.112 107.978 186 115.5C189.841 121.178 193.174 127.178 196 133.5C197.518 132.837 198.685 131.837 199.5 130.5C205.429 126.076 210.929 121.076 216 115.5C215.46 111.533 215.126 107.533 215 103.5C220.447 97.7099 226.447 97.0432 233 101.5C233.726 106.239 233.393 110.905 232 115.5C225.418 124.996 219.085 134.662 213 144.5C208.071 151.207 201.571 155.207 193.5 156.5C187.815 154.561 182.981 151.227 179 146.5C171.677 137.859 165.344 128.526 160 118.5C158.508 113.589 158.174 108.589 159 103.5C160.274 100.064 162.441 97.3977 165.5 95.5003C169.978 93.998 174.312 94.3313 178.5 96.5003Z" fill="#F0BD7E"/>
<path fill-rule="evenodd" clip-rule="evenodd" d="M174.5 86.4997C178.924 89.4181 182.924 92.9181 186.5 96.9997C188.786 98.6633 191.119 98.83 193.5 97.4997C196.708 101.248 198.874 105.582 200 110.5C200.756 117.217 200.589 123.883 199.5 130.5C198.685 131.837 197.518 132.837 196 133.5C193.174 127.178 189.841 121.178 186 115.5C186.112 107.978 183.612 101.644 178.5 96.4997C178.143 91.7896 175.476 88.7896 170.5 87.4997C171.708 86.7656 173.041 86.4323 174.5 86.4997Z" fill="#404B40"/>
<path fill-rule="evenodd" clip-rule="evenodd" d="M167.5 89.5002C167.938 89.4348 168.272 89.6014 168.5 90.0002C167.167 91.3335 165.833 92.6669 164.5 94.0002C165.056 94.3828 165.389 94.8828 165.5 95.5002C162.441 97.3976 160.274 100.064 159 103.5C158.174 108.589 158.508 113.589 160 118.5C165.344 128.526 171.677 137.859 179 146.5C182.981 151.227 187.815 154.561 193.5 156.5C191.881 160.069 190.548 163.736 189.5 167.5C188.327 169.504 186.66 171.004 184.5 172C176.265 174.79 167.931 175.124 159.5 173C153.712 171.459 148.045 169.626 142.5 167.5C144.382 162.735 146.548 158.068 149 153.5C150.896 137.768 153.229 122.102 156 106.5C158.101 99.5822 161.935 93.9155 167.5 89.5002Z" fill="#3F4A3F"/>
<path fill-rule="evenodd" clip-rule="evenodd" d="M93.5 186.5C88.7291 185.742 84.7291 187.075 81.5 190.5C70.5313 189.593 59.5313 189.26 48.5 189.5C47.8224 185.727 49.1558 182.894 52.5 181C62.932 176.467 73.5987 172.634 84.5 169.5C87.9331 169.133 90.4331 170.466 92 173.5C93.6894 177.805 94.1894 182.138 93.5 186.5Z" fill="#3F4A3F"/>
<path fill-rule="evenodd" clip-rule="evenodd" d="M93.5 186.5C94.7515 188.001 95.7515 189.668 96.5 191.5C91.5648 193.435 87.8982 196.768 85.5 201.5C84.8333 200.5 84.1667 199.5 83.5 198.5C83.8928 195.487 83.2261 192.82 81.5 190.5C84.7291 187.075 88.7291 185.742 93.5 186.5Z" fill="#F0BC7D"/>
<path fill-rule="evenodd" clip-rule="evenodd" d="M48.5 189.5C59.5313 189.26 70.5313 189.593 81.5 190.5C83.2261 192.82 83.8928 195.487 83.5 198.5C81.4778 203.972 77.4778 205.972 71.5 204.5C71.7947 206.735 71.4614 208.735 70.5 210.5C70.5 208.5 70.5 206.5 70.5 204.5C61.8333 204.5 53.1667 204.5 44.5 204.5C44.7947 206.735 44.4614 208.735 43.5 210.5C43.5 208.5 43.5 206.5 43.5 204.5C39.9929 205.006 36.8263 204.34 34 202.5C33.3333 198.5 33.3333 194.5 34 190.5C38.7367 189.531 43.57 189.197 48.5 189.5Z" fill="#526254"/>
<path fill-rule="evenodd" clip-rule="evenodd" d="M213.5 243.5C213.443 244.609 213.11 245.609 212.5 246.5C209.763 249.983 208.097 253.983 207.5 258.5C206.549 259.919 206.216 261.585 206.5 263.5C166.843 262.582 127.176 262.249 87.5 262.5C87.7373 263.791 87.404 264.791 86.5 265.5C86.7564 263.208 86.4231 261.041 85.5 259C72.8333 258.667 60.1667 258.333 47.5 258C47.0426 257.586 46.7093 257.086 46.5 256.5C48.6573 241.563 50.4906 226.563 52 211.5C58.0758 210.524 64.2424 210.19 70.5 210.5C71.4614 208.735 71.7947 206.735 71.5 204.5C77.4778 205.972 81.4778 203.972 83.5 198.5C84.1667 199.5 84.8333 200.5 85.5 201.5C93.6734 220.022 104.007 237.188 116.5 253C122.592 257.241 128.925 257.574 135.5 254C138 251.5 140.5 249 143 246.5C152.791 232.422 161.958 217.922 170.5 203C186.089 200.882 201.422 197.882 216.5 194C215.296 197.716 214.462 201.55 214 205.5C213.5 218.162 213.333 230.829 213.5 243.5Z" fill="#FDFAF0"/>
<path fill-rule="evenodd" clip-rule="evenodd" d="M227.5 244.5C222.737 244.774 218.07 244.441 213.5 243.5C213.333 230.829 213.5 218.162 214 205.5C214.462 201.55 215.296 197.716 216.5 194C201.422 197.882 186.089 200.882 170.5 203C161.958 217.922 152.791 232.422 143 246.5C140.5 249 138 251.5 135.5 254C128.925 257.574 122.592 257.241 116.5 253C104.007 237.188 93.6734 220.022 85.5 201.5C87.8982 196.768 91.5648 193.435 96.5 191.5C97.2389 191.369 97.9056 191.536 98.5 192C107.522 202.546 115.689 213.712 123 225.5C126.214 215.192 130.214 205.192 135 195.5C132.538 184.736 135.038 175.402 142.5 167.5C148.045 169.626 153.712 171.459 159.5 173C167.931 175.124 176.265 174.79 184.5 172C186.66 171.004 188.327 169.504 189.5 167.5C202.816 165.382 216.149 165.215 229.5 167C234.84 168.41 238.673 171.577 241 176.5C238.764 198.021 235.097 219.354 230 240.5C229.878 242.437 229.045 243.77 227.5 244.5Z" fill="#BB6B28"/>
<path fill-rule="evenodd" clip-rule="evenodd" d="M70.5 210.5C64.2424 210.19 58.0758 210.524 52 211.5C50.4906 226.563 48.6573 241.563 46.5 256.5C46.7093 257.086 47.0426 257.586 47.5 258C60.1667 258.333 72.8333 258.667 85.5 259C86.4231 261.041 86.7564 263.208 86.5 265.5C85.5 265.833 84.8333 266.5 84.5 267.5C67.1635 267.667 49.8301 267.5 32.5 267C32.1727 264.315 32.1727 261.482 32.5 258.5C34.5 258.5 36.5 258.5 38.5 258.5C39.8066 242.461 41.4732 226.461 43.5 210.5C44.4614 208.735 44.7947 206.735 44.5 204.5C53.1667 204.5 61.8333 204.5 70.5 204.5C70.5 206.5 70.5 208.5 70.5 210.5Z" fill="#404C41"/>
<path fill-rule="evenodd" clip-rule="evenodd" d="M213.5 243.5C218.07 244.441 222.737 244.774 227.5 244.5C227.833 245.167 228.167 245.833 228.5 246.5C223.279 250.434 217.945 250.434 212.5 246.5C213.11 245.609 213.443 244.609 213.5 243.5Z" fill="#EEBC7E"/>
<path fill-rule="evenodd" clip-rule="evenodd" d="M212.5 246.5C217.945 250.434 223.279 250.434 228.5 246.5C231.938 248.759 235.271 251.259 238.5 254C243.583 256.577 248.749 258.743 254 260.5C254.825 262.701 254.325 264.534 252.5 266C249.568 266.953 246.568 267.453 243.5 267.5C231.5 267.5 219.5 267.5 207.5 267.5C207.5 264.5 207.5 261.5 207.5 258.5C208.097 253.983 209.763 249.983 212.5 246.5Z" fill="#3E4A3F"/>
<path fill-rule="evenodd" clip-rule="evenodd" d="M207.5 258.5C207.5 261.5 207.5 264.5 207.5 267.5C219.5 267.5 231.5 267.5 243.5 267.5C236.975 268.283 230.308 269.117 223.5 270C163.155 270.922 102.821 270.588 42.5 269C56.6727 268.831 70.6727 268.331 84.5 267.5C84.8333 266.5 85.5 265.833 86.5 265.5C87.404 264.791 87.7373 263.791 87.5 262.5C127.176 262.249 166.843 262.582 206.5 263.5C206.216 261.585 206.549 259.919 207.5 258.5Z" fill="#F7F1E2"/>
</g>
<defs>
<clipPath id="clip0_62_397">
<rect width="300" height="300" fill="white"/>
</clipPath>
</defs>
</svg>
