<svg width="300" height="300" viewBox="0 0 300 300" fill="none" xmlns="http://www.w3.org/2000/svg">
<g clip-path="url(#clip0_41_376)">
<path fill-rule="evenodd" clip-rule="evenodd" d="M-0.5 -0.5C99.5 -0.5 199.5 -0.5 299.5 -0.5C299.5 99.5 299.5 199.5 299.5 299.5C199.5 299.5 99.5 299.5 -0.5 299.5C-0.5 199.5 -0.5 99.5 -0.5 -0.5Z" fill="#FEF5E8"/>
<path fill-rule="evenodd" clip-rule="evenodd" d="M205.5 83.5C202.215 83.7307 199.715 82.3974 198 79.5C197.946 76.1347 198.446 72.8014 199.5 69.5C197.412 63.2385 194.412 62.9051 190.5 68.5C187.752 69.6439 185.919 68.6439 185 65.5C184.073 61.9871 183.239 58.4871 182.5 55C178.083 54.7725 173.75 54.2725 169.5 53.5C168.138 45.9743 171.471 41.4743 179.5 40C190.314 38.206 200.314 40.206 209.5 46C216.427 54.1767 217.26 63.01 212 72.5C209.822 76.1943 207.655 79.8609 205.5 83.5Z" fill="#2E3833"/>
<path fill-rule="evenodd" clip-rule="evenodd" d="M169.5 53.5C173.75 54.2725 178.083 54.7725 182.5 55C183.239 58.4871 184.073 61.9871 185 65.5C185.919 68.6439 187.752 69.6439 190.5 68.5C194.412 62.9051 197.412 63.2385 199.5 69.5C198.446 72.8014 197.946 76.1347 198 79.5C199.715 82.3974 202.215 83.7307 205.5 83.5C204.133 87.4578 205.133 90.7911 208.5 93.5C204.727 93.2633 201.06 93.7633 197.5 95C193.386 97.2835 189.72 100.117 186.5 103.5C186.309 100.017 185.643 96.6839 184.5 93.5C180.098 93.7719 175.765 93.4386 171.5 92.5C170.416 91.3349 169.583 90.0016 169 88.5C168.483 85.0801 167.65 81.7468 166.5 78.5C164.833 78.1667 163.833 77.1667 163.5 75.5C164.723 72.0533 166.223 68.7199 168 65.5C169.156 61.5817 169.656 57.5817 169.5 53.5Z" fill="#F4C591"/>
<path fill-rule="evenodd" clip-rule="evenodd" d="M215.5 98.5C229.606 108.315 243.106 118.982 256 130.5C254.874 151.337 251.041 171.67 244.5 191.5C239.582 192.281 234.582 192.781 229.5 193C228.667 193.833 227.833 194.667 227 195.5C226.667 198.5 226.333 201.5 226 204.5C224.444 206.635 222.611 206.968 220.5 205.5C220.5 205.167 220.5 204.833 220.5 204.5C216.22 191.094 221.22 184.428 235.5 184.5C236.464 170.178 236.631 155.845 236 141.5C232.192 139.347 228.358 137.347 224.5 135.5C221.771 133.458 218.771 131.792 215.5 130.5C198.557 133.725 191.057 126.725 193 109.5C196.672 97.9138 204.172 94.2471 215.5 98.5Z" fill="#F5C691"/>
<path fill-rule="evenodd" clip-rule="evenodd" d="M208.5 93.4999C211.135 94.8108 213.469 96.4775 215.5 98.4999C204.172 94.247 196.672 97.9137 193 109.5C191.057 126.725 198.557 133.725 215.5 130.5C218.771 131.792 221.771 133.458 224.5 135.5C224.184 154.419 220.851 172.753 214.5 190.5C200.668 186.209 186.668 182.542 172.5 179.5C175.586 160.311 177.419 140.977 178 121.5C180.044 115.08 182.878 109.08 186.5 103.5C189.72 100.117 193.386 97.2834 197.5 94.9999C201.06 93.7632 204.727 93.2632 208.5 93.4999Z" fill="#2D3631"/>
<path fill-rule="evenodd" clip-rule="evenodd" d="M172.5 179.5C186.668 182.542 200.668 186.209 214.5 190.5C210.922 212.262 198.255 222.095 176.5 220C160.334 215.334 144.334 210.167 128.5 204.5C112.162 218.424 94.6622 230.758 76 241.5C74.2355 240.368 72.4021 239.368 70.5 238.5C65.0701 233.638 61.7367 227.638 60.5 220.5C77.963 204.873 95.2964 189.04 112.5 173C132.751 172.787 152.751 174.954 172.5 179.5Z" fill="#C46D33"/>
<path fill-rule="evenodd" clip-rule="evenodd" d="M244.5 191.5C255.505 191.333 266.505 191.5 277.5 192C278 192.5 278.5 193 279 193.5C279.667 214.5 279.667 235.5 279 256.5C259.91 257.493 240.743 257.826 221.5 257.5C220.515 240.244 220.181 222.91 220.5 205.5C222.611 206.968 224.444 206.635 226 204.5C226.333 201.5 226.667 198.5 227 195.5C227.833 194.667 228.667 193.833 229.5 193C234.582 192.781 239.582 192.281 244.5 191.5Z" fill="#494136"/>
<path fill-rule="evenodd" clip-rule="evenodd" d="M224.5 135.5C228.358 137.347 232.192 139.347 236 141.5C236.631 155.845 236.464 170.178 235.5 184.5C221.22 184.428 216.22 191.094 220.5 204.5C219.668 221.328 219.168 238.328 219 255.5C211.246 254.683 203.412 254.183 195.5 254C148.665 253.833 101.998 253.333 55.5 252.5C59.7366 250.053 63.07 246.719 65.5 242.5C67.754 241.876 69.4206 240.543 70.5 238.5C72.4021 239.368 74.2355 240.368 76 241.5C94.6622 230.758 112.162 218.424 128.5 204.5C144.334 210.167 160.334 215.334 176.5 220C198.255 222.095 210.922 212.262 214.5 190.5C220.851 172.753 224.184 154.419 224.5 135.5Z" fill="#FEF5E7"/>
<path fill-rule="evenodd" clip-rule="evenodd" d="M58.5 222.5C55.4475 229.225 56.4475 235.391 61.5 241C62.745 241.791 64.0783 242.291 65.5 242.5C63.07 246.719 59.7366 250.053 55.5 252.5C52.737 254.681 49.737 255.015 46.5 253.5C44.5491 252.284 43.0491 250.618 42 248.5C37.5236 238.88 32.5236 229.547 27 220.5C24.5088 214.711 23.5088 208.711 24 202.5C25.3051 199.694 27.4718 198.86 30.5 200C37.0885 211.106 46.4218 218.606 58.5 222.5Z" fill="#2D3732"/>
<path fill-rule="evenodd" clip-rule="evenodd" d="M60.5 220.5C61.7367 227.638 65.0701 233.638 70.5 238.5C69.4206 240.543 67.754 241.876 65.5 242.5C64.0783 242.291 62.745 241.791 61.5 241C56.4475 235.391 55.4475 229.225 58.5 222.5C59.1667 221.833 59.8333 221.167 60.5 220.5Z" fill="#F1C18D"/>
<path fill-rule="evenodd" clip-rule="evenodd" d="M220.5 204.5C220.5 204.833 220.5 205.167 220.5 205.5C220.181 222.91 220.515 240.244 221.5 257.5C159.881 260.176 98.2138 260.01 36.5 257C35.3659 255.984 35.6992 255.317 37.5 255C40.6946 254.819 43.6946 254.319 46.5 253.5C49.737 255.015 52.737 254.681 55.5 252.5C101.998 253.333 148.665 253.833 195.5 254C203.412 254.183 211.246 254.683 219 255.5C219.168 238.328 219.668 221.328 220.5 204.5Z" fill="#ECE1D1"/>
</g>
<defs>
<clipPath id="clip0_41_376">
<rect width="300" height="300" fill="white"/>
</clipPath>
</defs>
</svg>
