<svg width="300" height="300" viewBox="0 0 300 300" fill="none" xmlns="http://www.w3.org/2000/svg">
<g clip-path="url(#clip0_41_444)">
<path fill-rule="evenodd" clip-rule="evenodd" d="M-0.5 -0.5C99.5 -0.5 199.5 -0.5 299.5 -0.5C299.5 99.5 299.5 199.5 299.5 299.5C199.5 299.5 99.5 299.5 -0.5 299.5C-0.5 199.5 -0.5 99.5 -0.5 -0.5Z" fill="#FEF5E6"/>
<path fill-rule="evenodd" clip-rule="evenodd" d="M212.5 90.5C209.383 90.3577 206.883 89.0244 205 86.5C205.369 83.2103 205.369 79.877 205 76.5C201.369 72.4648 198.203 72.9648 195.5 78C193.097 78.6302 191.263 77.7969 190 75.5C189.289 72.266 188.455 69.0994 187.5 66C184.183 65.5017 180.85 65.335 177.5 65.5C176.391 65.4431 175.391 65.1098 174.5 64.5C171.264 59.4532 172.264 55.2865 177.5 52C183.321 49.8778 189.321 48.7111 195.5 48.5C206.361 47.5111 214.194 51.8444 219 61.5C220.654 72.0339 218.488 81.7005 212.5 90.5Z" fill="#2B372F"/>
<path fill-rule="evenodd" clip-rule="evenodd" d="M213.5 99.5001C214.873 99.3434 216.207 99.5101 217.5 100C225.333 105.167 231.833 111.667 237 119.5C244.889 133.34 250.056 148.007 252.5 163.5C252.5 166.167 252.5 168.833 252.5 171.5C252.5 176.833 252.5 182.167 252.5 187.5C245.718 187.031 239.051 185.864 232.5 184C223.771 180.925 215.105 177.758 206.5 174.5C203.634 165.093 200.467 155.76 197 146.5C195.972 142.527 195.139 138.527 194.5 134.5C199.523 132.387 203.523 133.554 206.5 138C213.111 140.788 218.611 139.288 223 133.5C226.454 115.608 218.954 106.775 200.5 107C204.896 104.473 209.229 101.973 213.5 99.5001Z" fill="#2A372F"/>
<path fill-rule="evenodd" clip-rule="evenodd" d="M177.5 65.5C180.85 65.335 184.183 65.5017 187.5 66C188.455 69.0994 189.289 72.266 190 75.5C191.263 77.7969 193.097 78.6302 195.5 78C198.203 72.9648 201.369 72.4648 205 76.5C205.369 79.877 205.369 83.2103 205 86.5C206.883 89.0244 209.383 90.3577 212.5 90.5C212.963 93.4824 213.296 96.4824 213.5 99.5C209.229 101.973 204.896 104.473 200.5 107C218.954 106.775 226.454 115.608 223 133.5C218.611 139.288 213.111 140.788 206.5 138C203.523 133.554 199.523 132.387 194.5 134.5C167.6 136.119 140.933 134.286 114.5 129C109.511 128.501 104.511 128.334 99.5 128.5C94.7774 127.993 90.1107 127.16 85.5 126C84.9288 124.795 84.2621 123.628 83.5 122.5C80.0954 121.752 76.7621 120.752 73.5 119.5C72.5481 117.955 72.2148 116.288 72.5 114.5C74.8333 114.5 77.1667 114.5 79.5 114.5C91.4859 115.599 103.653 116.266 116 116.5C136.861 116.108 157.694 115.274 178.5 114C183.543 112.822 188.543 111.489 193.5 110C195.05 106.701 194.217 104.201 191 102.5C180.341 105.68 175.507 101.68 176.5 90.5C174.61 90.7035 173.11 90.0368 172 88.5C171.159 84.8798 171.826 81.5464 174 78.5C174.333 75.1667 174.667 71.8333 175 68.5C176.045 67.6266 176.878 66.6266 177.5 65.5Z" fill="#F8C18B"/>
<path fill-rule="evenodd" clip-rule="evenodd" d="M53.5 165.5C56.3245 165.081 58.4912 166.081 60 168.5C61.293 180.095 66.4596 189.428 75.5 196.5C72.9911 199.362 71.3244 202.695 70.5 206.5C70.7997 209.766 72.1331 212.433 74.5 214.5C73.7813 216.888 72.1146 218.388 69.5 219C64.9053 220.393 60.2387 220.726 55.5 220C55 219.5 54.5 219 54 218.5C53.0979 213.706 52.2645 209.039 51.5 204.5C49.8028 193.223 49.3028 181.889 50 170.5C50.6972 168.416 51.8639 166.749 53.5 165.5Z" fill="#2A372F"/>
<path fill-rule="evenodd" clip-rule="evenodd" d="M146.5 183.5C147.5 183.5 148.5 183.5 149.5 183.5C152.018 192.37 156.018 200.537 161.5 208C159.942 208.21 158.609 208.71 157.5 209.5C152.821 209.334 148.155 209.501 143.5 210C123.086 214.479 102.419 216.979 81.5 217.5C81.7373 216.209 81.404 215.209 80.5 214.5C79.6932 208.536 79.3599 202.536 79.5 196.5C101.657 191.86 123.99 187.526 146.5 183.5Z" fill="#BF692D"/>
<path fill-rule="evenodd" clip-rule="evenodd" d="M75.5 196.5C76.8333 196.5 78.1667 196.5 79.5 196.5C79.3599 202.536 79.6932 208.536 80.5 214.5C78.5 214.5 76.5 214.5 74.5 214.5C72.1331 212.433 70.7997 209.766 70.5 206.5C71.3244 202.695 72.9911 199.362 75.5 196.5Z" fill="#F1B680"/>
<path fill-rule="evenodd" clip-rule="evenodd" d="M206.5 174.5C215.105 177.758 223.771 180.925 232.5 184C239.051 185.864 245.718 187.031 252.5 187.5C252.094 211.412 240.094 221.912 216.5 219C208.438 216.135 200.771 212.469 193.5 208C192.365 207.251 191.365 207.417 190.5 208.5C194.653 216.983 198.986 225.316 203.5 233.5C199.443 236.252 195.11 238.252 190.5 239.5C188.167 239.5 185.833 239.5 183.5 239.5C176.441 230.599 169.941 221.265 164 211.5C162.211 209.771 160.044 209.104 157.5 209.5C158.609 208.71 159.942 208.21 161.5 208C156.018 200.537 152.018 192.37 149.5 183.5C148.5 183.5 147.5 183.5 146.5 183.5C146.918 182.778 147.584 182.278 148.5 182C146.083 173.165 149.083 166.831 157.5 163C174.429 164.149 190.763 167.982 206.5 174.5Z" fill="#CE7738"/>
<path fill-rule="evenodd" clip-rule="evenodd" d="M203.5 233.5C204.974 234.436 205.974 235.77 206.5 237.5C201.627 241.868 196.293 242.535 190.5 239.5C195.11 238.252 199.443 236.252 203.5 233.5Z" fill="#F1BD88"/>
<path fill-rule="evenodd" clip-rule="evenodd" d="M206.5 237.5C207.376 237.369 208.043 237.702 208.5 238.5C211.574 244.462 212.907 250.795 212.5 257.5C211.118 258.801 209.452 259.634 207.5 260C192.199 261.525 176.866 261.859 161.5 261C159.677 260.003 158.01 258.836 156.5 257.5C156.744 254.737 158.077 252.571 160.5 251C169.78 250.092 177.447 246.259 183.5 239.5C185.833 239.5 188.167 239.5 190.5 239.5C196.293 242.535 201.627 241.868 206.5 237.5Z" fill="#2A372F"/>
<path fill-rule="evenodd" clip-rule="evenodd" d="M156.5 257.5C158.01 258.836 159.677 260.003 161.5 261C176.866 261.859 192.199 261.525 207.5 260C209.452 259.634 211.118 258.801 212.5 257.5C219.656 257.286 226.656 258.119 233.5 260C230.956 261.092 228.289 261.759 225.5 262C206.342 263.391 187.342 263.891 168.5 263.5C147.924 263.173 127.424 263.507 107 264.5C105.266 263.751 103.433 263.251 101.5 263C86.1431 262.79 70.8098 262.123 55.5 261C55.1667 260.667 54.8333 260.333 54.5 260C57.7568 258.957 61.0901 258.457 64.5 258.5C95.1534 257.572 125.82 257.239 156.5 257.5Z" fill="#EFE3D5"/>
</g>
<defs>
<clipPath id="clip0_41_444">
<rect width="300" height="300" fill="white"/>
</clipPath>
</defs>
</svg>
