<svg width="300" height="300" viewBox="0 0 300 300" fill="none" xmlns="http://www.w3.org/2000/svg">
<g clip-path="url(#clip0_41_551)">
<path fill-rule="evenodd" clip-rule="evenodd" d="M-0.5 -0.5C99.5 -0.5 199.5 -0.5 299.5 -0.5C299.5 99.5 299.5 199.5 299.5 299.5C199.5 299.5 99.5 299.5 -0.5 299.5C-0.5 199.5 -0.5 99.5 -0.5 -0.5Z" fill="#FCF1E4"/>
<path fill-rule="evenodd" clip-rule="evenodd" d="M59.5 140.5C58.3275 143.515 56.1609 145.515 53 146.5C51.1327 145.623 49.966 144.123 49.5 142C43.6661 141.004 41.3327 143.504 42.5 149.5C37.5335 150.174 33.2001 148.84 29.5 145.5C27.6261 147.915 26.2927 150.581 25.5 153.5C23.5328 153.739 21.6995 153.406 20 152.5C19.0647 135.104 27.2314 126.604 44.5 127C50.9405 129.943 55.9405 134.443 59.5 140.5Z" fill="#1F2A26"/>
<path fill-rule="evenodd" clip-rule="evenodd" d="M141.5 144.5C141.666 152.507 141.5 160.507 141 168.5C140.315 171.579 139.481 174.579 138.5 177.5C134.366 178.485 130.032 178.818 125.5 178.5C127.097 170.567 127.597 162.567 127 154.5C117.023 147.595 106.19 142.429 94.5 139C87.436 137.255 81.2693 138.755 76 143.5C75.3333 147.5 75.3333 151.5 76 155.5C76.4652 156.931 77.2986 158.097 78.5 159C89.2558 160.621 99.9224 162.788 110.5 165.5C110.5 169.5 110.5 173.5 110.5 177.5C109.5 177.5 108.5 177.5 107.5 177.5C94.7815 178.323 83.4482 174.823 73.5 167C71.5359 165.549 70.2026 163.716 69.5 161.5C69.6884 155.714 69.0217 150.047 67.5 144.5C72.8978 137.134 80.2311 133.468 89.5 133.5C101.492 134.915 113.159 137.748 124.5 142C130.177 142.835 135.844 143.669 141.5 144.5Z" fill="#202B27"/>
<path fill-rule="evenodd" clip-rule="evenodd" d="M125.5 178.5C122.264 185.988 119.264 193.654 116.5 201.5C114.551 203.563 112.218 204.896 109.5 205.5C101.804 205.831 94.1378 205.497 86.5 204.5C86.8627 203.817 87.1961 203.15 87.5 202.5C94.5572 200.316 101.391 197.649 108 194.5C109.227 188.897 110.061 183.231 110.5 177.5C110.5 173.5 110.5 169.5 110.5 165.5C99.9224 162.788 89.2558 160.621 78.5 159C77.2986 158.097 76.4652 156.931 76 155.5C75.3333 151.5 75.3333 147.5 76 143.5C81.2693 138.755 87.436 137.255 94.5 139C106.19 142.429 117.023 147.595 127 154.5C127.597 162.567 127.097 170.567 125.5 178.5Z" fill="#FAC792"/>
<path fill-rule="evenodd" clip-rule="evenodd" d="M59.5 140.5C60.9616 141.458 62.2949 142.624 63.5 144C64.7932 144.49 66.1266 144.657 67.5 144.5C69.0217 150.047 69.6884 155.714 69.5 161.5C65.1539 161.334 60.8206 161.501 56.5 162C54.5395 164.637 52.5395 167.303 50.5 170C46.2536 171.013 42.4203 170.18 39 167.5C37.5349 168.33 36.0349 168.496 34.5 168C32.6146 162.38 29.6146 157.546 25.5 153.5C26.2927 150.581 27.6261 147.915 29.5 145.5C33.2001 148.84 37.5335 150.174 42.5 149.5C41.3327 143.504 43.6661 141.004 49.5 142C49.966 144.123 51.1327 145.623 53 146.5C56.1609 145.515 58.3275 143.515 59.5 140.5Z" fill="#FBC894"/>
<path fill-rule="evenodd" clip-rule="evenodd" d="M260.5 168.5C260.931 173.207 259.598 177.207 256.5 180.5C255.5 180.833 254.833 181.5 254.5 182.5C231.109 178.837 207.609 178.504 184 181.5C168.784 180.643 153.618 179.309 138.5 177.5C139.481 174.579 140.315 171.579 141 168.5C141.5 160.507 141.666 152.507 141.5 144.5C153.241 142.01 164.241 144.177 174.5 151C196.379 157.654 218.713 161.987 241.5 164C247.917 165.315 254.251 166.815 260.5 168.5Z" fill="#C77438"/>
<path fill-rule="evenodd" clip-rule="evenodd" d="M272.5 200.5C266.353 204.139 260.02 204.472 253.5 201.5C255.053 198.44 256.386 195.274 257.5 192C256.926 188.688 255.926 185.522 254.5 182.5C254.833 181.5 255.5 180.833 256.5 180.5C261.356 181.345 264.023 179.012 264.5 173.5C264.563 171.486 263.897 169.819 262.5 168.5C267.316 167.35 272.316 167.184 277.5 168C278 168.5 278.5 169 279 169.5C278.529 176.809 277.863 184.142 277 191.5C276.344 194.996 274.844 197.996 272.5 200.5Z" fill="#202A26"/>
<path fill-rule="evenodd" clip-rule="evenodd" d="M260.5 168.5C261.167 168.5 261.833 168.5 262.5 168.5C263.897 169.819 264.563 171.486 264.5 173.5C264.023 179.012 261.356 181.345 256.5 180.5C259.598 177.207 260.931 173.207 260.5 168.5Z" fill="#F5C793"/>
<path fill-rule="evenodd" clip-rule="evenodd" d="M138.5 177.5C153.618 179.309 168.784 180.643 184 181.5C207.609 178.504 231.109 178.837 254.5 182.5C255.926 185.522 256.926 188.688 257.5 192C256.386 195.274 255.053 198.44 253.5 201.5C207.833 201.5 162.167 201.5 116.5 201.5C119.264 193.654 122.264 185.988 125.5 178.5C130.032 178.818 134.366 178.485 138.5 177.5Z" fill="#FBF1E4"/>
<path fill-rule="evenodd" clip-rule="evenodd" d="M107.5 177.5C108.5 177.5 109.5 177.5 110.5 177.5C110.061 183.231 109.227 188.897 108 194.5C101.391 197.649 94.5572 200.316 87.5 202.5C85.396 202.799 83.396 202.466 81.5 201.5C81.9767 200.522 82.6433 199.689 83.5 199C90.2524 196.362 97.0858 194.196 104 192.5C106.582 187.836 107.749 182.836 107.5 177.5Z" fill="#CF915B"/>
<path fill-rule="evenodd" clip-rule="evenodd" d="M272.5 200.5C273.483 201.85 274.816 202.85 276.5 203.5C275.975 204.192 275.308 204.692 274.5 205C219.477 206.5 164.477 206.667 109.5 205.5C112.218 204.896 114.551 203.563 116.5 201.5C162.167 201.5 207.833 201.5 253.5 201.5C260.02 204.472 266.353 204.139 272.5 200.5Z" fill="#F4E6D5"/>
</g>
<defs>
<clipPath id="clip0_41_551">
<rect width="300" height="300" fill="white"/>
</clipPath>
</defs>
</svg>
